<svg width="372" height="167" viewBox="0 0 372 167" fill="none" xmlns="http://www.w3.org/2000/svg">
<g filter="url(#filter0_dd_6030_1757)">
<rect x="10" y="8" width="348" height="144" rx="15" fill="#F1F1F1"/>
<path d="M94.125 54.1797C93.2188 54.1797 92.4323 54.0391 91.7656 53.7578C91.099 53.4766 90.5781 53.0677 90.2031 52.5312C89.8281 51.9896 89.625 51.3333 89.5938 50.5625H91.6719C91.7031 50.9688 91.8281 51.3073 92.0469 51.5781C92.2656 51.8438 92.5521 52.0443 92.9062 52.1797C93.2656 52.3151 93.6641 52.3828 94.1016 52.3828C94.5599 52.3828 94.9635 52.3125 95.3125 52.1719C95.6615 52.0312 95.9349 51.8359 96.1328 51.5859C96.3307 51.3359 96.4297 51.0443 96.4297 50.7109C96.4297 50.4089 96.3411 50.1615 96.1641 49.9688C95.987 49.7708 95.7422 49.6042 95.4297 49.4688C95.1172 49.3333 94.75 49.2135 94.3281 49.1094L93.0078 48.7656C92.0495 48.5208 91.2943 48.1484 90.7422 47.6484C90.1901 47.1432 89.9141 46.4714 89.9141 45.6328C89.9141 44.9453 90.099 44.3464 90.4688 43.8359C90.8385 43.3203 91.3438 42.9193 91.9844 42.6328C92.6302 42.3464 93.3594 42.2031 94.1719 42.2031C95 42.2031 95.7266 42.3464 96.3516 42.6328C96.9766 42.9193 97.4661 43.3151 97.8203 43.8203C98.1745 44.3255 98.3594 44.9062 98.375 45.5625H96.3359C96.2839 45.0625 96.0625 44.6771 95.6719 44.4062C95.2865 44.1302 94.7786 43.9922 94.1484 43.9922C93.7109 43.9922 93.3333 44.0573 93.0156 44.1875C92.7031 44.3177 92.4635 44.4974 92.2969 44.7266C92.1302 44.9557 92.0469 45.2161 92.0469 45.5078C92.0469 45.8307 92.1432 46.0964 92.3359 46.3047C92.5339 46.5078 92.7839 46.6719 93.0859 46.7969C93.3932 46.9219 93.7057 47.026 94.0234 47.1094L95.1094 47.3828C95.5469 47.487 95.9688 47.6276 96.375 47.8047C96.7812 47.9766 97.1458 48.1953 97.4688 48.4609C97.7969 48.7214 98.0547 49.0391 98.2422 49.4141C98.4349 49.7891 98.5312 50.2292 98.5312 50.7344C98.5312 51.4115 98.3568 52.0104 98.0078 52.5312C97.6589 53.0469 97.1562 53.4505 96.5 53.7422C95.8438 54.0339 95.0521 54.1797 94.125 54.1797ZM101.906 42.3594V54H99.7969V42.3594H101.906ZM103.594 42.3594H106.18L109.633 50.7891H109.766L113.227 42.3594H115.844V54H113.773V46H113.68L110.445 53.9609H108.93L105.734 45.9844H105.625V54H103.594V42.3594ZM117.531 54V42.3594H121.898C122.794 42.3594 123.544 42.526 124.148 42.8594C124.758 43.1927 125.219 43.651 125.531 44.2344C125.844 44.8177 126 45.4792 126 46.2188C126 46.9635 125.841 47.6276 125.523 48.2109C125.211 48.7891 124.747 49.2448 124.133 49.5781C123.518 49.9062 122.763 50.0703 121.867 50.0703H118.977V48.3359H121.578C122.104 48.3359 122.534 48.2474 122.867 48.0703C123.206 47.888 123.453 47.638 123.609 47.3203C123.771 46.9974 123.852 46.6302 123.852 46.2188C123.852 45.8021 123.771 45.4375 123.609 45.125C123.453 44.8073 123.206 44.5625 122.867 44.3906C122.534 44.2135 122.102 44.125 121.57 44.125H119.641V54H117.531ZM127.234 54V42.3594H129.344V52.2344H134.477V54H127.234ZM137.797 42.3594V54H135.688V42.3594H137.797ZM139.484 54V42.3594H146.953V44.125H141.594V47.6172H146.43V49.3594H141.594V54H139.484ZM150.375 42.3594V54H148.266V42.3594H150.375ZM152.062 54V42.3594H159.641V44.125H154.172V47.25H159.234V48.9922H154.172V52.2344H159.672V54H152.062ZM165.141 54H162.188V52.1719H165.031C165.839 52.1719 166.513 52.026 167.055 51.7344C167.602 51.4375 168.01 50.9922 168.281 50.3984C168.557 49.8047 168.695 49.0625 168.695 48.1719C168.695 47.2812 168.56 46.5417 168.289 45.9531C168.018 45.3646 167.615 44.9245 167.078 44.6328C166.542 44.3359 165.878 44.1875 165.086 44.1875H162.125V42.3594H165.211C166.367 42.3594 167.359 42.5911 168.188 43.0547C169.021 43.5182 169.661 44.1849 170.109 45.0547C170.557 45.9245 170.781 46.9635 170.781 48.1719C170.781 49.3802 170.557 50.4219 170.109 51.2969C169.661 52.1667 169.016 52.8359 168.172 53.3047C167.333 53.7682 166.323 54 165.141 54ZM163.297 42.3594V54H161.188V42.3594H163.297ZM175.547 54V42.3594H179.914C180.81 42.3594 181.56 42.5156 182.164 42.8281C182.773 43.1406 183.234 43.5781 183.547 44.1406C183.859 44.6979 184.016 45.3464 184.016 46.0859C184.016 46.8307 183.857 47.4766 183.539 48.0234C183.227 48.5703 182.763 48.9922 182.148 49.2891C181.534 49.5859 180.779 49.7344 179.883 49.7344H176.781V47.9922H179.594C180.12 47.9922 180.549 47.9193 180.883 47.7734C181.221 47.6276 181.469 47.4141 181.625 47.1328C181.786 46.8464 181.867 46.4974 181.867 46.0859C181.867 45.6745 181.786 45.3229 181.625 45.0312C181.464 44.7344 181.216 44.5104 180.883 44.3594C180.549 44.2031 180.117 44.125 179.586 44.125H177.656V54H175.547ZM182.086 54L179.266 48.7188H181.562L184.445 54H182.086ZM190.422 54.1562C189.406 54.1562 188.492 53.9193 187.68 53.4453C186.872 52.9714 186.234 52.2891 185.766 51.3984C185.302 50.5078 185.07 49.4375 185.07 48.1875C185.07 46.9323 185.302 45.8594 185.766 44.9688C186.234 44.0729 186.872 43.388 187.68 42.9141C188.492 42.4401 189.406 42.2031 190.422 42.2031C191.443 42.2031 192.354 42.4401 193.156 42.9141C193.958 43.388 194.594 44.0729 195.062 44.9688C195.531 45.8594 195.766 46.9323 195.766 48.1875C195.766 49.4375 195.531 50.5078 195.062 51.3984C194.594 52.2891 193.958 52.9714 193.156 53.4453C192.354 53.9193 191.443 54.1562 190.422 54.1562ZM190.422 52.2656C191.052 52.2656 191.609 52.1094 192.094 51.7969C192.578 51.4844 192.958 51.026 193.234 50.4219C193.51 49.8125 193.648 49.0677 193.648 48.1875C193.648 47.3021 193.51 46.5547 193.234 45.9453C192.958 45.3359 192.578 44.875 192.094 44.5625C191.609 44.25 191.052 44.0938 190.422 44.0938C189.792 44.0938 189.232 44.25 188.742 44.5625C188.258 44.875 187.878 45.3359 187.602 45.9453C187.326 46.5547 187.188 47.3021 187.188 48.1875C187.188 49.0677 187.326 49.8125 187.602 50.4219C187.878 51.026 188.258 51.4844 188.742 51.7969C189.232 52.1094 189.792 52.2656 190.422 52.2656ZM199.266 42.3594V54H197.156V42.3594H199.266ZM204.328 54V42.3594H211.797V44.125H206.438V47.6172H211.273V49.3594H206.438V54H204.328ZM218.172 54.1562C217.156 54.1562 216.242 53.9193 215.43 53.4453C214.622 52.9714 213.984 52.2891 213.516 51.3984C213.052 50.5078 212.82 49.4375 212.82 48.1875C212.82 46.9323 213.052 45.8594 213.516 44.9688C213.984 44.0729 214.622 43.388 215.43 42.9141C216.242 42.4401 217.156 42.2031 218.172 42.2031C219.193 42.2031 220.104 42.4401 220.906 42.9141C221.708 43.388 222.344 44.0729 222.812 44.9688C223.281 45.8594 223.516 46.9323 223.516 48.1875C223.516 49.4375 223.281 50.5078 222.812 51.3984C222.344 52.2891 221.708 52.9714 220.906 53.4453C220.104 53.9193 219.193 54.1562 218.172 54.1562ZM218.172 52.2656C218.802 52.2656 219.359 52.1094 219.844 51.7969C220.328 51.4844 220.708 51.026 220.984 50.4219C221.26 49.8125 221.398 49.0677 221.398 48.1875C221.398 47.3021 221.26 46.5547 220.984 45.9453C220.708 45.3359 220.328 44.875 219.844 44.5625C219.359 44.25 218.802 44.0938 218.172 44.0938C217.542 44.0938 216.982 44.25 216.492 44.5625C216.008 44.875 215.628 45.3359 215.352 45.9453C215.076 46.5547 214.938 47.3021 214.938 48.1875C214.938 49.0677 215.076 49.8125 215.352 50.4219C215.628 51.026 216.008 51.4844 216.492 51.7969C216.982 52.1094 217.542 52.2656 218.172 52.2656ZM224.906 54V42.3594H229.273C230.169 42.3594 230.919 42.5156 231.523 42.8281C232.133 43.1406 232.594 43.5781 232.906 44.1406C233.219 44.6979 233.375 45.3464 233.375 46.0859C233.375 46.8307 233.216 47.4766 232.898 48.0234C232.586 48.5703 232.122 48.9922 231.508 49.2891C230.893 49.5859 230.138 49.7344 229.242 49.7344H226.141V47.9922H228.953C229.479 47.9922 229.909 47.9193 230.242 47.7734C230.581 47.6276 230.828 47.4141 230.984 47.1328C231.146 46.8464 231.227 46.4974 231.227 46.0859C231.227 45.6745 231.146 45.3229 230.984 45.0312C230.823 44.7344 230.576 44.5104 230.242 44.3594C229.909 44.2031 229.477 44.125 228.945 44.125H227.016V54H224.906ZM231.445 54L228.625 48.7188H230.922L233.805 54H231.445ZM234.719 42.3594H237.305L240.758 50.7891H240.891L244.352 42.3594H246.969V54H244.898V46H244.805L241.57 53.9609H240.055L236.859 45.9844H236.75V54H234.719V42.3594ZM256 42.3594H258.102V49.9609C258.102 50.7943 257.906 51.5286 257.516 52.1641C257.125 52.7943 256.576 53.2891 255.867 53.6484C255.159 54.0026 254.331 54.1797 253.383 54.1797C252.435 54.1797 251.607 54.0026 250.898 53.6484C250.19 53.2891 249.638 52.7943 249.242 52.1641C248.852 51.5286 248.656 50.7943 248.656 49.9609V42.3594H250.766V49.7891C250.766 50.2786 250.872 50.7109 251.086 51.0859C251.299 51.4609 251.602 51.7578 251.992 51.9766C252.388 52.1901 252.852 52.2969 253.383 52.2969C253.914 52.2969 254.375 52.1901 254.766 51.9766C255.156 51.7578 255.458 51.4609 255.672 51.0859C255.891 50.7109 256 50.2786 256 49.7891V42.3594ZM259.797 54V42.3594H261.906V52.2344H267.039V54H259.797ZM270.188 54H267.93L272.039 42.3594H274.633L278.734 54H276.484L273.375 44.75H273.281L270.188 54ZM270.266 49.4375H276.398V51.125H270.266V49.4375Z" fill="#818181"/>
<path d="M42.1553 79.5566C42.1553 78.8711 42.2251 78.1517 42.3647 77.3984C42.5044 76.641 42.6969 75.911 42.9424 75.2085C43.1921 74.506 43.4756 73.8945 43.793 73.374H45.1006C44.779 74.0384 44.5018 74.7303 44.269 75.4497C44.0363 76.1649 43.8564 76.8737 43.7295 77.5762C43.6068 78.2744 43.5454 78.9346 43.5454 79.5566C43.5454 80.1068 43.5983 80.6675 43.7041 81.2388C43.8141 81.8058 43.9834 82.411 44.2119 83.0542C44.4404 83.6974 44.7367 84.4062 45.1006 85.1807H43.793C43.2555 84.2751 42.8472 83.3462 42.5679 82.394C42.2928 81.4419 42.1553 80.4961 42.1553 79.5566ZM49.3027 84.1523C48.596 84.1523 47.9824 84.0423 47.4619 83.8223C46.9456 83.598 46.5415 83.2785 46.2495 82.8638C45.9575 82.4491 45.7946 81.9561 45.7607 81.3848H47.1953C47.2249 81.7275 47.335 82.0132 47.5254 82.2417C47.7201 82.466 47.9718 82.6331 48.2808 82.7432C48.5897 82.8532 48.9282 82.9082 49.2964 82.9082C49.6984 82.9082 50.0581 82.8447 50.3755 82.7178C50.6929 82.5908 50.9404 82.4131 51.1182 82.1846C51.3001 81.9518 51.3911 81.681 51.3911 81.3721C51.3911 81.0928 51.3107 80.8643 51.1499 80.6865C50.9933 80.5088 50.7796 80.3628 50.5088 80.2485C50.238 80.13 49.9333 80.0264 49.5947 79.9375L48.4839 79.6328C47.7222 79.4297 47.1213 79.1271 46.6812 78.7251C46.241 78.3188 46.021 77.7878 46.021 77.1318C46.021 76.5859 46.167 76.1099 46.459 75.7036C46.7552 75.2974 47.1551 74.9821 47.6587 74.7578C48.1665 74.5293 48.7357 74.415 49.3662 74.415C50.0094 74.415 50.5744 74.5293 51.061 74.7578C51.5519 74.9821 51.9391 75.291 52.2227 75.6846C52.5104 76.0739 52.6606 76.5203 52.6733 77.0239H51.2896C51.2388 76.5881 51.0356 76.2495 50.6802 76.0083C50.3289 75.7671 49.8804 75.6465 49.3345 75.6465C48.9536 75.6465 48.6193 75.7078 48.3315 75.8306C48.048 75.9491 47.828 76.1141 47.6714 76.3257C47.519 76.5373 47.4429 76.7806 47.4429 77.0557C47.4429 77.3519 47.5339 77.5931 47.7158 77.7793C47.902 77.9655 48.1263 78.1136 48.3887 78.2236C48.6553 78.3294 48.9113 78.4162 49.1567 78.4839L50.0771 78.7314C50.3776 78.8076 50.6865 78.9092 51.0039 79.0361C51.3213 79.1631 51.6154 79.3302 51.8862 79.5376C52.1613 79.7407 52.3813 79.9946 52.5464 80.2993C52.7157 80.5998 52.8003 80.9637 52.8003 81.3911C52.8003 81.9201 52.6628 82.394 52.3877 82.813C52.1126 83.2277 51.7148 83.5557 51.1943 83.7969C50.6738 84.0339 50.0433 84.1523 49.3027 84.1523ZM54.6855 84H53.1685L56.5708 74.542H58.2212L61.6172 84H60.1064L57.4277 76.2622H57.3516L54.6855 84ZM54.9395 80.2993H59.8462V81.4927H54.9395V80.2993ZM62.2646 74.542L64.8989 82.2417H65.0005L67.6348 74.542H69.1709L65.7749 84H64.1245L60.7222 74.542H62.2646ZM71.4053 74.542V84H69.9771V74.542H71.4053ZM80.584 74.542V84H79.251L74.4585 77.0684H74.3633V84H72.9351V74.542H74.2554L79.0669 81.4863H79.1558V74.542H80.584ZM86.1128 84.127C85.258 84.127 84.5068 83.9302 83.8594 83.5366C83.2161 83.1431 82.7126 82.5845 82.3486 81.8608C81.9889 81.133 81.8091 80.2718 81.8091 79.2773C81.8091 78.2702 81.991 77.4048 82.355 76.6812C82.7231 75.9533 83.2267 75.3947 83.8657 75.0054C84.5047 74.6118 85.2326 74.415 86.0493 74.415C86.5571 74.415 87.0311 74.4912 87.4712 74.6436C87.9155 74.7917 88.3091 75.0054 88.6519 75.2847C88.9989 75.564 89.2845 75.894 89.5088 76.2749C89.7373 76.6515 89.8918 77.0705 89.9722 77.5317H88.5122C88.4233 77.2482 88.3049 76.9964 88.1567 76.7764C88.0086 76.5521 87.8309 76.3617 87.6235 76.2051C87.4162 76.0443 87.1813 75.9237 86.9189 75.8433C86.6608 75.7586 86.373 75.7163 86.0557 75.7163C85.5225 75.7163 85.0422 75.8538 84.6147 76.1289C84.1873 76.3997 83.8488 76.7996 83.5991 77.3286C83.3494 77.8576 83.2246 78.505 83.2246 79.271C83.2246 80.0369 83.3494 80.6844 83.5991 81.2134C83.8488 81.7424 84.1916 82.1444 84.6274 82.4194C85.0633 82.6903 85.5584 82.8257 86.1128 82.8257C86.6248 82.8257 87.0713 82.722 87.4521 82.5146C87.833 82.3031 88.1292 82.0068 88.3408 81.626C88.5524 81.2451 88.6582 80.7944 88.6582 80.2739L89.0327 80.3438H86.3286V79.1631H90.0483V80.2422C90.0483 81.0378 89.8791 81.7254 89.5405 82.3052C89.2062 82.8849 88.7407 83.3335 88.144 83.6509C87.5516 83.9683 86.8745 84.127 86.1128 84.127ZM96.8721 83.397V77.1572H98.1099V83.397H96.8721ZM94.3647 80.9023V79.6519H100.611V80.9023H94.3647ZM106.013 84H104.496L107.898 74.542H109.548L112.944 84H111.434L108.755 76.2622H108.679L106.013 84ZM106.267 80.2993H111.173V81.4927H106.267V80.2993ZM116.816 84H114.48V82.7495H116.734C117.453 82.7495 118.052 82.6162 118.53 82.3496C119.008 82.0788 119.366 81.6831 119.603 81.1626C119.84 80.6379 119.958 80.0031 119.958 79.2583C119.958 78.5177 119.84 77.8893 119.603 77.373C119.37 76.8568 119.021 76.4653 118.556 76.1987C118.09 75.9279 117.513 75.7925 116.823 75.7925H114.43V74.542H116.912C117.838 74.542 118.634 74.7303 119.298 75.1069C119.963 75.4836 120.473 76.0252 120.828 76.7319C121.184 77.4344 121.361 78.2765 121.361 79.2583C121.361 80.2443 121.181 81.0907 120.822 81.7974C120.466 82.5041 119.95 83.0479 119.273 83.4287C118.596 83.8096 117.777 84 116.816 84ZM115.179 74.542V84H113.75V74.542H115.179ZM125.652 84H123.316V82.7495H125.57C126.289 82.7495 126.888 82.6162 127.366 82.3496C127.844 82.0788 128.202 81.6831 128.439 81.1626C128.676 80.6379 128.794 80.0031 128.794 79.2583C128.794 78.5177 128.676 77.8893 128.439 77.373C128.206 76.8568 127.857 76.4653 127.392 76.1987C126.926 75.9279 126.348 75.7925 125.659 75.7925H123.266V74.542H125.748C126.674 74.542 127.47 74.7303 128.134 75.1069C128.799 75.4836 129.309 76.0252 129.664 76.7319C130.02 77.4344 130.197 78.2765 130.197 79.2583C130.197 80.2443 130.017 81.0907 129.658 81.7974C129.302 82.5041 128.786 83.0479 128.109 83.4287C127.432 83.8096 126.613 84 125.652 84ZM124.015 74.542V84H122.586V74.542H124.015ZM132.851 74.542V84H131.422V74.542H132.851ZM133.911 75.7671V74.542H141.236V75.7671H138.291V84H136.869V75.7671H133.911ZM143.718 74.542V84H142.29V74.542H143.718ZM149.208 84.127C148.396 84.127 147.668 83.9323 147.025 83.543C146.382 83.1536 145.874 82.5972 145.501 81.8735C145.129 81.1457 144.943 80.2803 144.943 79.2773C144.943 78.266 145.129 77.3984 145.501 76.6748C145.874 75.9469 146.382 75.3883 147.025 74.999C147.668 74.6097 148.396 74.415 149.208 74.415C150.029 74.415 150.759 74.6097 151.398 74.999C152.037 75.3883 152.541 75.9469 152.909 76.6748C153.282 77.3984 153.468 78.266 153.468 79.2773C153.468 80.2845 153.282 81.1499 152.909 81.8735C152.541 82.5972 152.037 83.1536 151.398 83.543C150.759 83.9323 150.029 84.127 149.208 84.127ZM149.208 82.8257C149.754 82.8257 150.241 82.6903 150.668 82.4194C151.096 82.1486 151.432 81.7487 151.678 81.2197C151.927 80.6908 152.052 80.0433 152.052 79.2773C152.052 78.5072 151.927 77.8576 151.678 77.3286C151.432 76.7954 151.096 76.3934 150.668 76.1226C150.241 75.8517 149.754 75.7163 149.208 75.7163C148.667 75.7163 148.18 75.8517 147.749 76.1226C147.321 76.3934 146.983 76.7954 146.733 77.3286C146.483 77.8576 146.358 78.5072 146.358 79.2773C146.358 80.0433 146.483 80.6908 146.733 81.2197C146.983 81.7487 147.321 82.1486 147.749 82.4194C148.18 82.6903 148.667 82.8257 149.208 82.8257ZM162.342 74.542V84H161.009L156.216 77.0684H156.121V84H154.693V74.542H156.013L160.825 81.4863H160.914V74.542H162.342ZM164.678 84H163.161L166.563 74.542H168.213L171.609 84H170.099L167.42 76.2622H167.344L164.678 84ZM164.932 80.2993H169.838V81.4927H164.932V80.2993ZM172.416 84V74.542H173.844V82.7749H178.128V84H172.416ZM182.102 84V74.542H185.479C186.211 74.542 186.818 74.6774 187.301 74.9482C187.783 75.2148 188.145 75.5809 188.386 76.0464C188.627 76.5076 188.748 77.0282 188.748 77.6079C188.748 78.1877 188.627 78.7103 188.386 79.1758C188.145 79.637 187.781 80.0031 187.294 80.2739C186.812 80.5405 186.203 80.6738 185.466 80.6738H183.156V79.4678H185.333C185.803 79.4678 186.181 79.3874 186.469 79.2266C186.761 79.0658 186.973 78.8457 187.104 78.5664C187.239 78.2829 187.307 77.9634 187.307 77.6079C187.307 77.2482 187.239 76.9308 187.104 76.6558C186.973 76.3765 186.761 76.1585 186.469 76.002C186.177 75.8454 185.796 75.7671 185.327 75.7671H183.53V84H182.102ZM189.859 84V74.542H193.236C193.968 74.542 194.575 74.6689 195.058 74.9229C195.54 75.1725 195.902 75.5216 196.143 75.9702C196.384 76.4146 196.505 76.9287 196.505 77.5127C196.505 78.0882 196.384 78.596 196.143 79.0361C195.902 79.4762 195.538 79.8169 195.051 80.0581C194.569 80.2993 193.959 80.4199 193.223 80.4199H190.678V79.2012H193.09C193.56 79.2012 193.938 79.1335 194.226 78.998C194.518 78.8626 194.73 78.6701 194.861 78.4204C194.996 78.1707 195.064 77.8682 195.064 77.5127C195.064 77.153 194.996 76.8441 194.861 76.5859C194.725 76.3236 194.512 76.1226 194.22 75.9829C193.932 75.839 193.553 75.7671 193.083 75.7671H191.287V84H189.859ZM195.242 84L192.95 79.728H194.531L196.867 84H195.242ZM201.666 84.127C200.853 84.127 200.125 83.9323 199.482 83.543C198.839 83.1536 198.331 82.5972 197.958 81.8735C197.586 81.1457 197.4 80.2803 197.4 79.2773C197.4 78.266 197.586 77.3984 197.958 76.6748C198.331 75.9469 198.839 75.3883 199.482 74.999C200.125 74.6097 200.853 74.415 201.666 74.415C202.486 74.415 203.216 74.6097 203.855 74.999C204.494 75.3883 204.998 75.9469 205.366 76.6748C205.739 77.3984 205.925 78.266 205.925 79.2773C205.925 80.2845 205.739 81.1499 205.366 81.8735C204.998 82.5972 204.494 83.1536 203.855 83.543C203.216 83.9323 202.486 84.127 201.666 84.127ZM201.666 82.8257C202.211 82.8257 202.698 82.6903 203.125 82.4194C203.553 82.1486 203.889 81.7487 204.135 81.2197C204.384 80.6908 204.509 80.0433 204.509 79.2773C204.509 78.5072 204.384 77.8576 204.135 77.3286C203.889 76.7954 203.553 76.3934 203.125 76.1226C202.698 75.8517 202.211 75.7163 201.666 75.7163C201.124 75.7163 200.637 75.8517 200.206 76.1226C199.778 76.3934 199.44 76.7954 199.19 77.3286C198.94 77.8576 198.815 78.5072 198.815 79.2773C198.815 80.0433 198.94 80.6908 199.19 81.2197C199.44 81.7487 199.778 82.1486 200.206 82.4194C200.637 82.6903 201.124 82.8257 201.666 82.8257ZM207.15 84V74.542H213.021V75.7671H208.578V78.833H212.596V80.0518H208.578V84H207.15ZM215.649 74.542V84H214.221V74.542H215.649ZM216.709 75.7671V74.542H224.035V75.7671H221.089V84H219.667V75.7671H216.709ZM224.593 85.1807C224.957 84.4062 225.253 83.6974 225.482 83.0542C225.71 82.411 225.878 81.8058 225.983 81.2388C226.089 80.6675 226.142 80.1068 226.142 79.5566C226.142 78.9346 226.079 78.2744 225.952 77.5762C225.829 76.8737 225.653 76.1649 225.425 75.4497C225.196 74.7303 224.919 74.0384 224.593 73.374H225.901C226.222 73.8945 226.506 74.506 226.751 75.2085C226.997 75.911 227.189 76.641 227.329 77.3984C227.469 78.1517 227.539 78.8711 227.539 79.5566C227.539 80.4961 227.399 81.4419 227.12 82.394C226.845 83.3462 226.438 84.2751 225.901 85.1807H224.593ZM236.267 79.4106V80.604H232.064V79.4106H236.267ZM241.979 74.542V84H240.551V74.542H241.979ZM251.158 74.542V84H249.825L245.033 77.0684H244.938V84H243.509V74.542H244.83L249.641 81.4863H249.73V74.542H251.158ZM253.52 74.542L256.154 82.2417H256.255L258.89 74.542H260.426L257.03 84H255.379L251.977 74.542H253.52ZM261.232 84V74.542H267.167V75.7671H262.66V78.6172H266.85V79.8359H262.66V82.7749H267.211V84H261.232ZM271.687 84.1523C270.98 84.1523 270.366 84.0423 269.846 83.8223C269.329 83.598 268.925 83.2785 268.633 82.8638C268.341 82.4491 268.178 81.9561 268.145 81.3848H269.579C269.609 81.7275 269.719 82.0132 269.909 82.2417C270.104 82.466 270.356 82.6331 270.665 82.7432C270.973 82.8532 271.312 82.9082 271.68 82.9082C272.082 82.9082 272.442 82.8447 272.759 82.7178C273.077 82.5908 273.324 82.4131 273.502 82.1846C273.684 81.9518 273.775 81.681 273.775 81.3721C273.775 81.0928 273.694 80.8643 273.534 80.6865C273.377 80.5088 273.163 80.3628 272.893 80.2485C272.622 80.13 272.317 80.0264 271.979 79.9375L270.868 79.6328C270.106 79.4297 269.505 79.1271 269.065 78.7251C268.625 78.3188 268.405 77.7878 268.405 77.1318C268.405 76.5859 268.551 76.1099 268.843 75.7036C269.139 75.2974 269.539 74.9821 270.042 74.7578C270.55 74.5293 271.119 74.415 271.75 74.415C272.393 74.415 272.958 74.5293 273.445 74.7578C273.936 74.9821 274.323 75.291 274.606 75.6846C274.894 76.0739 275.044 76.5203 275.057 77.0239H273.673C273.623 76.5881 273.419 76.2495 273.064 76.0083C272.713 75.7671 272.264 75.6465 271.718 75.6465C271.337 75.6465 271.003 75.7078 270.715 75.8306C270.432 75.9491 270.212 76.1141 270.055 76.3257C269.903 76.5373 269.827 76.7806 269.827 77.0557C269.827 77.3519 269.918 77.5931 270.1 77.7793C270.286 77.9655 270.51 78.1136 270.772 78.2236C271.039 78.3294 271.295 78.4162 271.541 78.4839L272.461 78.7314C272.761 78.8076 273.07 78.9092 273.388 79.0361C273.705 79.1631 273.999 79.3302 274.27 79.5376C274.545 79.7407 274.765 79.9946 274.93 80.2993C275.099 80.5998 275.184 80.9637 275.184 81.3911C275.184 81.9201 275.047 82.394 274.771 82.813C274.496 83.2277 274.099 83.5557 273.578 83.7969C273.058 84.0339 272.427 84.1523 271.687 84.1523ZM275.87 75.7671V74.542H283.195V75.7671H280.25V84H278.828V75.7671H275.87ZM284.249 74.542H285.988L288.997 81.8926H289.104L292.12 74.542H293.884V84H292.488V77.1572H292.399L289.6 83.9873H288.47L285.702 77.1509H285.613V84H284.249V74.542ZM295.408 84V74.542H301.343V75.7671H296.836V78.6172H301.025V79.8359H296.836V82.7749H301.387V84H295.408ZM310.344 74.542V84H309.011L304.218 77.0684H304.123V84H302.695V74.542H304.015L308.827 81.4863H308.916V74.542H310.344ZM311.404 75.7671V74.542H318.729V75.7671H315.784V84H314.362V75.7671H311.404ZM322.95 84.1523C322.243 84.1523 321.63 84.0423 321.109 83.8223C320.593 83.598 320.189 83.2785 319.897 82.8638C319.605 82.4491 319.442 81.9561 319.408 81.3848H320.843C320.872 81.7275 320.982 82.0132 321.173 82.2417C321.368 82.466 321.619 82.6331 321.928 82.7432C322.237 82.8532 322.576 82.9082 322.944 82.9082C323.346 82.9082 323.706 82.8447 324.023 82.7178C324.34 82.5908 324.588 82.4131 324.766 82.1846C324.948 81.9518 325.039 81.681 325.039 81.3721C325.039 81.0928 324.958 80.8643 324.797 80.6865C324.641 80.5088 324.427 80.3628 324.156 80.2485C323.885 80.13 323.581 80.0264 323.242 79.9375L322.131 79.6328C321.37 79.4297 320.769 79.1271 320.329 78.7251C319.889 78.3188 319.668 77.7878 319.668 77.1318C319.668 76.5859 319.814 76.1099 320.106 75.7036C320.403 75.2974 320.803 74.9821 321.306 74.7578C321.814 74.5293 322.383 74.415 323.014 74.415C323.657 74.415 324.222 74.5293 324.708 74.7578C325.199 74.9821 325.587 75.291 325.87 75.6846C326.158 76.0739 326.308 76.5203 326.321 77.0239H324.937C324.886 76.5881 324.683 76.2495 324.328 76.0083C323.976 75.7671 323.528 75.6465 322.982 75.6465C322.601 75.6465 322.267 75.7078 321.979 75.8306C321.695 75.9491 321.475 76.1141 321.319 76.3257C321.167 76.5373 321.09 76.7806 321.09 77.0557C321.09 77.3519 321.181 77.5931 321.363 77.7793C321.549 77.9655 321.774 78.1136 322.036 78.2236C322.303 78.3294 322.559 78.4162 322.804 78.4839L323.725 78.7314C324.025 78.8076 324.334 78.9092 324.651 79.0361C324.969 79.1631 325.263 79.3302 325.534 79.5376C325.809 79.7407 326.029 79.9946 326.194 80.2993C326.363 80.5998 326.448 80.9637 326.448 81.3911C326.448 81.9201 326.31 82.394 326.035 82.813C325.76 83.2277 325.362 83.5557 324.842 83.7969C324.321 84.0339 323.691 84.1523 322.95 84.1523Z" fill="#818181"/>
<rect x="40" y="95" width="288" height="1" fill="#818181"/>
<path d="M116.611 106.542V116H115.183V106.542H116.611ZM125.79 106.542V116H124.457L119.665 109.068H119.569V116H118.141V106.542H119.461L124.273 113.486H124.362V106.542H125.79ZM128.151 106.542L130.786 114.242H130.887L133.521 106.542H135.058L131.662 116H130.011L126.609 106.542H128.151ZM135.864 116V106.542H141.799V107.767H137.292V110.617H141.481V111.836H137.292V114.775H141.843V116H135.864ZM146.318 116.152C145.612 116.152 144.998 116.042 144.478 115.822C143.961 115.598 143.557 115.278 143.265 114.864C142.973 114.449 142.81 113.956 142.776 113.385H144.211C144.241 113.728 144.351 114.013 144.541 114.242C144.736 114.466 144.987 114.633 145.296 114.743C145.605 114.853 145.944 114.908 146.312 114.908C146.714 114.908 147.074 114.845 147.391 114.718C147.708 114.591 147.956 114.413 148.134 114.185C148.316 113.952 148.407 113.681 148.407 113.372C148.407 113.093 148.326 112.864 148.166 112.687C148.009 112.509 147.795 112.363 147.524 112.249C147.254 112.13 146.949 112.026 146.61 111.938L145.5 111.633C144.738 111.43 144.137 111.127 143.697 110.725C143.257 110.319 143.037 109.788 143.037 109.132C143.037 108.586 143.183 108.11 143.475 107.704C143.771 107.297 144.171 106.982 144.674 106.758C145.182 106.529 145.751 106.415 146.382 106.415C147.025 106.415 147.59 106.529 148.077 106.758C148.568 106.982 148.955 107.291 149.238 107.685C149.526 108.074 149.676 108.52 149.689 109.024H148.305C148.254 108.588 148.051 108.25 147.696 108.008C147.345 107.767 146.896 107.646 146.35 107.646C145.969 107.646 145.635 107.708 145.347 107.831C145.064 107.949 144.844 108.114 144.687 108.326C144.535 108.537 144.458 108.781 144.458 109.056C144.458 109.352 144.549 109.593 144.731 109.779C144.918 109.965 145.142 110.114 145.404 110.224C145.671 110.329 145.927 110.416 146.172 110.484L147.093 110.731C147.393 110.808 147.702 110.909 148.02 111.036C148.337 111.163 148.631 111.33 148.902 111.538C149.177 111.741 149.397 111.995 149.562 112.299C149.731 112.6 149.816 112.964 149.816 113.391C149.816 113.92 149.678 114.394 149.403 114.813C149.128 115.228 148.73 115.556 148.21 115.797C147.689 116.034 147.059 116.152 146.318 116.152ZM150.501 107.767V106.542H157.827V107.767H154.881V116H153.459V107.767H150.501ZM158.88 106.542H160.62L163.628 113.893H163.736L166.751 106.542H168.516V116H167.12V109.157H167.031L164.231 115.987H163.102L160.334 109.151H160.245V116H158.88V106.542ZM170.04 116V106.542H175.975V107.767H171.468V110.617H175.657V111.836H171.468V114.775H176.019V116H170.04ZM184.976 106.542V116H183.643L178.85 109.068H178.755V116H177.327V106.542H178.647L183.458 113.486H183.547V106.542H184.976ZM186.036 107.767V106.542H193.361V107.767H190.416V116H188.994V107.767H186.036ZM197.582 116.152C196.875 116.152 196.262 116.042 195.741 115.822C195.225 115.598 194.821 115.278 194.529 114.864C194.237 114.449 194.074 113.956 194.04 113.385H195.475C195.504 113.728 195.614 114.013 195.805 114.242C195.999 114.466 196.251 114.633 196.56 114.743C196.869 114.853 197.208 114.908 197.576 114.908C197.978 114.908 198.337 114.845 198.655 114.718C198.972 114.591 199.22 114.413 199.397 114.185C199.579 113.952 199.67 113.681 199.67 113.372C199.67 113.093 199.59 112.864 199.429 112.687C199.273 112.509 199.059 112.363 198.788 112.249C198.517 112.13 198.213 112.026 197.874 111.938L196.763 111.633C196.001 111.43 195.401 111.127 194.96 110.725C194.52 110.319 194.3 109.788 194.3 109.132C194.3 108.586 194.446 108.11 194.738 107.704C195.035 107.297 195.434 106.982 195.938 106.758C196.446 106.529 197.015 106.415 197.646 106.415C198.289 106.415 198.854 106.529 199.34 106.758C199.831 106.982 200.218 107.291 200.502 107.685C200.79 108.074 200.94 108.52 200.953 109.024H199.569C199.518 108.588 199.315 108.25 198.959 108.008C198.608 107.767 198.16 107.646 197.614 107.646C197.233 107.646 196.899 107.708 196.611 107.831C196.327 107.949 196.107 108.114 195.951 108.326C195.798 108.537 195.722 108.781 195.722 109.056C195.722 109.352 195.813 109.593 195.995 109.779C196.181 109.965 196.406 110.114 196.668 110.224C196.935 110.329 197.191 110.416 197.436 110.484L198.356 110.731C198.657 110.808 198.966 110.909 199.283 111.036C199.601 111.163 199.895 111.33 200.166 111.538C200.441 111.741 200.661 111.995 200.826 112.299C200.995 112.6 201.08 112.964 201.08 113.391C201.08 113.92 200.942 114.394 200.667 114.813C200.392 115.228 199.994 115.556 199.474 115.797C198.953 116.034 198.323 116.152 197.582 116.152Z" fill="#818181"/>
<path d="M214.318 115.318L207.318 108.318M214.318 108.319L207.318 115.318" stroke="#818181" stroke-linecap="round"/>
<path d="M224.156 105.359V117H222.781V106.844H222.703L219.875 108.734V107.297L222.781 105.359H224.156ZM229.812 117.156C228.958 117.156 228.229 116.922 227.625 116.453C227.021 115.984 226.56 115.307 226.242 114.422C225.924 113.531 225.766 112.453 225.766 111.188C225.766 109.927 225.924 108.852 226.242 107.961C226.565 107.065 227.029 106.383 227.633 105.914C228.237 105.44 228.964 105.203 229.812 105.203C230.661 105.203 231.388 105.44 231.992 105.914C232.596 106.383 233.057 107.065 233.375 107.961C233.698 108.852 233.859 109.927 233.859 111.188C233.859 112.453 233.701 113.531 233.383 114.422C233.065 115.307 232.604 115.984 232 116.453C231.401 116.922 230.672 117.156 229.812 117.156ZM229.812 115.922C230.391 115.922 230.88 115.737 231.281 115.367C231.682 114.992 231.987 114.451 232.195 113.742C232.409 113.034 232.516 112.182 232.516 111.188C232.516 110.188 232.409 109.333 232.195 108.625C231.987 107.917 231.682 107.375 231.281 107C230.88 106.625 230.391 106.438 229.812 106.438C228.948 106.438 228.281 106.854 227.812 107.688C227.344 108.521 227.109 109.688 227.109 111.188C227.109 112.182 227.214 113.034 227.422 113.742C227.635 114.451 227.943 114.992 228.344 115.367C228.75 115.737 229.24 115.922 229.812 115.922ZM239.062 117.156C238.208 117.156 237.479 116.922 236.875 116.453C236.271 115.984 235.81 115.307 235.492 114.422C235.174 113.531 235.016 112.453 235.016 111.188C235.016 109.927 235.174 108.852 235.492 107.961C235.815 107.065 236.279 106.383 236.883 105.914C237.487 105.44 238.214 105.203 239.062 105.203C239.911 105.203 240.638 105.44 241.242 105.914C241.846 106.383 242.307 107.065 242.625 107.961C242.948 108.852 243.109 109.927 243.109 111.188C243.109 112.453 242.951 113.531 242.633 114.422C242.315 115.307 241.854 115.984 241.25 116.453C240.651 116.922 239.922 117.156 239.062 117.156ZM239.062 115.922C239.641 115.922 240.13 115.737 240.531 115.367C240.932 114.992 241.237 114.451 241.445 113.742C241.659 113.034 241.766 112.182 241.766 111.188C241.766 110.188 241.659 109.333 241.445 108.625C241.237 107.917 240.932 107.375 240.531 107C240.13 106.625 239.641 106.438 239.062 106.438C238.198 106.438 237.531 106.854 237.062 107.688C236.594 108.521 236.359 109.688 236.359 111.188C236.359 112.182 236.464 113.034 236.672 113.742C236.885 114.451 237.193 114.992 237.594 115.367C238 115.737 238.49 115.922 239.062 115.922ZM250.453 114.812V114.203C250.453 113.776 250.539 113.385 250.711 113.031C250.888 112.677 251.146 112.393 251.484 112.18C251.823 111.966 252.234 111.859 252.719 111.859C253.214 111.859 253.628 111.966 253.961 112.18C254.294 112.393 254.544 112.677 254.711 113.031C254.883 113.385 254.969 113.776 254.969 114.203V114.812C254.969 115.24 254.883 115.63 254.711 115.984C254.539 116.339 254.286 116.622 253.953 116.836C253.62 117.049 253.208 117.156 252.719 117.156C252.229 117.156 251.815 117.049 251.477 116.836C251.138 116.622 250.883 116.339 250.711 115.984C250.539 115.63 250.453 115.24 250.453 114.812ZM251.609 114.203V114.812C251.609 115.167 251.693 115.484 251.859 115.766C252.026 116.042 252.312 116.182 252.719 116.188C253.12 116.182 253.401 116.042 253.562 115.766C253.729 115.484 253.812 115.167 253.812 114.812V114.203C253.812 113.849 253.732 113.534 253.57 113.258C253.414 112.982 253.13 112.844 252.719 112.844C252.323 112.844 252.039 112.982 251.867 113.258C251.695 113.534 251.609 113.849 251.609 114.203ZM244.656 108.156V107.547C244.656 107.12 244.745 106.729 244.922 106.375C245.099 106.021 245.354 105.737 245.688 105.523C246.026 105.31 246.438 105.203 246.922 105.203C247.417 105.203 247.831 105.31 248.164 105.523C248.503 105.737 248.755 106.021 248.922 106.375C249.094 106.729 249.177 107.12 249.172 107.547V108.156C249.177 108.578 249.091 108.969 248.914 109.328C248.742 109.682 248.49 109.966 248.156 110.18C247.823 110.393 247.411 110.5 246.922 110.5C246.432 110.5 246.018 110.393 245.68 110.18C245.341 109.966 245.086 109.682 244.914 109.328C244.742 108.969 244.656 108.578 244.656 108.156ZM245.812 107.547V108.156C245.812 108.51 245.896 108.828 246.062 109.109C246.229 109.385 246.516 109.521 246.922 109.516C247.323 109.521 247.604 109.385 247.766 109.109C247.932 108.828 248.016 108.51 248.016 108.156V107.547C248.016 107.193 247.935 106.878 247.773 106.602C247.617 106.32 247.333 106.182 246.922 106.188C246.526 106.182 246.242 106.32 246.07 106.602C245.898 106.878 245.812 107.193 245.812 107.547ZM245.094 117L253.094 105.359H254.391L246.391 117H245.094Z" fill="#818181"/>
</g>
<defs>
<filter id="filter0_dd_6030_1757" x="0" y="0" width="371.9" height="166.9" filterUnits="userSpaceOnUse" color-interpolation-filters="sRGB">
<feFlood flood-opacity="0" result="BackgroundImageFix"/>
<feColorMatrix in="SourceAlpha" type="matrix" values="0 0 0 0 0 0 0 0 0 0 0 0 0 0 0 0 0 0 127 0" result="hardAlpha"/>
<feOffset dx="3" dy="4"/>
<feGaussianBlur stdDeviation="5.45"/>
<feComposite in2="hardAlpha" operator="out"/>
<feColorMatrix type="matrix" values="0 0 0 0 0.706731 0 0 0 0 0.706731 0 0 0 0 0.706731 0 0 0 0.65 0"/>
<feBlend mode="normal" in2="BackgroundImageFix" result="effect1_dropShadow_6030_1757"/>
<feColorMatrix in="SourceAlpha" type="matrix" values="0 0 0 0 0 0 0 0 0 0 0 0 0 0 0 0 0 0 127 0" result="hardAlpha"/>
<feOffset dx="-4" dy="-2"/>
<feGaussianBlur stdDeviation="3"/>
<feComposite in2="hardAlpha" operator="out"/>
<feColorMatrix type="matrix" values="0 0 0 0 1 0 0 0 0 1 0 0 0 0 1 0 0 0 1 0"/>
<feBlend mode="normal" in2="effect1_dropShadow_6030_1757" result="effect2_dropShadow_6030_1757"/>
<feBlend mode="normal" in="SourceGraphic" in2="effect2_dropShadow_6030_1757" result="shape"/>
</filter>
</defs>
</svg>
