<svg width="405" height="248" viewBox="0 0 405 248" fill="none" xmlns="http://www.w3.org/2000/svg">
<g clip-path="url(#clip0_6030_3804)">
<rect width="405" height="248" rx="15" fill="#F1F1F1"/>
<path d="M62.1665 219.088C61.7856 219.088 61.437 219.021 61.1206 218.886C60.8071 218.748 60.5581 218.543 60.3735 218.271C60.189 217.998 60.0967 217.661 60.0967 217.26V217.159H61.2744V217.26C61.2744 217.436 61.311 217.588 61.3843 217.717C61.4604 217.846 61.5659 217.944 61.7007 218.011C61.8354 218.079 61.9907 218.112 62.1665 218.112C62.3569 218.112 62.5181 218.073 62.6499 217.994C62.7847 217.915 62.8857 217.796 62.9531 217.638C63.0234 217.479 63.0586 217.286 63.0586 217.058V212.452H64.2319V217.058C64.2319 217.479 64.147 217.843 63.9771 218.147C63.8101 218.449 63.5713 218.682 63.2607 218.846C62.9531 219.007 62.5884 219.088 62.1665 219.088ZM66.0293 219H64.7593L67.0708 212.452H68.5298L70.8369 219H69.5713L67.8223 213.797H67.7695L66.0293 219ZM66.0732 216.434H69.5229V217.383H66.0732V216.434ZM76.752 212.452V219H75.6885L72.6079 214.54H72.5508V219H71.3643V212.452H72.4277L75.5083 216.913H75.5654V212.452H76.752Z" fill="#CECECE"/>
<path d="M88.4746 219V212.452H92.6758V213.445H89.6611V215.41H92.3813V216.39H89.6611V219H88.4746ZM93.4141 219V212.452H97.6768V213.445H94.6006V215.203H97.4482V216.183H94.6006V218.007H97.6943V219H93.4141ZM98.5469 219V212.452H101.061C101.532 212.452 101.925 212.527 102.238 212.676C102.552 212.823 102.786 213.025 102.941 213.283C103.097 213.538 103.174 213.826 103.174 214.148C103.174 214.415 103.123 214.644 103.021 214.834C102.921 215.021 102.785 215.174 102.612 215.291C102.439 215.408 102.246 215.493 102.032 215.546V215.612C102.266 215.621 102.489 215.691 102.7 215.823C102.914 215.952 103.088 216.133 103.223 216.368C103.36 216.602 103.429 216.885 103.429 217.216C103.429 217.556 103.347 217.86 103.183 218.13C103.022 218.396 102.776 218.609 102.445 218.767C102.117 218.922 101.702 219 101.201 219H98.5469ZM99.7334 218.011H101.008C101.438 218.011 101.749 217.928 101.939 217.761C102.133 217.594 102.229 217.381 102.229 217.124C102.229 216.927 102.181 216.751 102.084 216.596C101.988 216.441 101.85 216.318 101.671 216.227C101.496 216.136 101.288 216.091 101.047 216.091H99.7334V218.011ZM99.7334 215.238H100.911C101.113 215.238 101.296 215.2 101.46 215.124C101.625 215.048 101.753 214.941 101.847 214.803C101.944 214.663 101.992 214.497 101.992 214.307C101.992 214.055 101.903 213.847 101.724 213.683C101.545 213.516 101.283 213.432 100.938 213.432H99.7334V215.238Z" fill="#CECECE"/>
<path d="M114.475 212.452H115.929L117.872 217.194H117.946L119.893 212.452H121.365V219H120.201V214.5H120.148L118.329 218.978H117.476L115.679 214.491H115.617V219H114.475V212.452ZM123.158 219H121.888L124.2 212.452H125.659L127.966 219H126.7L124.951 213.797H124.898L123.158 219ZM123.202 216.434H126.652V217.383H123.202V216.434ZM128.493 219V212.452H130.95C131.454 212.452 131.875 212.54 132.215 212.716C132.558 212.892 132.817 213.138 132.993 213.454C133.169 213.768 133.257 214.132 133.257 214.548C133.257 214.967 133.167 215.331 132.989 215.638C132.813 215.946 132.552 216.183 132.207 216.35C131.861 216.517 131.436 216.601 130.932 216.601H129.188V215.621H130.77C131.065 215.621 131.307 215.58 131.495 215.498C131.685 215.416 131.824 215.295 131.912 215.137C132.003 214.976 132.048 214.78 132.048 214.548C132.048 214.317 132.003 214.119 131.912 213.955C131.821 213.788 131.682 213.662 131.495 213.577C131.307 213.489 131.064 213.445 130.765 213.445H129.68V219H128.493ZM132.171 219L130.585 216.029H131.877L133.499 219H132.171Z" fill="#CECECE"/>
<path d="M145.318 219H144.048L146.36 212.452H147.819L150.126 219H148.86L147.111 213.797H147.059L145.318 219ZM145.362 216.434H148.812V217.383H145.362V216.434ZM150.653 219V212.452H153.11C153.614 212.452 154.036 212.546 154.375 212.733C154.718 212.921 154.978 213.179 155.153 213.507C155.329 213.835 155.417 214.207 155.417 214.623C155.417 215.042 155.328 215.416 155.149 215.744C154.973 216.069 154.712 216.325 154.367 216.513C154.021 216.697 153.596 216.79 153.092 216.79H151.466V215.814H152.93C153.226 215.814 153.467 215.764 153.655 215.665C153.845 215.562 153.984 215.421 154.072 215.243C154.163 215.061 154.208 214.854 154.208 214.623C154.208 214.389 154.163 214.184 154.072 214.008C153.984 213.829 153.845 213.691 153.655 213.595C153.467 213.495 153.224 213.445 152.925 213.445H151.84V219H150.653ZM156.111 219V212.452H158.568C159.072 212.452 159.494 212.54 159.833 212.716C160.176 212.892 160.436 213.138 160.611 213.454C160.787 213.768 160.875 214.132 160.875 214.548C160.875 214.967 160.786 215.331 160.607 215.638C160.431 215.946 160.17 216.183 159.825 216.35C159.479 216.517 159.054 216.601 158.55 216.601H156.806V215.621H158.388C158.684 215.621 158.925 215.58 159.113 215.498C159.303 215.416 159.442 215.295 159.53 215.137C159.621 214.976 159.667 214.78 159.667 214.548C159.667 214.317 159.621 214.119 159.53 213.955C159.439 213.788 159.3 213.662 159.113 213.577C158.925 213.489 158.682 213.445 158.383 213.445H157.298V219H156.111ZM159.79 219L158.203 216.029H159.495L161.117 219H159.79Z" fill="#CECECE"/>
<path d="M172.475 212.452H173.929L175.872 217.194H175.946L177.893 212.452H179.365V219H178.201V214.5H178.148L176.329 218.978H175.476L173.679 214.491H173.617V219H172.475V212.452ZM181.158 219H179.888L182.2 212.452H183.659L185.966 219H184.7L182.951 213.797H182.898L181.158 219ZM181.202 216.434H184.652V217.383H181.202V216.434ZM185.377 212.452H186.717L188.317 215.353H188.387L189.987 212.452H191.327L188.941 216.557V219H187.759V216.557L185.377 212.452Z" fill="#CECECE"/>
<path d="M204.167 219.088C203.786 219.088 203.437 219.021 203.121 218.886C202.807 218.748 202.558 218.543 202.374 218.271C202.189 217.998 202.097 217.661 202.097 217.26V217.159H203.274V217.26C203.274 217.436 203.311 217.588 203.384 217.717C203.46 217.846 203.566 217.944 203.701 218.011C203.835 218.079 203.991 218.112 204.167 218.112C204.357 218.112 204.518 218.073 204.65 217.994C204.785 217.915 204.886 217.796 204.953 217.638C205.023 217.479 205.059 217.286 205.059 217.058V212.452H206.232V217.058C206.232 217.479 206.147 217.843 205.977 218.147C205.81 218.449 205.571 218.682 205.261 218.846C204.953 219.007 204.588 219.088 204.167 219.088ZM211.316 212.452H212.499V216.728C212.499 217.197 212.389 217.61 212.169 217.967C211.949 218.322 211.64 218.6 211.242 218.802C210.843 219.001 210.377 219.101 209.844 219.101C209.311 219.101 208.845 219.001 208.447 218.802C208.048 218.6 207.738 218.322 207.515 217.967C207.295 217.61 207.186 217.197 207.186 216.728V212.452H208.372V216.631C208.372 216.907 208.432 217.15 208.552 217.361C208.672 217.572 208.842 217.739 209.062 217.862C209.285 217.982 209.545 218.042 209.844 218.042C210.143 218.042 210.402 217.982 210.622 217.862C210.842 217.739 211.012 217.572 211.132 217.361C211.255 217.15 211.316 216.907 211.316 216.631V212.452ZM218.84 212.452V219H217.776L214.696 214.54H214.639V219H213.452V212.452H214.516L217.596 216.913H217.653V212.452H218.84Z" fill="#CECECE"/>
<path d="M232.167 219.088C231.786 219.088 231.437 219.021 231.121 218.886C230.807 218.748 230.558 218.543 230.374 218.271C230.189 217.998 230.097 217.661 230.097 217.26V217.159H231.274V217.26C231.274 217.436 231.311 217.588 231.384 217.717C231.46 217.846 231.566 217.944 231.701 218.011C231.835 218.079 231.991 218.112 232.167 218.112C232.357 218.112 232.518 218.073 232.65 217.994C232.785 217.915 232.886 217.796 232.953 217.638C233.023 217.479 233.059 217.286 233.059 217.058V212.452H234.232V217.058C234.232 217.479 234.147 217.843 233.977 218.147C233.81 218.449 233.571 218.682 233.261 218.846C232.953 219.007 232.588 219.088 232.167 219.088ZM239.316 212.452H240.499V216.728C240.499 217.197 240.389 217.61 240.169 217.967C239.949 218.322 239.64 218.6 239.242 218.802C238.843 219.001 238.377 219.101 237.844 219.101C237.311 219.101 236.845 219.001 236.447 218.802C236.048 218.6 235.738 218.322 235.515 217.967C235.295 217.61 235.186 217.197 235.186 216.728V212.452H236.372V216.631C236.372 216.907 236.432 217.15 236.552 217.361C236.672 217.572 236.842 217.739 237.062 217.862C237.285 217.982 237.545 218.042 237.844 218.042C238.143 218.042 238.402 217.982 238.622 217.862C238.842 217.739 239.012 217.572 239.132 217.361C239.255 217.15 239.316 216.907 239.316 216.631V212.452ZM241.452 219V212.452H242.639V218.007H245.526V219H241.452Z" fill="#CECECE"/>
<path d="M257.318 219H256.048L258.36 212.452H259.819L262.126 219H260.86L259.111 213.797H259.059L257.318 219ZM257.362 216.434H260.812V217.383H257.362V216.434ZM266.784 212.452H267.966V216.728C267.966 217.197 267.856 217.61 267.637 217.967C267.417 218.322 267.108 218.6 266.709 218.802C266.311 219.001 265.845 219.101 265.312 219.101C264.779 219.101 264.313 219.001 263.915 218.802C263.516 218.6 263.206 218.322 262.983 217.967C262.763 217.61 262.653 217.197 262.653 216.728V212.452H263.84V216.631C263.84 216.907 263.9 217.15 264.02 217.361C264.14 217.572 264.31 217.739 264.53 217.862C264.752 217.982 265.013 218.042 265.312 218.042C265.611 218.042 265.87 217.982 266.09 217.862C266.31 217.739 266.479 217.572 266.6 217.361C266.723 217.15 266.784 216.907 266.784 216.631V212.452ZM271.79 219.088C271.189 219.088 270.66 218.952 270.203 218.679C269.749 218.407 269.395 218.02 269.14 217.519C268.885 217.018 268.757 216.423 268.757 215.735C268.757 215.032 268.888 214.428 269.148 213.924C269.412 213.42 269.77 213.035 270.221 212.769C270.672 212.499 271.183 212.364 271.754 212.364C272.118 212.364 272.455 212.417 272.765 212.522C273.079 212.628 273.357 212.779 273.6 212.975C273.843 213.168 274.042 213.398 274.198 213.665C274.356 213.932 274.461 214.225 274.514 214.544H273.306C273.253 214.371 273.18 214.216 273.086 214.078C272.995 213.94 272.884 213.823 272.752 213.727C272.623 213.627 272.477 213.552 272.312 213.502C272.148 213.453 271.967 213.428 271.768 213.428C271.419 213.428 271.107 213.517 270.832 213.696C270.556 213.872 270.339 214.131 270.181 214.474C270.026 214.813 269.948 215.229 269.948 215.722C269.948 216.217 270.026 216.636 270.181 216.979C270.336 217.321 270.553 217.582 270.832 217.761C271.11 217.937 271.432 218.024 271.798 218.024C272.129 218.024 272.417 217.961 272.66 217.835C272.903 217.707 273.09 217.525 273.222 217.291C273.354 217.056 273.42 216.779 273.42 216.46L273.692 216.504H271.913V215.577H274.571V216.359C274.571 216.921 274.453 217.406 274.215 217.813C273.978 218.221 273.648 218.536 273.227 218.758C272.808 218.978 272.329 219.088 271.79 219.088Z" fill="#CECECE"/>
<path d="M287.786 219.101C287.276 219.101 286.834 219.022 286.459 218.864C286.084 218.706 285.791 218.476 285.58 218.174C285.369 217.869 285.255 217.5 285.237 217.066H286.406C286.424 217.295 286.494 217.485 286.617 217.638C286.74 217.787 286.901 217.9 287.101 217.976C287.303 218.052 287.527 218.09 287.773 218.09C288.031 218.09 288.258 218.051 288.454 217.972C288.65 217.893 288.804 217.783 288.916 217.642C289.027 217.501 289.083 217.337 289.083 217.15C289.083 216.98 289.033 216.841 288.933 216.732C288.833 216.621 288.696 216.527 288.52 216.451C288.344 216.375 288.138 216.308 287.9 216.249L287.158 216.056C286.619 215.918 286.194 215.708 285.883 215.427C285.573 215.143 285.417 214.765 285.417 214.293C285.417 213.907 285.521 213.57 285.729 213.283C285.938 212.993 286.222 212.767 286.582 212.606C286.945 212.445 287.355 212.364 287.812 212.364C288.278 212.364 288.687 212.445 289.039 212.606C289.39 212.767 289.666 212.99 289.865 213.274C290.064 213.558 290.168 213.885 290.177 214.254H289.03C289 213.973 288.876 213.756 288.656 213.604C288.439 213.448 288.154 213.371 287.799 213.371C287.553 213.371 287.341 213.407 287.162 213.48C286.986 213.554 286.852 213.655 286.758 213.784C286.664 213.913 286.617 214.059 286.617 214.223C286.617 214.405 286.671 214.554 286.78 214.671C286.891 214.786 287.032 214.878 287.202 214.948C287.375 215.019 287.55 215.077 287.729 215.124L288.34 215.278C288.586 215.336 288.823 215.416 289.052 215.515C289.28 215.612 289.485 215.735 289.667 215.884C289.852 216.031 289.997 216.209 290.102 216.42C290.21 216.631 290.265 216.879 290.265 217.163C290.265 217.544 290.167 217.881 289.97 218.174C289.774 218.464 289.491 218.691 289.122 218.855C288.753 219.019 288.308 219.101 287.786 219.101ZM290.977 219V212.452H295.239V213.445H292.163V215.203H295.011V216.183H292.163V218.007H295.257V219H290.977ZM296.109 219V212.452H298.566C299.07 212.452 299.492 212.546 299.832 212.733C300.174 212.921 300.434 213.179 300.609 213.507C300.785 213.835 300.873 214.207 300.873 214.623C300.873 215.042 300.784 215.416 300.605 215.744C300.429 216.069 300.168 216.325 299.823 216.513C299.477 216.697 299.052 216.79 298.548 216.79H296.922V215.814H298.386C298.682 215.814 298.923 215.764 299.111 215.665C299.301 215.562 299.44 215.421 299.528 215.243C299.619 215.061 299.665 214.854 299.665 214.623C299.665 214.389 299.619 214.184 299.528 214.008C299.44 213.829 299.301 213.691 299.111 213.595C298.923 213.495 298.68 213.445 298.381 213.445H297.296V219H296.109Z" fill="#CECECE"/>
<path d="M315.322 219.088C314.751 219.088 314.237 218.955 313.78 218.688C313.326 218.421 312.967 218.038 312.703 217.537C312.442 217.036 312.312 216.434 312.312 215.73C312.312 215.024 312.442 214.421 312.703 213.92C312.967 213.416 313.326 213.031 313.78 212.764C314.237 212.498 314.751 212.364 315.322 212.364C315.896 212.364 316.409 212.498 316.86 212.764C317.312 213.031 317.669 213.416 317.933 213.92C318.196 214.421 318.328 215.024 318.328 215.73C318.328 216.434 318.196 217.036 317.933 217.537C317.669 218.038 317.312 218.421 316.86 218.688C316.409 218.955 315.896 219.088 315.322 219.088ZM315.322 218.024C315.677 218.024 315.99 217.937 316.263 217.761C316.535 217.585 316.749 217.327 316.904 216.987C317.06 216.645 317.137 216.226 317.137 215.73C317.137 215.232 317.06 214.812 316.904 214.469C316.749 214.126 316.535 213.867 316.263 213.691C315.99 213.516 315.677 213.428 315.322 213.428C314.968 213.428 314.653 213.516 314.377 213.691C314.105 213.867 313.891 214.126 313.736 214.469C313.581 214.812 313.503 215.232 313.503 215.73C313.503 216.226 313.581 216.645 313.736 216.987C313.891 217.327 314.105 217.585 314.377 217.761C314.653 217.937 314.968 218.024 315.322 218.024ZM321.945 219.088C321.371 219.088 320.856 218.955 320.402 218.688C319.951 218.421 319.595 218.038 319.334 217.537C319.077 217.036 318.948 216.434 318.948 215.73C318.948 215.024 319.078 214.421 319.339 213.92C319.603 213.416 319.96 213.031 320.411 212.764C320.865 212.498 321.376 212.364 321.945 212.364C322.305 212.364 322.642 212.416 322.956 212.518C323.272 212.621 323.553 212.771 323.799 212.971C324.045 213.167 324.246 213.409 324.401 213.696C324.56 213.98 324.664 214.304 324.713 214.667H323.518C323.486 214.468 323.423 214.292 323.329 214.14C323.238 213.987 323.124 213.858 322.986 213.753C322.852 213.645 322.698 213.564 322.525 213.511C322.352 213.456 322.166 213.428 321.967 213.428C321.609 213.428 321.293 213.517 321.018 213.696C320.742 213.872 320.527 214.132 320.372 214.478C320.216 214.821 320.139 215.238 320.139 215.73C320.139 216.229 320.216 216.649 320.372 216.992C320.53 217.332 320.745 217.589 321.018 217.765C321.293 217.938 321.608 218.024 321.962 218.024C322.159 218.024 322.342 218 322.512 217.95C322.682 217.897 322.835 217.819 322.973 217.717C323.114 217.611 323.229 217.485 323.32 217.339C323.414 217.189 323.48 217.018 323.518 216.825H324.713C324.669 217.138 324.573 217.433 324.423 217.708C324.277 217.98 324.083 218.221 323.843 218.429C323.606 218.634 323.328 218.795 323.008 218.912C322.689 219.029 322.334 219.088 321.945 219.088ZM325.188 213.445V212.452H330.409V213.445H328.387V219H327.214V213.445H325.188Z" fill="#CECECE"/>
<path d="M346.862 212.452V219H345.799L342.718 214.54H342.661V219H341.475V212.452H342.538L345.619 216.913H345.676V212.452H346.862ZM350.659 219.088C350.088 219.088 349.574 218.955 349.117 218.688C348.663 218.421 348.304 218.038 348.04 217.537C347.779 217.036 347.649 216.434 347.649 215.73C347.649 215.024 347.779 214.421 348.04 213.92C348.304 213.416 348.663 213.031 349.117 212.764C349.574 212.498 350.088 212.364 350.659 212.364C351.233 212.364 351.746 212.498 352.197 212.764C352.648 213.031 353.006 213.416 353.27 213.92C353.533 214.421 353.665 215.024 353.665 215.73C353.665 216.434 353.533 217.036 353.27 217.537C353.006 218.038 352.648 218.421 352.197 218.688C351.746 218.955 351.233 219.088 350.659 219.088ZM350.659 218.024C351.014 218.024 351.327 217.937 351.6 217.761C351.872 217.585 352.086 217.327 352.241 216.987C352.396 216.645 352.474 216.226 352.474 215.73C352.474 215.232 352.396 214.812 352.241 214.469C352.086 214.126 351.872 213.867 351.6 213.691C351.327 213.516 351.014 213.428 350.659 213.428C350.305 213.428 349.99 213.516 349.714 213.691C349.442 213.867 349.228 214.126 349.073 214.469C348.917 214.812 348.84 215.232 348.84 215.73C348.84 216.226 348.917 216.645 349.073 216.987C349.228 217.327 349.442 217.585 349.714 217.761C349.99 217.937 350.305 218.024 350.659 218.024ZM354.975 212.452L356.675 217.603H356.746L358.446 212.452H359.747L357.44 219H355.981L353.669 212.452H354.975Z" fill="#CECECE"/>
<path d="M372.698 219H371.037V217.972H372.637C373.091 217.972 373.47 217.89 373.775 217.726C374.083 217.559 374.312 217.308 374.465 216.974C374.62 216.64 374.698 216.223 374.698 215.722C374.698 215.221 374.622 214.805 374.469 214.474C374.317 214.143 374.09 213.895 373.788 213.731C373.486 213.564 373.113 213.48 372.667 213.48H371.002V212.452H372.738C373.388 212.452 373.946 212.583 374.412 212.843C374.881 213.104 375.241 213.479 375.493 213.968C375.745 214.458 375.871 215.042 375.871 215.722C375.871 216.401 375.745 216.987 375.493 217.479C375.241 217.969 374.878 218.345 374.403 218.609C373.932 218.87 373.363 219 372.698 219ZM371.661 212.452V219H370.475V212.452H371.661ZM376.653 219V212.452H380.916V213.445H377.84V215.203H380.688V216.183H377.84V218.007H380.934V219H376.653ZM384.621 219.088C384.046 219.088 383.532 218.955 383.078 218.688C382.627 218.421 382.271 218.038 382.01 217.537C381.752 217.036 381.624 216.434 381.624 215.73C381.624 215.024 381.754 214.421 382.015 213.92C382.278 213.416 382.636 213.031 383.087 212.764C383.541 212.498 384.052 212.364 384.621 212.364C384.981 212.364 385.318 212.416 385.631 212.518C385.948 212.621 386.229 212.771 386.475 212.971C386.721 213.167 386.922 213.409 387.077 213.696C387.235 213.98 387.339 214.304 387.389 214.667H386.194C386.162 214.468 386.099 214.292 386.005 214.14C385.914 213.987 385.8 213.858 385.662 213.753C385.527 213.645 385.374 213.564 385.201 213.511C385.028 213.456 384.842 213.428 384.643 213.428C384.285 213.428 383.969 213.517 383.693 213.696C383.418 213.872 383.203 214.132 383.047 214.478C382.892 214.821 382.814 215.238 382.814 215.73C382.814 216.229 382.892 216.649 383.047 216.992C383.206 217.332 383.421 217.589 383.693 217.765C383.969 217.938 384.284 218.024 384.638 218.024C384.834 218.024 385.018 218 385.188 217.95C385.357 217.897 385.511 217.819 385.649 217.717C385.79 217.611 385.905 217.485 385.996 217.339C386.09 217.189 386.156 217.018 386.194 216.825H387.389C387.345 217.138 387.249 217.433 387.099 217.708C386.953 217.98 386.759 218.221 386.519 218.429C386.282 218.634 386.003 218.795 385.684 218.912C385.365 219.029 385.01 219.088 384.621 219.088Z" fill="#CECECE"/>
<path d="M31.9883 32.4521V39H30.8105V33.6079H30.771L29.2417 34.5879V33.498L30.8677 32.4521H31.9883ZM35.2974 39.0879C34.7671 39.0879 34.313 38.9561 33.9351 38.6924C33.5601 38.4258 33.2729 38.0435 33.0737 37.5454C32.8745 37.0444 32.7749 36.4395 32.7749 35.7305C32.7749 35.0215 32.8745 34.4165 33.0737 33.9155C33.2729 33.4116 33.5601 33.0278 33.9351 32.7642C34.313 32.4976 34.7671 32.3643 35.2974 32.3643C35.8247 32.3643 36.2773 32.4976 36.6553 32.7642C37.0332 33.0308 37.3218 33.4146 37.521 33.9155C37.7202 34.4165 37.8198 35.0215 37.8198 35.7305C37.8198 36.4395 37.7202 37.0444 37.521 37.5454C37.3218 38.0435 37.0347 38.4258 36.6597 38.6924C36.2847 38.9561 35.8306 39.0879 35.2974 39.0879ZM35.2974 38.0947C35.5815 38.0947 35.8218 38.0024 36.0181 37.8179C36.2173 37.6333 36.3682 37.3652 36.4707 37.0137C36.5762 36.6592 36.6289 36.2314 36.6289 35.7305C36.6289 35.2266 36.5762 34.7974 36.4707 34.4429C36.3682 34.0884 36.2173 33.8188 36.0181 33.6343C35.8218 33.4468 35.5815 33.353 35.2974 33.353C34.8696 33.353 34.54 33.561 34.3086 33.9771C34.0801 34.3901 33.9658 34.9746 33.9658 35.7305C33.9658 36.2314 34.0171 36.6592 34.1196 37.0137C34.2222 37.3652 34.373 37.6333 34.5723 37.8179C34.7715 38.0024 35.0132 38.0947 35.2974 38.0947ZM40.9663 39.0879C40.436 39.0879 39.9819 38.9561 39.604 38.6924C39.229 38.4258 38.9419 38.0435 38.7427 37.5454C38.5435 37.0444 38.4438 36.4395 38.4438 35.7305C38.4438 35.0215 38.5435 34.4165 38.7427 33.9155C38.9419 33.4116 39.229 33.0278 39.604 32.7642C39.9819 32.4976 40.436 32.3643 40.9663 32.3643C41.4937 32.3643 41.9463 32.4976 42.3242 32.7642C42.7021 33.0308 42.9907 33.4146 43.1899 33.9155C43.3892 34.4165 43.4888 35.0215 43.4888 35.7305C43.4888 36.4395 43.3892 37.0444 43.1899 37.5454C42.9907 38.0435 42.7036 38.4258 42.3286 38.6924C41.9536 38.9561 41.4995 39.0879 40.9663 39.0879ZM40.9663 38.0947C41.2505 38.0947 41.4907 38.0024 41.687 37.8179C41.8862 37.6333 42.0371 37.3652 42.1396 37.0137C42.2451 36.6592 42.2979 36.2314 42.2979 35.7305C42.2979 35.2266 42.2451 34.7974 42.1396 34.4429C42.0371 34.0884 41.8862 33.8188 41.687 33.6343C41.4907 33.4468 41.2505 33.353 40.9663 33.353C40.5386 33.353 40.209 33.561 39.9775 33.9771C39.749 34.3901 39.6348 34.9746 39.6348 35.7305C39.6348 36.2314 39.686 36.6592 39.7886 37.0137C39.8911 37.3652 40.042 37.6333 40.2412 37.8179C40.4404 38.0024 40.6821 38.0947 40.9663 38.0947ZM47.7163 37.7695V37.4268C47.7163 37.1719 47.769 36.9375 47.8745 36.7236C47.98 36.5098 48.1367 36.3384 48.3447 36.2095C48.5527 36.0806 48.8047 36.0161 49.1006 36.0161C49.4023 36.0161 49.6558 36.0806 49.8608 36.2095C50.0659 36.3384 50.2197 36.5098 50.3223 36.7236C50.4277 36.9346 50.4805 37.1689 50.4805 37.4268V37.7695C50.4805 38.0244 50.4277 38.2588 50.3223 38.4727C50.2168 38.6865 50.0615 38.8579 49.8564 38.9868C49.6514 39.1157 49.3994 39.1802 49.1006 39.1802C48.8018 39.1802 48.5483 39.1157 48.3403 38.9868C48.1323 38.8579 47.9756 38.6865 47.8701 38.4727C47.7676 38.2588 47.7163 38.0244 47.7163 37.7695ZM48.5469 37.4268V37.7695C48.5469 37.9395 48.5879 38.0947 48.6699 38.2354C48.752 38.376 48.8955 38.4463 49.1006 38.4463C49.3027 38.4463 49.4434 38.376 49.5225 38.2354C49.6016 38.0947 49.6411 37.9395 49.6411 37.7695V37.4268C49.6411 37.2568 49.603 37.1016 49.5269 36.9609C49.4536 36.8203 49.3115 36.75 49.1006 36.75C48.8984 36.75 48.7549 36.8203 48.6699 36.9609C48.5879 37.1016 48.5469 37.2568 48.5469 37.4268ZM44.3896 34.0254V33.6826C44.3896 33.4248 44.4438 33.1904 44.5522 32.9795C44.6606 32.7656 44.8174 32.5942 45.0225 32.4653C45.2275 32.3364 45.4766 32.272 45.7695 32.272C46.0742 32.272 46.3291 32.3364 46.5342 32.4653C46.7393 32.5942 46.8945 32.7656 47 32.9795C47.1055 33.1904 47.1567 33.4248 47.1538 33.6826V34.0254C47.1567 34.2803 47.104 34.5146 46.9956 34.7285C46.8872 34.9424 46.7305 35.1138 46.5254 35.2427C46.3203 35.3687 46.0684 35.4316 45.7695 35.4316C45.4707 35.4316 45.2188 35.3672 45.0137 35.2383C44.8086 35.1094 44.6533 34.938 44.5479 34.7241C44.4424 34.5103 44.3896 34.2773 44.3896 34.0254ZM45.229 33.6826V34.0254C45.229 34.1953 45.2686 34.3506 45.3477 34.4912C45.4268 34.6318 45.5674 34.7007 45.7695 34.6978C45.9775 34.7007 46.1196 34.6318 46.1958 34.4912C46.2749 34.3506 46.3145 34.1953 46.3145 34.0254V33.6826C46.3145 33.5127 46.2764 33.3574 46.2002 33.2168C46.127 33.0732 45.9834 33.0015 45.7695 33.0015C45.5703 33.0015 45.4297 33.0732 45.3477 33.2168C45.2686 33.3604 45.229 33.5156 45.229 33.6826ZM44.75 39L49.25 32.4521H50.0542L45.5542 39H44.75Z" fill="#CECECE"/>
<path d="M31.6719 50.3555C31.9883 50.3584 32.2944 50.4141 32.5903 50.5225C32.8892 50.6309 33.1572 50.8066 33.3945 51.0498C33.6318 51.293 33.8208 51.6182 33.9614 52.0254C34.1021 52.4326 34.1724 52.9365 34.1724 53.5371C34.1724 54.0967 34.1123 54.5977 33.9922 55.04C33.875 55.4795 33.7036 55.853 33.478 56.1606C33.2554 56.4653 32.9858 56.6982 32.6694 56.8594C32.353 57.0176 32 57.0967 31.6104 57.0967C31.1973 57.0967 30.8311 57.0146 30.5117 56.8506C30.1924 56.6865 29.9346 56.4639 29.7383 56.1826C29.542 55.9014 29.4204 55.582 29.3735 55.2246H30.5425C30.6011 55.4795 30.7227 55.6846 30.9072 55.8398C31.0947 55.9922 31.3291 56.0684 31.6104 56.0684C32.0615 56.0684 32.4087 55.8706 32.6519 55.4751C32.8979 55.0796 33.0225 54.5347 33.0254 53.8403H32.9771C32.8716 54.0278 32.7354 54.189 32.5684 54.3237C32.4043 54.4585 32.2183 54.5625 32.0103 54.6357C31.8022 54.709 31.5811 54.7456 31.3467 54.7456C30.9629 54.7456 30.6172 54.6548 30.3096 54.4731C30.002 54.2886 29.7588 54.0352 29.5801 53.7129C29.4014 53.3906 29.312 53.0244 29.312 52.6143C29.312 52.1836 29.4102 51.7983 29.6064 51.4585C29.8057 51.1157 30.0811 50.8462 30.4326 50.6499C30.7871 50.4507 31.2002 50.3525 31.6719 50.3555ZM31.6807 51.3223C31.4492 51.3223 31.2412 51.3794 31.0566 51.4937C30.8721 51.605 30.7271 51.7559 30.6216 51.9463C30.5161 52.1367 30.4634 52.3506 30.4634 52.5879C30.4634 52.8223 30.5146 53.0347 30.6172 53.2251C30.7197 53.4155 30.8618 53.5664 31.0435 53.6777C31.2251 53.7861 31.4316 53.8403 31.6631 53.8403C31.8945 53.8403 32.1025 53.7832 32.2871 53.6689C32.4746 53.5518 32.6226 53.3979 32.731 53.2075C32.8394 53.0142 32.8936 52.8047 32.8936 52.5791C32.8936 52.3535 32.8408 52.1455 32.7354 51.9551C32.6328 51.7646 32.4893 51.6123 32.3047 51.498C32.123 51.3809 31.915 51.3223 31.6807 51.3223ZM37.3188 57.0879C36.7886 57.0879 36.3345 56.9561 35.9565 56.6924C35.5815 56.4258 35.2944 56.0435 35.0952 55.5454C34.896 55.0444 34.7964 54.4395 34.7964 53.7305C34.7964 53.0215 34.896 52.4165 35.0952 51.9155C35.2944 51.4116 35.5815 51.0278 35.9565 50.7642C36.3345 50.4976 36.7886 50.3643 37.3188 50.3643C37.8462 50.3643 38.2988 50.4976 38.6768 50.7642C39.0547 51.0308 39.3433 51.4146 39.5425 51.9155C39.7417 52.4165 39.8413 53.0215 39.8413 53.7305C39.8413 54.4395 39.7417 55.0444 39.5425 55.5454C39.3433 56.0435 39.0562 56.4258 38.6812 56.6924C38.3062 56.9561 37.8521 57.0879 37.3188 57.0879ZM37.3188 56.0947C37.603 56.0947 37.8433 56.0024 38.0396 55.8179C38.2388 55.6333 38.3896 55.3652 38.4922 55.0137C38.5977 54.6592 38.6504 54.2314 38.6504 53.7305C38.6504 53.2266 38.5977 52.7974 38.4922 52.4429C38.3896 52.0884 38.2388 51.8188 38.0396 51.6343C37.8433 51.4468 37.603 51.353 37.3188 51.353C36.8911 51.353 36.5615 51.561 36.3301 51.9771C36.1016 52.3901 35.9873 52.9746 35.9873 53.7305C35.9873 54.2314 36.0386 54.6592 36.1411 55.0137C36.2437 55.3652 36.3945 55.6333 36.5938 55.8179C36.793 56.0024 37.0347 56.0947 37.3188 56.0947ZM44.0688 55.7695V55.4268C44.0688 55.1719 44.1216 54.9375 44.2271 54.7236C44.3325 54.5098 44.4893 54.3384 44.6973 54.2095C44.9053 54.0806 45.1572 54.0161 45.4531 54.0161C45.7549 54.0161 46.0083 54.0806 46.2134 54.2095C46.4185 54.3384 46.5723 54.5098 46.6748 54.7236C46.7803 54.9346 46.833 55.1689 46.833 55.4268V55.7695C46.833 56.0244 46.7803 56.2588 46.6748 56.4727C46.5693 56.6865 46.4141 56.8579 46.209 56.9868C46.0039 57.1157 45.752 57.1802 45.4531 57.1802C45.1543 57.1802 44.9009 57.1157 44.6929 56.9868C44.4849 56.8579 44.3281 56.6865 44.2227 56.4727C44.1201 56.2588 44.0688 56.0244 44.0688 55.7695ZM44.8994 55.4268V55.7695C44.8994 55.9395 44.9404 56.0947 45.0225 56.2354C45.1045 56.376 45.248 56.4463 45.4531 56.4463C45.6553 56.4463 45.7959 56.376 45.875 56.2354C45.9541 56.0947 45.9937 55.9395 45.9937 55.7695V55.4268C45.9937 55.2568 45.9556 55.1016 45.8794 54.9609C45.8062 54.8203 45.6641 54.75 45.4531 54.75C45.251 54.75 45.1074 54.8203 45.0225 54.9609C44.9404 55.1016 44.8994 55.2568 44.8994 55.4268ZM40.7422 52.0254V51.6826C40.7422 51.4248 40.7964 51.1904 40.9048 50.9795C41.0132 50.7656 41.1699 50.5942 41.375 50.4653C41.5801 50.3364 41.8291 50.272 42.1221 50.272C42.4268 50.272 42.6816 50.3364 42.8867 50.4653C43.0918 50.5942 43.2471 50.7656 43.3525 50.9795C43.458 51.1904 43.5093 51.4248 43.5063 51.6826V52.0254C43.5093 52.2803 43.4565 52.5146 43.3481 52.7285C43.2397 52.9424 43.083 53.1138 42.8779 53.2427C42.6729 53.3687 42.4209 53.4316 42.1221 53.4316C41.8232 53.4316 41.5713 53.3672 41.3662 53.2383C41.1611 53.1094 41.0059 52.938 40.9004 52.7241C40.7949 52.5103 40.7422 52.2773 40.7422 52.0254ZM41.5815 51.6826V52.0254C41.5815 52.1953 41.6211 52.3506 41.7002 52.4912C41.7793 52.6318 41.9199 52.7007 42.1221 52.6978C42.3301 52.7007 42.4722 52.6318 42.5483 52.4912C42.6274 52.3506 42.667 52.1953 42.667 52.0254V51.6826C42.667 51.5127 42.6289 51.3574 42.5527 51.2168C42.4795 51.0732 42.3359 51.0015 42.1221 51.0015C41.9229 51.0015 41.7822 51.0732 41.7002 51.2168C41.6211 51.3604 41.5815 51.5156 41.5815 51.6826ZM41.1025 57L45.6025 50.4521H46.4067L41.9067 57H41.1025Z" fill="#CECECE"/>
<path d="M31.7422 75.0879C31.2676 75.0879 30.8472 75.0088 30.481 74.8506C30.1147 74.6895 29.8276 74.4697 29.6196 74.1914C29.4146 73.9131 29.312 73.5981 29.312 73.2466C29.312 72.9741 29.3721 72.7222 29.4922 72.4907C29.6123 72.2593 29.7749 72.0659 29.98 71.9106C30.188 71.7554 30.4209 71.6558 30.6787 71.6118V71.5723C30.3418 71.4961 30.0693 71.3232 29.8613 71.0537C29.6533 70.7842 29.5493 70.4722 29.5493 70.1177C29.5493 69.7808 29.6431 69.4805 29.8306 69.2168C30.021 68.9531 30.2817 68.7451 30.6128 68.5928C30.9438 68.4404 31.3203 68.3643 31.7422 68.3643C32.1611 68.3643 32.5361 68.4404 32.8672 68.5928C33.1982 68.7451 33.459 68.9531 33.6494 69.2168C33.8398 69.4805 33.9351 69.7808 33.9351 70.1177C33.9351 70.4722 33.8296 70.7842 33.6187 71.0537C33.4077 71.3232 33.1382 71.4961 32.8101 71.5723V71.6118C33.062 71.6558 33.292 71.7554 33.5 71.9106C33.708 72.0659 33.8721 72.2593 33.9922 72.4907C34.1152 72.7222 34.1768 72.9741 34.1768 73.2466C34.1768 73.5981 34.0728 73.9131 33.8647 74.1914C33.6567 74.4697 33.3696 74.6895 33.0034 74.8506C32.6372 75.0088 32.2168 75.0879 31.7422 75.0879ZM31.7422 74.1782C31.9883 74.1782 32.2021 74.1357 32.3838 74.0508C32.5654 73.9658 32.7061 73.8472 32.8057 73.6948C32.9053 73.5396 32.9551 73.3623 32.9551 73.1631C32.9551 72.9551 32.9023 72.7705 32.7969 72.6094C32.6914 72.4482 32.5479 72.3223 32.3662 72.2314C32.1846 72.1377 31.9766 72.0908 31.7422 72.0908C31.5078 72.0908 31.2983 72.1377 31.1138 72.2314C30.9321 72.3223 30.7886 72.4482 30.6831 72.6094C30.5806 72.7676 30.5293 72.9521 30.5293 73.1631C30.5293 73.3623 30.5791 73.5396 30.6787 73.6948C30.7783 73.8472 30.9189 73.9658 31.1006 74.0508C31.2822 74.1357 31.4961 74.1782 31.7422 74.1782ZM31.7422 71.1943C31.9414 71.1943 32.1187 71.1548 32.2739 71.0757C32.4292 70.9937 32.5522 70.8809 32.6431 70.7373C32.7339 70.5908 32.7793 70.4238 32.7793 70.2363C32.7793 70.0459 32.7354 69.8804 32.6475 69.7397C32.5596 69.5991 32.438 69.4907 32.2827 69.4146C32.1274 69.3354 31.9473 69.2959 31.7422 69.2959C31.5371 69.2959 31.3555 69.3354 31.1973 69.4146C31.042 69.4907 30.9204 69.5991 30.8325 69.7397C30.7476 69.8804 30.7051 70.0459 30.7051 70.2363C30.7051 70.4238 30.749 70.5894 30.8369 70.7329C30.9248 70.8765 31.0464 70.9893 31.2017 71.0713C31.3599 71.1533 31.54 71.1943 31.7422 71.1943ZM37.3276 75.0879C36.7974 75.0879 36.3433 74.9561 35.9653 74.6924C35.5903 74.4258 35.3032 74.0435 35.104 73.5454C34.9048 73.0444 34.8052 72.4395 34.8052 71.7305C34.8052 71.0215 34.9048 70.4165 35.104 69.9155C35.3032 69.4116 35.5903 69.0278 35.9653 68.7642C36.3433 68.4976 36.7974 68.3643 37.3276 68.3643C37.855 68.3643 38.3076 68.4976 38.6855 68.7642C39.0635 69.0308 39.3521 69.4146 39.5513 69.9155C39.7505 70.4165 39.8501 71.0215 39.8501 71.7305C39.8501 72.4395 39.7505 73.0444 39.5513 73.5454C39.3521 74.0435 39.0649 74.4258 38.6899 74.6924C38.3149 74.9561 37.8608 75.0879 37.3276 75.0879ZM37.3276 74.0947C37.6118 74.0947 37.8521 74.0024 38.0483 73.8179C38.2476 73.6333 38.3984 73.3652 38.501 73.0137C38.6064 72.6592 38.6592 72.2314 38.6592 71.7305C38.6592 71.2266 38.6064 70.7974 38.501 70.4429C38.3984 70.0884 38.2476 69.8188 38.0483 69.6343C37.8521 69.4468 37.6118 69.353 37.3276 69.353C36.8999 69.353 36.5703 69.561 36.3389 69.9771C36.1104 70.3901 35.9961 70.9746 35.9961 71.7305C35.9961 72.2314 36.0474 72.6592 36.1499 73.0137C36.2524 73.3652 36.4033 73.6333 36.6025 73.8179C36.8018 74.0024 37.0435 74.0947 37.3276 74.0947ZM44.0776 73.7695V73.4268C44.0776 73.1719 44.1304 72.9375 44.2358 72.7236C44.3413 72.5098 44.498 72.3384 44.7061 72.2095C44.9141 72.0806 45.166 72.0161 45.4619 72.0161C45.7637 72.0161 46.0171 72.0806 46.2222 72.2095C46.4272 72.3384 46.5811 72.5098 46.6836 72.7236C46.7891 72.9346 46.8418 73.1689 46.8418 73.4268V73.7695C46.8418 74.0244 46.7891 74.2588 46.6836 74.4727C46.5781 74.6865 46.4229 74.8579 46.2178 74.9868C46.0127 75.1157 45.7607 75.1802 45.4619 75.1802C45.1631 75.1802 44.9097 75.1157 44.7017 74.9868C44.4937 74.8579 44.3369 74.6865 44.2314 74.4727C44.1289 74.2588 44.0776 74.0244 44.0776 73.7695ZM44.9082 73.4268V73.7695C44.9082 73.9395 44.9492 74.0947 45.0312 74.2354C45.1133 74.376 45.2568 74.4463 45.4619 74.4463C45.6641 74.4463 45.8047 74.376 45.8838 74.2354C45.9629 74.0947 46.0024 73.9395 46.0024 73.7695V73.4268C46.0024 73.2568 45.9644 73.1016 45.8882 72.9609C45.8149 72.8203 45.6729 72.75 45.4619 72.75C45.2598 72.75 45.1162 72.8203 45.0312 72.9609C44.9492 73.1016 44.9082 73.2568 44.9082 73.4268ZM40.751 70.0254V69.6826C40.751 69.4248 40.8052 69.1904 40.9136 68.9795C41.022 68.7656 41.1787 68.5942 41.3838 68.4653C41.5889 68.3364 41.8379 68.272 42.1309 68.272C42.4355 68.272 42.6904 68.3364 42.8955 68.4653C43.1006 68.5942 43.2559 68.7656 43.3613 68.9795C43.4668 69.1904 43.5181 69.4248 43.5151 69.6826V70.0254C43.5181 70.2803 43.4653 70.5146 43.3569 70.7285C43.2485 70.9424 43.0918 71.1138 42.8867 71.2427C42.6816 71.3687 42.4297 71.4316 42.1309 71.4316C41.832 71.4316 41.5801 71.3672 41.375 71.2383C41.1699 71.1094 41.0146 70.938 40.9092 70.7241C40.8037 70.5103 40.751 70.2773 40.751 70.0254ZM41.5903 69.6826V70.0254C41.5903 70.1953 41.6299 70.3506 41.709 70.4912C41.7881 70.6318 41.9287 70.7007 42.1309 70.6978C42.3389 70.7007 42.481 70.6318 42.5571 70.4912C42.6362 70.3506 42.6758 70.1953 42.6758 70.0254V69.6826C42.6758 69.5127 42.6377 69.3574 42.5615 69.2168C42.4883 69.0732 42.3447 69.0015 42.1309 69.0015C41.9316 69.0015 41.791 69.0732 41.709 69.2168C41.6299 69.3604 41.5903 69.5156 41.5903 69.6826ZM41.1113 75L45.6113 68.4521H46.4155L41.9155 75H41.1113Z" fill="#CECECE"/>
<path d="M29.6504 93L32.4321 87.4893V87.4453H29.2021V86.4521H33.667V87.4717L30.8809 93H29.6504ZM36.5542 93.0879C36.0239 93.0879 35.5698 92.9561 35.1919 92.6924C34.8169 92.4258 34.5298 92.0435 34.3306 91.5454C34.1313 91.0444 34.0317 90.4395 34.0317 89.7305C34.0317 89.0215 34.1313 88.4165 34.3306 87.9155C34.5298 87.4116 34.8169 87.0278 35.1919 86.7642C35.5698 86.4976 36.0239 86.3643 36.5542 86.3643C37.0815 86.3643 37.5342 86.4976 37.9121 86.7642C38.29 87.0308 38.5786 87.4146 38.7778 87.9155C38.9771 88.4165 39.0767 89.0215 39.0767 89.7305C39.0767 90.4395 38.9771 91.0444 38.7778 91.5454C38.5786 92.0435 38.2915 92.4258 37.9165 92.6924C37.5415 92.9561 37.0874 93.0879 36.5542 93.0879ZM36.5542 92.0947C36.8384 92.0947 37.0786 92.0024 37.2749 91.8179C37.4741 91.6333 37.625 91.3652 37.7275 91.0137C37.833 90.6592 37.8857 90.2314 37.8857 89.7305C37.8857 89.2266 37.833 88.7974 37.7275 88.4429C37.625 88.0884 37.4741 87.8188 37.2749 87.6343C37.0786 87.4468 36.8384 87.353 36.5542 87.353C36.1265 87.353 35.7969 87.561 35.5654 87.9771C35.3369 88.3901 35.2227 88.9746 35.2227 89.7305C35.2227 90.2314 35.2739 90.6592 35.3765 91.0137C35.479 91.3652 35.6299 91.6333 35.8291 91.8179C36.0283 92.0024 36.27 92.0947 36.5542 92.0947ZM43.3042 91.7695V91.4268C43.3042 91.1719 43.3569 90.9375 43.4624 90.7236C43.5679 90.5098 43.7246 90.3384 43.9326 90.2095C44.1406 90.0806 44.3926 90.0161 44.6885 90.0161C44.9902 90.0161 45.2437 90.0806 45.4487 90.2095C45.6538 90.3384 45.8076 90.5098 45.9102 90.7236C46.0156 90.9346 46.0684 91.1689 46.0684 91.4268V91.7695C46.0684 92.0244 46.0156 92.2588 45.9102 92.4727C45.8047 92.6865 45.6494 92.8579 45.4443 92.9868C45.2393 93.1157 44.9873 93.1802 44.6885 93.1802C44.3896 93.1802 44.1362 93.1157 43.9282 92.9868C43.7202 92.8579 43.5635 92.6865 43.458 92.4727C43.3555 92.2588 43.3042 92.0244 43.3042 91.7695ZM44.1348 91.4268V91.7695C44.1348 91.9395 44.1758 92.0947 44.2578 92.2354C44.3398 92.376 44.4834 92.4463 44.6885 92.4463C44.8906 92.4463 45.0312 92.376 45.1104 92.2354C45.1895 92.0947 45.229 91.9395 45.229 91.7695V91.4268C45.229 91.2568 45.1909 91.1016 45.1147 90.9609C45.0415 90.8203 44.8994 90.75 44.6885 90.75C44.4863 90.75 44.3428 90.8203 44.2578 90.9609C44.1758 91.1016 44.1348 91.2568 44.1348 91.4268ZM39.9775 88.0254V87.6826C39.9775 87.4248 40.0317 87.1904 40.1401 86.9795C40.2485 86.7656 40.4053 86.5942 40.6104 86.4653C40.8154 86.3364 41.0645 86.272 41.3574 86.272C41.6621 86.272 41.917 86.3364 42.1221 86.4653C42.3271 86.5942 42.4824 86.7656 42.5879 86.9795C42.6934 87.1904 42.7446 87.4248 42.7417 87.6826V88.0254C42.7446 88.2803 42.6919 88.5146 42.5835 88.7285C42.4751 88.9424 42.3184 89.1138 42.1133 89.2427C41.9082 89.3687 41.6562 89.4316 41.3574 89.4316C41.0586 89.4316 40.8066 89.3672 40.6016 89.2383C40.3965 89.1094 40.2412 88.938 40.1357 88.7241C40.0303 88.5103 39.9775 88.2773 39.9775 88.0254ZM40.8169 87.6826V88.0254C40.8169 88.1953 40.8564 88.3506 40.9355 88.4912C41.0146 88.6318 41.1553 88.7007 41.3574 88.6978C41.5654 88.7007 41.7075 88.6318 41.7837 88.4912C41.8628 88.3506 41.9023 88.1953 41.9023 88.0254V87.6826C41.9023 87.5127 41.8643 87.3574 41.7881 87.2168C41.7148 87.0732 41.5713 87.0015 41.3574 87.0015C41.1582 87.0015 41.0176 87.0732 40.9355 87.2168C40.8564 87.3604 40.8169 87.5156 40.8169 87.6826ZM40.3379 93L44.8379 86.4521H45.6421L41.1421 93H40.3379Z" fill="#CECECE"/>
<path d="M31.8125 111.088C31.499 111.088 31.1929 111.035 30.894 110.93C30.5952 110.821 30.3271 110.646 30.0898 110.402C29.8525 110.156 29.6636 109.83 29.5229 109.422C29.3823 109.015 29.312 108.511 29.312 107.911C29.312 107.351 29.3721 106.853 29.4922 106.417C29.6123 105.977 29.7837 105.605 30.0063 105.3C30.2319 104.996 30.5015 104.764 30.8149 104.606C31.1313 104.445 31.4858 104.364 31.8784 104.364C32.2915 104.364 32.6562 104.446 32.9727 104.61C33.292 104.771 33.5498 104.991 33.7461 105.27C33.9424 105.548 34.064 105.864 34.1108 106.219H32.9463C32.8877 105.967 32.7661 105.766 32.5815 105.617C32.397 105.467 32.1626 105.393 31.8784 105.393C31.4272 105.393 31.0786 105.589 30.8325 105.981C30.5894 106.374 30.4678 106.916 30.4678 107.607H30.5117C30.6172 107.42 30.752 107.259 30.916 107.124C31.083 106.986 31.2705 106.882 31.4785 106.812C31.6895 106.739 31.9121 106.702 32.1465 106.702C32.5303 106.702 32.8745 106.794 33.1792 106.979C33.4839 107.161 33.7256 107.413 33.9043 107.735C34.083 108.054 34.1724 108.42 34.1724 108.833C34.1724 109.264 34.0742 109.649 33.8779 109.989C33.6816 110.329 33.4062 110.597 33.0518 110.793C32.6973 110.99 32.2842 111.088 31.8125 111.088ZM31.8037 110.13C32.0381 110.13 32.2461 110.074 32.4277 109.963C32.6123 109.849 32.7573 109.696 32.8628 109.506C32.9712 109.312 33.0254 109.097 33.0254 108.86C33.0254 108.625 32.9727 108.415 32.8672 108.227C32.7646 108.037 32.6226 107.886 32.4409 107.774C32.2622 107.663 32.0557 107.607 31.8213 107.607C31.5928 107.607 31.3848 107.665 31.1973 107.779C31.0127 107.893 30.8662 108.045 30.7578 108.236C30.6494 108.426 30.5952 108.636 30.5952 108.864C30.5952 109.093 30.6479 109.304 30.7534 109.497C30.8589 109.688 31.0024 109.841 31.1841 109.958C31.3657 110.073 31.5723 110.13 31.8037 110.13ZM37.3188 111.088C36.7886 111.088 36.3345 110.956 35.9565 110.692C35.5815 110.426 35.2944 110.043 35.0952 109.545C34.896 109.044 34.7964 108.439 34.7964 107.73C34.7964 107.021 34.896 106.417 35.0952 105.916C35.2944 105.412 35.5815 105.028 35.9565 104.764C36.3345 104.498 36.7886 104.364 37.3188 104.364C37.8462 104.364 38.2988 104.498 38.6768 104.764C39.0547 105.031 39.3433 105.415 39.5425 105.916C39.7417 106.417 39.8413 107.021 39.8413 107.73C39.8413 108.439 39.7417 109.044 39.5425 109.545C39.3433 110.043 39.0562 110.426 38.6812 110.692C38.3062 110.956 37.8521 111.088 37.3188 111.088ZM37.3188 110.095C37.603 110.095 37.8433 110.002 38.0396 109.818C38.2388 109.633 38.3896 109.365 38.4922 109.014C38.5977 108.659 38.6504 108.231 38.6504 107.73C38.6504 107.227 38.5977 106.797 38.4922 106.443C38.3896 106.088 38.2388 105.819 38.0396 105.634C37.8433 105.447 37.603 105.353 37.3188 105.353C36.8911 105.353 36.5615 105.561 36.3301 105.977C36.1016 106.39 35.9873 106.975 35.9873 107.73C35.9873 108.231 36.0386 108.659 36.1411 109.014C36.2437 109.365 36.3945 109.633 36.5938 109.818C36.793 110.002 37.0347 110.095 37.3188 110.095ZM44.0688 109.77V109.427C44.0688 109.172 44.1216 108.938 44.2271 108.724C44.3325 108.51 44.4893 108.338 44.6973 108.209C44.9053 108.081 45.1572 108.016 45.4531 108.016C45.7549 108.016 46.0083 108.081 46.2134 108.209C46.4185 108.338 46.5723 108.51 46.6748 108.724C46.7803 108.935 46.833 109.169 46.833 109.427V109.77C46.833 110.024 46.7803 110.259 46.6748 110.473C46.5693 110.687 46.4141 110.858 46.209 110.987C46.0039 111.116 45.752 111.18 45.4531 111.18C45.1543 111.18 44.9009 111.116 44.6929 110.987C44.4849 110.858 44.3281 110.687 44.2227 110.473C44.1201 110.259 44.0688 110.024 44.0688 109.77ZM44.8994 109.427V109.77C44.8994 109.939 44.9404 110.095 45.0225 110.235C45.1045 110.376 45.248 110.446 45.4531 110.446C45.6553 110.446 45.7959 110.376 45.875 110.235C45.9541 110.095 45.9937 109.939 45.9937 109.77V109.427C45.9937 109.257 45.9556 109.102 45.8794 108.961C45.8062 108.82 45.6641 108.75 45.4531 108.75C45.251 108.75 45.1074 108.82 45.0225 108.961C44.9404 109.102 44.8994 109.257 44.8994 109.427ZM40.7422 106.025V105.683C40.7422 105.425 40.7964 105.19 40.9048 104.979C41.0132 104.766 41.1699 104.594 41.375 104.465C41.5801 104.336 41.8291 104.272 42.1221 104.272C42.4268 104.272 42.6816 104.336 42.8867 104.465C43.0918 104.594 43.2471 104.766 43.3525 104.979C43.458 105.19 43.5093 105.425 43.5063 105.683V106.025C43.5093 106.28 43.4565 106.515 43.3481 106.729C43.2397 106.942 43.083 107.114 42.8779 107.243C42.6729 107.369 42.4209 107.432 42.1221 107.432C41.8232 107.432 41.5713 107.367 41.3662 107.238C41.1611 107.109 41.0059 106.938 40.9004 106.724C40.7949 106.51 40.7422 106.277 40.7422 106.025ZM41.5815 105.683V106.025C41.5815 106.195 41.6211 106.351 41.7002 106.491C41.7793 106.632 41.9199 106.701 42.1221 106.698C42.3301 106.701 42.4722 106.632 42.5483 106.491C42.6274 106.351 42.667 106.195 42.667 106.025V105.683C42.667 105.513 42.6289 105.357 42.5527 105.217C42.4795 105.073 42.3359 105.001 42.1221 105.001C41.9229 105.001 41.7822 105.073 41.7002 105.217C41.6211 105.36 41.5815 105.516 41.5815 105.683ZM41.1025 111L45.6025 104.452H46.4067L41.9067 111H41.1025Z" fill="#CECECE"/>
<path d="M31.6895 129.088C31.2617 129.088 30.8794 129.009 30.5425 128.851C30.2085 128.689 29.9419 128.468 29.7427 128.187C29.5464 127.906 29.4424 127.583 29.4307 127.22H30.582C30.5996 127.487 30.7139 127.705 30.9248 127.875C31.1387 128.045 31.3936 128.13 31.6895 128.13C31.9238 128.13 32.1304 128.077 32.3091 127.972C32.4878 127.863 32.6284 127.715 32.731 127.528C32.8364 127.337 32.8892 127.121 32.8892 126.877C32.8892 126.628 32.8364 126.409 32.731 126.218C32.6255 126.025 32.4805 125.874 32.2959 125.766C32.1113 125.654 31.8989 125.599 31.6587 125.599C31.4595 125.599 31.2661 125.637 31.0786 125.713C30.8911 125.786 30.7417 125.883 30.6304 126.003L29.5537 125.827L29.8965 122.452H33.6978V123.445H30.8809L30.6919 125.181H30.7271C30.8501 125.035 31.0215 124.916 31.2412 124.825C31.4639 124.731 31.7085 124.685 31.9751 124.685C32.3735 124.685 32.7266 124.778 33.0342 124.966C33.3447 125.15 33.5894 125.405 33.7681 125.73C33.9468 126.056 34.0361 126.429 34.0361 126.851C34.0361 127.282 33.9365 127.667 33.7373 128.007C33.5381 128.344 33.2627 128.609 32.9111 128.802C32.5596 128.993 32.1523 129.088 31.6895 129.088ZM37.187 129.088C36.6567 129.088 36.2026 128.956 35.8247 128.692C35.4497 128.426 35.1626 128.043 34.9634 127.545C34.7642 127.044 34.6646 126.439 34.6646 125.73C34.6646 125.021 34.7642 124.417 34.9634 123.916C35.1626 123.412 35.4497 123.028 35.8247 122.764C36.2026 122.498 36.6567 122.364 37.187 122.364C37.7144 122.364 38.167 122.498 38.5449 122.764C38.9229 123.031 39.2114 123.415 39.4106 123.916C39.6099 124.417 39.7095 125.021 39.7095 125.73C39.7095 126.439 39.6099 127.044 39.4106 127.545C39.2114 128.043 38.9243 128.426 38.5493 128.692C38.1743 128.956 37.7202 129.088 37.187 129.088ZM37.187 128.095C37.4712 128.095 37.7114 128.002 37.9077 127.818C38.1069 127.633 38.2578 127.365 38.3604 127.014C38.4658 126.659 38.5186 126.231 38.5186 125.73C38.5186 125.227 38.4658 124.797 38.3604 124.443C38.2578 124.088 38.1069 123.819 37.9077 123.634C37.7114 123.447 37.4712 123.353 37.187 123.353C36.7593 123.353 36.4297 123.561 36.1982 123.977C35.9697 124.39 35.8555 124.975 35.8555 125.73C35.8555 126.231 35.9067 126.659 36.0093 127.014C36.1118 127.365 36.2627 127.633 36.4619 127.818C36.6611 128.002 36.9028 128.095 37.187 128.095ZM43.937 127.77V127.427C43.937 127.172 43.9897 126.938 44.0952 126.724C44.2007 126.51 44.3574 126.338 44.5654 126.209C44.7734 126.081 45.0254 126.016 45.3213 126.016C45.623 126.016 45.8765 126.081 46.0815 126.209C46.2866 126.338 46.4404 126.51 46.543 126.724C46.6484 126.935 46.7012 127.169 46.7012 127.427V127.77C46.7012 128.024 46.6484 128.259 46.543 128.473C46.4375 128.687 46.2822 128.858 46.0771 128.987C45.8721 129.116 45.6201 129.18 45.3213 129.18C45.0225 129.18 44.769 129.116 44.561 128.987C44.353 128.858 44.1963 128.687 44.0908 128.473C43.9883 128.259 43.937 128.024 43.937 127.77ZM44.7676 127.427V127.77C44.7676 127.939 44.8086 128.095 44.8906 128.235C44.9727 128.376 45.1162 128.446 45.3213 128.446C45.5234 128.446 45.6641 128.376 45.7432 128.235C45.8223 128.095 45.8618 127.939 45.8618 127.77V127.427C45.8618 127.257 45.8237 127.102 45.7476 126.961C45.6743 126.82 45.5322 126.75 45.3213 126.75C45.1191 126.75 44.9756 126.82 44.8906 126.961C44.8086 127.102 44.7676 127.257 44.7676 127.427ZM40.6104 124.025V123.683C40.6104 123.425 40.6646 123.19 40.7729 122.979C40.8813 122.766 41.0381 122.594 41.2432 122.465C41.4482 122.336 41.6973 122.272 41.9902 122.272C42.2949 122.272 42.5498 122.336 42.7549 122.465C42.96 122.594 43.1152 122.766 43.2207 122.979C43.3262 123.19 43.3774 123.425 43.3745 123.683V124.025C43.3774 124.28 43.3247 124.515 43.2163 124.729C43.1079 124.942 42.9512 125.114 42.7461 125.243C42.541 125.369 42.2891 125.432 41.9902 125.432C41.6914 125.432 41.4395 125.367 41.2344 125.238C41.0293 125.109 40.874 124.938 40.7686 124.724C40.6631 124.51 40.6104 124.277 40.6104 124.025ZM41.4497 123.683V124.025C41.4497 124.195 41.4893 124.351 41.5684 124.491C41.6475 124.632 41.7881 124.701 41.9902 124.698C42.1982 124.701 42.3403 124.632 42.4165 124.491C42.4956 124.351 42.5352 124.195 42.5352 124.025V123.683C42.5352 123.513 42.4971 123.357 42.4209 123.217C42.3477 123.073 42.2041 123.001 41.9902 123.001C41.791 123.001 41.6504 123.073 41.5684 123.217C41.4893 123.36 41.4497 123.516 41.4497 123.683ZM40.9707 129L45.4707 122.452H46.2749L41.7749 129H40.9707Z" fill="#CECECE"/>
<path d="M29.2944 145.787V144.842L32.0762 140.452H32.8584V141.797H32.3794L30.5073 144.759V144.812H34.3877V145.787H29.2944ZM32.4146 147V145.501L32.4321 145.075V140.452H33.5483V147H32.4146ZM37.4946 147.088C36.9644 147.088 36.5103 146.956 36.1323 146.692C35.7573 146.426 35.4702 146.043 35.271 145.545C35.0718 145.044 34.9722 144.439 34.9722 143.73C34.9722 143.021 35.0718 142.417 35.271 141.916C35.4702 141.412 35.7573 141.028 36.1323 140.764C36.5103 140.498 36.9644 140.364 37.4946 140.364C38.022 140.364 38.4746 140.498 38.8525 140.764C39.2305 141.031 39.519 141.415 39.7183 141.916C39.9175 142.417 40.0171 143.021 40.0171 143.73C40.0171 144.439 39.9175 145.044 39.7183 145.545C39.519 146.043 39.2319 146.426 38.8569 146.692C38.4819 146.956 38.0278 147.088 37.4946 147.088ZM37.4946 146.095C37.7788 146.095 38.019 146.002 38.2153 145.818C38.4146 145.633 38.5654 145.365 38.668 145.014C38.7734 144.659 38.8262 144.231 38.8262 143.73C38.8262 143.227 38.7734 142.797 38.668 142.443C38.5654 142.088 38.4146 141.819 38.2153 141.634C38.019 141.447 37.7788 141.353 37.4946 141.353C37.0669 141.353 36.7373 141.561 36.5059 141.977C36.2773 142.39 36.1631 142.975 36.1631 143.73C36.1631 144.231 36.2144 144.659 36.3169 145.014C36.4194 145.365 36.5703 145.633 36.7695 145.818C36.9688 146.002 37.2104 146.095 37.4946 146.095ZM44.2446 145.77V145.427C44.2446 145.172 44.2974 144.938 44.4028 144.724C44.5083 144.51 44.665 144.338 44.873 144.209C45.0811 144.081 45.333 144.016 45.6289 144.016C45.9307 144.016 46.1841 144.081 46.3892 144.209C46.5942 144.338 46.748 144.51 46.8506 144.724C46.9561 144.935 47.0088 145.169 47.0088 145.427V145.77C47.0088 146.024 46.9561 146.259 46.8506 146.473C46.7451 146.687 46.5898 146.858 46.3848 146.987C46.1797 147.116 45.9277 147.18 45.6289 147.18C45.3301 147.18 45.0767 147.116 44.8687 146.987C44.6606 146.858 44.5039 146.687 44.3984 146.473C44.2959 146.259 44.2446 146.024 44.2446 145.77ZM45.0752 145.427V145.77C45.0752 145.939 45.1162 146.095 45.1982 146.235C45.2803 146.376 45.4238 146.446 45.6289 146.446C45.8311 146.446 45.9717 146.376 46.0508 146.235C46.1299 146.095 46.1694 145.939 46.1694 145.77V145.427C46.1694 145.257 46.1313 145.102 46.0552 144.961C45.9819 144.82 45.8398 144.75 45.6289 144.75C45.4268 144.75 45.2832 144.82 45.1982 144.961C45.1162 145.102 45.0752 145.257 45.0752 145.427ZM40.918 142.025V141.683C40.918 141.425 40.9722 141.19 41.0806 140.979C41.189 140.766 41.3457 140.594 41.5508 140.465C41.7559 140.336 42.0049 140.272 42.2979 140.272C42.6025 140.272 42.8574 140.336 43.0625 140.465C43.2676 140.594 43.4229 140.766 43.5283 140.979C43.6338 141.19 43.6851 141.425 43.6821 141.683V142.025C43.6851 142.28 43.6323 142.515 43.5239 142.729C43.4155 142.942 43.2588 143.114 43.0537 143.243C42.8486 143.369 42.5967 143.432 42.2979 143.432C41.999 143.432 41.7471 143.367 41.542 143.238C41.3369 143.109 41.1816 142.938 41.0762 142.724C40.9707 142.51 40.918 142.277 40.918 142.025ZM41.7573 141.683V142.025C41.7573 142.195 41.7969 142.351 41.876 142.491C41.9551 142.632 42.0957 142.701 42.2979 142.698C42.5059 142.701 42.6479 142.632 42.7241 142.491C42.8032 142.351 42.8428 142.195 42.8428 142.025V141.683C42.8428 141.513 42.8047 141.357 42.7285 141.217C42.6553 141.073 42.5117 141.001 42.2979 141.001C42.0986 141.001 41.958 141.073 41.876 141.217C41.7969 141.36 41.7573 141.516 41.7573 141.683ZM41.2783 147L45.7783 140.452H46.5825L42.0825 147H41.2783Z" fill="#CECECE"/>
<path d="M31.7598 165.088C31.2998 165.088 30.8911 165.01 30.5337 164.855C30.1763 164.697 29.8936 164.477 29.6855 164.196C29.4805 163.915 29.3735 163.589 29.3647 163.22H30.5601C30.5688 163.399 30.626 163.554 30.7314 163.686C30.8398 163.815 30.9834 163.916 31.1621 163.989C31.3408 164.06 31.54 164.095 31.7598 164.095C31.9941 164.095 32.2007 164.054 32.3794 163.972C32.561 163.887 32.7031 163.772 32.8057 163.629C32.9082 163.482 32.9595 163.314 32.9595 163.124C32.9595 162.924 32.9067 162.749 32.8013 162.596C32.6987 162.444 32.5493 162.325 32.353 162.24C32.1567 162.155 31.9209 162.113 31.6455 162.113H31.061V161.199H31.6455C31.8682 161.199 32.0659 161.159 32.2388 161.08C32.4116 161.001 32.5464 160.891 32.6431 160.75C32.7397 160.607 32.7881 160.44 32.7881 160.25C32.7881 160.065 32.7456 159.904 32.6606 159.766C32.5786 159.628 32.4614 159.521 32.3091 159.445C32.1567 159.369 31.978 159.331 31.7729 159.331C31.5737 159.331 31.3877 159.368 31.2148 159.441C31.0449 159.511 30.9072 159.612 30.8018 159.744C30.6992 159.876 30.645 160.034 30.6392 160.219H29.501C29.5068 159.853 29.6108 159.53 29.813 159.252C30.0181 158.974 30.292 158.757 30.6348 158.602C30.9775 158.443 31.3613 158.364 31.7861 158.364C32.2197 158.364 32.5977 158.446 32.9199 158.61C33.2451 158.771 33.4956 158.99 33.6714 159.265C33.8501 159.541 33.9395 159.844 33.9395 160.175C33.9395 160.544 33.8311 160.853 33.6143 161.102C33.3975 161.351 33.1118 161.515 32.7573 161.594V161.643C33.2144 161.707 33.5645 161.877 33.8076 162.152C34.0537 162.428 34.1768 162.771 34.1768 163.181C34.1768 163.547 34.0728 163.875 33.8647 164.165C33.6567 164.452 33.3711 164.678 33.0078 164.842C32.6445 165.006 32.2285 165.088 31.7598 165.088ZM37.3628 165.088C36.8325 165.088 36.3784 164.956 36.0005 164.692C35.6255 164.426 35.3384 164.043 35.1392 163.545C34.9399 163.044 34.8403 162.439 34.8403 161.73C34.8403 161.021 34.9399 160.417 35.1392 159.916C35.3384 159.412 35.6255 159.028 36.0005 158.764C36.3784 158.498 36.8325 158.364 37.3628 158.364C37.8901 158.364 38.3428 158.498 38.7207 158.764C39.0986 159.031 39.3872 159.415 39.5864 159.916C39.7856 160.417 39.8853 161.021 39.8853 161.73C39.8853 162.439 39.7856 163.044 39.5864 163.545C39.3872 164.043 39.1001 164.426 38.7251 164.692C38.3501 164.956 37.896 165.088 37.3628 165.088ZM37.3628 164.095C37.647 164.095 37.8872 164.002 38.0835 163.818C38.2827 163.633 38.4336 163.365 38.5361 163.014C38.6416 162.659 38.6943 162.231 38.6943 161.73C38.6943 161.227 38.6416 160.797 38.5361 160.443C38.4336 160.088 38.2827 159.819 38.0835 159.634C37.8872 159.447 37.647 159.353 37.3628 159.353C36.9351 159.353 36.6055 159.561 36.374 159.977C36.1455 160.39 36.0312 160.975 36.0312 161.73C36.0312 162.231 36.0825 162.659 36.1851 163.014C36.2876 163.365 36.4385 163.633 36.6377 163.818C36.8369 164.002 37.0786 164.095 37.3628 164.095ZM44.1128 163.77V163.427C44.1128 163.172 44.1655 162.938 44.271 162.724C44.3765 162.51 44.5332 162.338 44.7412 162.209C44.9492 162.081 45.2012 162.016 45.4971 162.016C45.7988 162.016 46.0522 162.081 46.2573 162.209C46.4624 162.338 46.6162 162.51 46.7188 162.724C46.8242 162.935 46.877 163.169 46.877 163.427V163.77C46.877 164.024 46.8242 164.259 46.7188 164.473C46.6133 164.687 46.458 164.858 46.2529 164.987C46.0479 165.116 45.7959 165.18 45.4971 165.18C45.1982 165.18 44.9448 165.116 44.7368 164.987C44.5288 164.858 44.3721 164.687 44.2666 164.473C44.1641 164.259 44.1128 164.024 44.1128 163.77ZM44.9434 163.427V163.77C44.9434 163.939 44.9844 164.095 45.0664 164.235C45.1484 164.376 45.292 164.446 45.4971 164.446C45.6992 164.446 45.8398 164.376 45.9189 164.235C45.998 164.095 46.0376 163.939 46.0376 163.77V163.427C46.0376 163.257 45.9995 163.102 45.9233 162.961C45.8501 162.82 45.708 162.75 45.4971 162.75C45.2949 162.75 45.1514 162.82 45.0664 162.961C44.9844 163.102 44.9434 163.257 44.9434 163.427ZM40.7861 160.025V159.683C40.7861 159.425 40.8403 159.19 40.9487 158.979C41.0571 158.766 41.2139 158.594 41.4189 158.465C41.624 158.336 41.873 158.272 42.166 158.272C42.4707 158.272 42.7256 158.336 42.9307 158.465C43.1357 158.594 43.291 158.766 43.3965 158.979C43.502 159.19 43.5532 159.425 43.5503 159.683V160.025C43.5532 160.28 43.5005 160.515 43.3921 160.729C43.2837 160.942 43.127 161.114 42.9219 161.243C42.7168 161.369 42.4648 161.432 42.166 161.432C41.8672 161.432 41.6152 161.367 41.4102 161.238C41.2051 161.109 41.0498 160.938 40.9443 160.724C40.8389 160.51 40.7861 160.277 40.7861 160.025ZM41.6255 159.683V160.025C41.6255 160.195 41.665 160.351 41.7441 160.491C41.8232 160.632 41.9639 160.701 42.166 160.698C42.374 160.701 42.5161 160.632 42.5923 160.491C42.6714 160.351 42.7109 160.195 42.7109 160.025V159.683C42.7109 159.513 42.6729 159.357 42.5967 159.217C42.5234 159.073 42.3799 159.001 42.166 159.001C41.9668 159.001 41.8262 159.073 41.7441 159.217C41.665 159.36 41.6255 159.516 41.6255 159.683ZM41.1465 165L45.6465 158.452H46.4507L41.9507 165H41.1465Z" fill="#CECECE"/>
<path d="M29.4087 183V182.147L31.6851 179.915C31.8989 179.695 32.0776 179.5 32.2212 179.331C32.3677 179.161 32.4775 178.997 32.5508 178.838C32.624 178.677 32.6606 178.506 32.6606 178.324C32.6606 178.119 32.6138 177.942 32.52 177.792C32.4263 177.643 32.2974 177.529 32.1333 177.45C31.9722 177.371 31.7876 177.331 31.5796 177.331C31.3628 177.331 31.1738 177.375 31.0127 177.463C30.8516 177.551 30.7256 177.675 30.6348 177.836C30.5469 177.998 30.5029 178.189 30.5029 178.412H29.3779C29.3779 177.999 29.4717 177.64 29.6592 177.335C29.8496 177.028 30.1118 176.789 30.4458 176.619C30.7798 176.449 31.1621 176.364 31.5928 176.364C32.0352 176.364 32.4219 176.446 32.7529 176.61C33.084 176.774 33.3418 177 33.5264 177.287C33.7109 177.571 33.8032 177.896 33.8032 178.263C33.8032 178.509 33.7563 178.75 33.6626 178.988C33.5688 179.222 33.4033 179.484 33.166 179.774C32.9316 180.062 32.6021 180.409 32.1772 180.816L31.0522 181.963V182.011H33.8999V183H29.4087ZM37.0991 183.088C36.5688 183.088 36.1147 182.956 35.7368 182.692C35.3618 182.426 35.0747 182.043 34.8755 181.545C34.6763 181.044 34.5767 180.439 34.5767 179.73C34.5767 179.021 34.6763 178.417 34.8755 177.916C35.0747 177.412 35.3618 177.028 35.7368 176.764C36.1147 176.498 36.5688 176.364 37.0991 176.364C37.6265 176.364 38.0791 176.498 38.457 176.764C38.835 177.031 39.1235 177.415 39.3228 177.916C39.522 178.417 39.6216 179.021 39.6216 179.73C39.6216 180.439 39.522 181.044 39.3228 181.545C39.1235 182.043 38.8364 182.426 38.4614 182.692C38.0864 182.956 37.6323 183.088 37.0991 183.088ZM37.0991 182.095C37.3833 182.095 37.6235 182.002 37.8198 181.818C38.019 181.633 38.1699 181.365 38.2725 181.014C38.3779 180.659 38.4307 180.231 38.4307 179.73C38.4307 179.227 38.3779 178.797 38.2725 178.443C38.1699 178.088 38.019 177.819 37.8198 177.634C37.6235 177.447 37.3833 177.353 37.0991 177.353C36.6714 177.353 36.3418 177.561 36.1104 177.977C35.8818 178.39 35.7676 178.975 35.7676 179.73C35.7676 180.231 35.8188 180.659 35.9214 181.014C36.0239 181.365 36.1748 181.633 36.374 181.818C36.5732 182.002 36.8149 182.095 37.0991 182.095ZM43.8491 181.77V181.427C43.8491 181.172 43.9019 180.938 44.0073 180.724C44.1128 180.51 44.2695 180.338 44.4775 180.209C44.6855 180.081 44.9375 180.016 45.2334 180.016C45.5352 180.016 45.7886 180.081 45.9937 180.209C46.1987 180.338 46.3525 180.51 46.4551 180.724C46.5605 180.935 46.6133 181.169 46.6133 181.427V181.77C46.6133 182.024 46.5605 182.259 46.4551 182.473C46.3496 182.687 46.1943 182.858 45.9893 182.987C45.7842 183.116 45.5322 183.18 45.2334 183.18C44.9346 183.18 44.6812 183.116 44.4731 182.987C44.2651 182.858 44.1084 182.687 44.0029 182.473C43.9004 182.259 43.8491 182.024 43.8491 181.77ZM44.6797 181.427V181.77C44.6797 181.939 44.7207 182.095 44.8027 182.235C44.8848 182.376 45.0283 182.446 45.2334 182.446C45.4355 182.446 45.5762 182.376 45.6553 182.235C45.7344 182.095 45.7739 181.939 45.7739 181.77V181.427C45.7739 181.257 45.7358 181.102 45.6597 180.961C45.5864 180.82 45.4443 180.75 45.2334 180.75C45.0312 180.75 44.8877 180.82 44.8027 180.961C44.7207 181.102 44.6797 181.257 44.6797 181.427ZM40.5225 178.025V177.683C40.5225 177.425 40.5767 177.19 40.6851 176.979C40.7935 176.766 40.9502 176.594 41.1553 176.465C41.3604 176.336 41.6094 176.272 41.9023 176.272C42.207 176.272 42.4619 176.336 42.667 176.465C42.8721 176.594 43.0273 176.766 43.1328 176.979C43.2383 177.19 43.2896 177.425 43.2866 177.683V178.025C43.2896 178.28 43.2368 178.515 43.1284 178.729C43.02 178.942 42.8633 179.114 42.6582 179.243C42.4531 179.369 42.2012 179.432 41.9023 179.432C41.6035 179.432 41.3516 179.367 41.1465 179.238C40.9414 179.109 40.7861 178.938 40.6807 178.724C40.5752 178.51 40.5225 178.277 40.5225 178.025ZM41.3618 177.683V178.025C41.3618 178.195 41.4014 178.351 41.4805 178.491C41.5596 178.632 41.7002 178.701 41.9023 178.698C42.1104 178.701 42.2524 178.632 42.3286 178.491C42.4077 178.351 42.4473 178.195 42.4473 178.025V177.683C42.4473 177.513 42.4092 177.357 42.333 177.217C42.2598 177.073 42.1162 177.001 41.9023 177.001C41.7031 177.001 41.5625 177.073 41.4805 177.217C41.4014 177.36 41.3618 177.516 41.3618 177.683ZM40.8828 183L45.3828 176.452H46.187L41.687 183H40.8828Z" fill="#CECECE"/>
<path d="M31.9883 194.452V201H30.8105V195.608H30.771L29.2417 196.588V195.498L30.8677 194.452H31.9883ZM35.2974 201.088C34.7671 201.088 34.313 200.956 33.9351 200.692C33.5601 200.426 33.2729 200.043 33.0737 199.545C32.8745 199.044 32.7749 198.439 32.7749 197.73C32.7749 197.021 32.8745 196.417 33.0737 195.916C33.2729 195.412 33.5601 195.028 33.9351 194.764C34.313 194.498 34.7671 194.364 35.2974 194.364C35.8247 194.364 36.2773 194.498 36.6553 194.764C37.0332 195.031 37.3218 195.415 37.521 195.916C37.7202 196.417 37.8198 197.021 37.8198 197.73C37.8198 198.439 37.7202 199.044 37.521 199.545C37.3218 200.043 37.0347 200.426 36.6597 200.692C36.2847 200.956 35.8306 201.088 35.2974 201.088ZM35.2974 200.095C35.5815 200.095 35.8218 200.002 36.0181 199.818C36.2173 199.633 36.3682 199.365 36.4707 199.014C36.5762 198.659 36.6289 198.231 36.6289 197.73C36.6289 197.227 36.5762 196.797 36.4707 196.443C36.3682 196.088 36.2173 195.819 36.0181 195.634C35.8218 195.447 35.5815 195.353 35.2974 195.353C34.8696 195.353 34.54 195.561 34.3086 195.977C34.0801 196.39 33.9658 196.975 33.9658 197.73C33.9658 198.231 34.0171 198.659 34.1196 199.014C34.2222 199.365 34.373 199.633 34.5723 199.818C34.7715 200.002 35.0132 200.095 35.2974 200.095ZM42.0474 199.77V199.427C42.0474 199.172 42.1001 198.938 42.2056 198.724C42.311 198.51 42.4678 198.338 42.6758 198.209C42.8838 198.081 43.1357 198.016 43.4316 198.016C43.7334 198.016 43.9868 198.081 44.1919 198.209C44.397 198.338 44.5508 198.51 44.6533 198.724C44.7588 198.935 44.8115 199.169 44.8115 199.427V199.77C44.8115 200.024 44.7588 200.259 44.6533 200.473C44.5479 200.687 44.3926 200.858 44.1875 200.987C43.9824 201.116 43.7305 201.18 43.4316 201.18C43.1328 201.18 42.8794 201.116 42.6714 200.987C42.4634 200.858 42.3066 200.687 42.2012 200.473C42.0986 200.259 42.0474 200.024 42.0474 199.77ZM42.8779 199.427V199.77C42.8779 199.939 42.9189 200.095 43.001 200.235C43.083 200.376 43.2266 200.446 43.4316 200.446C43.6338 200.446 43.7744 200.376 43.8535 200.235C43.9326 200.095 43.9722 199.939 43.9722 199.77V199.427C43.9722 199.257 43.9341 199.102 43.8579 198.961C43.7847 198.82 43.6426 198.75 43.4316 198.75C43.2295 198.75 43.0859 198.82 43.001 198.961C42.9189 199.102 42.8779 199.257 42.8779 199.427ZM38.7207 196.025V195.683C38.7207 195.425 38.7749 195.19 38.8833 194.979C38.9917 194.766 39.1484 194.594 39.3535 194.465C39.5586 194.336 39.8076 194.272 40.1006 194.272C40.4053 194.272 40.6602 194.336 40.8652 194.465C41.0703 194.594 41.2256 194.766 41.3311 194.979C41.4365 195.19 41.4878 195.425 41.4849 195.683V196.025C41.4878 196.28 41.4351 196.515 41.3267 196.729C41.2183 196.942 41.0615 197.114 40.8564 197.243C40.6514 197.369 40.3994 197.432 40.1006 197.432C39.8018 197.432 39.5498 197.367 39.3447 197.238C39.1396 197.109 38.9844 196.938 38.8789 196.724C38.7734 196.51 38.7207 196.277 38.7207 196.025ZM39.5601 195.683V196.025C39.5601 196.195 39.5996 196.351 39.6787 196.491C39.7578 196.632 39.8984 196.701 40.1006 196.698C40.3086 196.701 40.4507 196.632 40.5269 196.491C40.606 196.351 40.6455 196.195 40.6455 196.025V195.683C40.6455 195.513 40.6074 195.357 40.5312 195.217C40.458 195.073 40.3145 195.001 40.1006 195.001C39.9014 195.001 39.7607 195.073 39.6787 195.217C39.5996 195.36 39.5601 195.516 39.5601 195.683ZM39.0811 201L43.5811 194.452H44.3853L39.8853 201H39.0811Z" fill="#CECECE"/>
<path d="M383.333 33C383.333 30.0545 380.946 27.6667 378 27.6667C375.054 27.6667 372.667 30.0545 372.667 33C372.667 35.9455 375.054 38.3333 378 38.3333C380.946 38.3333 383.333 35.9455 383.333 33ZM65.3333 198C65.3333 195.054 62.9455 192.667 60 192.667C57.0545 192.667 54.6667 195.054 54.6667 198C54.6667 200.946 57.0545 203.333 60 203.333C62.9455 203.333 65.3333 200.946 65.3333 198ZM378 33C377.168 32.4456 377.168 32.4458 377.167 32.4467C377.166 32.4477 377.165 32.4491 377.164 32.4513C377.161 32.4556 377.157 32.4622 377.151 32.4712C377.139 32.4892 377.12 32.5167 377.095 32.5534C377.045 32.6269 376.97 32.7375 376.869 32.8841C376.668 33.1773 376.364 33.6144 375.958 34.1861C375.146 35.3295 373.925 37.0111 372.293 39.1564C369.031 43.447 364.127 49.5917 357.575 56.9934C344.471 71.7975 324.776 91.6258 298.425 111.705C245.726 151.86 166.42 193.01 59.9626 197.001L60 198L60.0375 198.999C166.998 194.99 246.691 153.64 299.638 113.295C326.11 93.1242 345.899 73.2025 359.073 58.3191C365.661 50.877 370.595 44.6936 373.885 40.367C375.53 38.2037 376.765 36.5045 377.589 35.3442C378.001 34.764 378.31 34.3186 378.518 34.0172C378.621 33.8664 378.699 33.7518 378.752 33.6742C378.778 33.6355 378.798 33.606 378.811 33.586C378.818 33.576 378.823 33.5683 378.826 33.563C378.828 33.5604 378.83 33.5583 378.831 33.5569C378.832 33.5554 378.832 33.5544 378 33Z" fill="#404040"/>
<path d="M383.333 198C383.333 200.946 380.946 203.333 378 203.333C375.054 203.333 372.667 200.946 372.667 198C372.667 195.054 375.054 192.667 378 192.667C380.946 192.667 383.333 195.054 383.333 198ZM65.3333 33C65.3333 35.9455 62.9455 38.3333 60 38.3333C57.0545 38.3333 54.6667 35.9455 54.6667 33C54.6667 30.0545 57.0545 27.6667 60 27.6667C62.9455 27.6667 65.3333 30.0545 65.3333 33ZM378 198C377.168 198.554 377.168 198.554 377.167 198.553C377.166 198.552 377.165 198.551 377.164 198.549C377.161 198.544 377.157 198.538 377.151 198.529C377.139 198.511 377.12 198.483 377.095 198.447C377.045 198.373 376.97 198.262 376.869 198.116C376.668 197.823 376.364 197.386 375.958 196.814C375.146 195.671 373.925 193.989 372.293 191.844C369.031 187.553 364.127 181.408 357.575 174.007C344.471 159.202 324.776 139.374 298.425 119.295C245.726 79.1396 166.42 37.9899 59.9626 33.9993L60 33L60.0375 32.0007C166.998 36.0101 246.691 77.3604 299.638 117.705C326.11 137.876 345.899 157.798 359.073 172.681C365.661 180.123 370.595 186.306 373.885 190.633C375.53 192.796 376.765 194.495 377.589 195.656C378.001 196.236 378.31 196.681 378.518 196.983C378.621 197.134 378.699 197.248 378.752 197.326C378.778 197.365 378.798 197.394 378.811 197.414C378.818 197.424 378.823 197.432 378.826 197.437C378.828 197.44 378.83 197.442 378.831 197.443C378.832 197.445 378.832 197.446 378 198Z" fill="#FB5D21"/>
<path d="M61.8281 51.2695V60H60.7734V51.2695H61.8281ZM64.6022 56.0625V60H63.6061V53.4492H64.567V54.4805H64.6608C64.8131 54.1445 65.0455 53.875 65.358 53.6719C65.6705 53.4688 66.0748 53.3672 66.5709 53.3672C67.0123 53.3672 67.3991 53.457 67.7311 53.6367C68.0631 53.8164 68.3209 54.0898 68.5045 54.457C68.692 54.8203 68.7858 55.2812 68.7858 55.8398V60H67.7897V55.9102C67.7897 55.3984 67.6549 54.998 67.3854 54.709C67.1159 54.416 66.7487 54.2695 66.2838 54.2695C65.9635 54.2695 65.6764 54.3398 65.4225 54.4805C65.1686 54.6211 64.9674 54.8242 64.819 55.0898C64.6745 55.3555 64.6022 55.6797 64.6022 56.0625ZM75.5442 53.4492L73.1302 60H72.0989L69.6848 53.4492H70.7747L72.5794 58.6758H72.6497L74.4544 53.4492H75.5442ZM79.1855 60.1406C78.5566 60.1406 78.0116 60 77.5507 59.7188C77.0937 59.4375 76.7421 59.0449 76.496 58.541C76.2499 58.0332 76.1269 57.4453 76.1269 56.7773C76.1269 56.1055 76.248 55.5137 76.4902 55.002C76.7323 54.4902 77.0722 54.0898 77.5097 53.8008C77.9511 53.5117 78.4667 53.3672 79.0566 53.3672C79.3964 53.3672 79.7343 53.4238 80.0702 53.5371C80.4062 53.6504 80.7109 53.834 80.9843 54.0879C81.2616 54.3418 81.4823 54.6777 81.6464 55.0957C81.8105 55.5137 81.8925 56.0273 81.8925 56.6367V57.0703H76.8417V56.2031H81.3476L80.8847 56.5312C80.8847 56.0938 80.8163 55.7051 80.6796 55.3652C80.5429 55.0254 80.3378 54.7578 80.0644 54.5625C79.7948 54.3672 79.4589 54.2695 79.0566 54.2695C78.6542 54.2695 78.3085 54.3691 78.0195 54.5684C77.7343 54.7637 77.5155 55.0195 77.3632 55.3359C77.2109 55.6523 77.1347 55.9922 77.1347 56.3555V56.9297C77.1347 57.4258 77.2206 57.8457 77.3925 58.1895C77.5644 58.5332 77.8046 58.7949 78.1132 58.9746C78.4218 59.1504 78.7792 59.2383 79.1855 59.2383C79.4472 59.2383 79.6855 59.2012 79.9003 59.127C80.1152 59.0488 80.3007 58.9336 80.457 58.7812C80.6132 58.625 80.7323 58.4336 80.8144 58.207L81.787 58.4883C81.6855 58.8164 81.5136 59.1055 81.2714 59.3555C81.0331 59.6016 80.7362 59.7949 80.3808 59.9355C80.0253 60.0723 79.6269 60.1406 79.1855 60.1406ZM87.8306 54.9258L86.9283 55.1719C86.8423 54.9492 86.6939 54.7383 86.483 54.5391C86.2759 54.3359 85.9517 54.2344 85.5103 54.2344C85.1119 54.2344 84.7798 54.3281 84.5142 54.5156C84.2486 54.6992 84.1158 54.9297 84.1158 55.207C84.1158 55.457 84.2056 55.6562 84.3853 55.8047C84.5689 55.9531 84.8541 56.0742 85.2408 56.168L86.2134 56.4023C86.7955 56.543 87.2291 56.7598 87.5142 57.0527C87.8033 57.3457 87.9478 57.7188 87.9478 58.1719C87.9478 58.5469 87.8404 58.8828 87.6255 59.1797C87.4107 59.4766 87.1119 59.7109 86.7291 59.8828C86.3463 60.0547 85.9009 60.1406 85.3931 60.1406C84.7252 60.1406 84.1724 59.9941 83.7349 59.7012C83.3013 59.4082 83.0259 58.9844 82.9088 58.4297L83.858 58.1953C83.9478 58.5469 84.1197 58.8105 84.3736 58.9863C84.6314 59.1621 84.9673 59.25 85.3814 59.25C85.8463 59.25 86.2173 59.1504 86.4947 58.9512C86.7759 58.748 86.9166 58.5078 86.9166 58.2305C86.9166 57.7695 86.5923 57.4609 85.9439 57.3047L84.8541 57.0469C84.2525 56.9023 83.8111 56.6816 83.5298 56.3848C83.2486 56.0879 83.108 55.7148 83.108 55.2656C83.108 54.8945 83.2115 54.5664 83.4185 54.2812C83.6295 53.9961 83.9166 53.7734 84.2798 53.6133C84.6431 53.4492 85.0533 53.3672 85.5103 53.3672C86.1627 53.3672 86.6724 53.5117 87.0396 53.8008C87.4107 54.0859 87.6744 54.4609 87.8306 54.9258ZM92.1047 53.4492V54.3047H88.718V53.4492H92.1047ZM89.7023 51.8906H90.6984V58.125C90.6984 58.4648 90.7687 58.7148 90.9094 58.875C91.05 59.0312 91.2727 59.1094 91.5773 59.1094C91.6437 59.1094 91.7121 59.1055 91.7824 59.0977C91.8566 59.0898 91.9367 59.0781 92.0227 59.0625L92.2336 59.9648C92.1398 60 92.0246 60.0273 91.8879 60.0469C91.7551 60.0703 91.6203 60.082 91.4836 60.082C90.9562 60.082 90.5266 59.9258 90.1945 59.6133C89.8664 59.3008 89.7023 58.8945 89.7023 58.3945V51.8906ZM93.4256 60V53.4492H94.3866V54.4805H94.4803C94.617 54.1289 94.8377 53.8555 95.1424 53.6602C95.4471 53.4648 95.8123 53.3672 96.2381 53.3672C96.6678 53.3672 97.0252 53.4648 97.3104 53.6602C97.5995 53.8555 97.8241 54.1289 97.9842 54.4805H98.0545C98.2264 54.1406 98.4784 53.8711 98.8104 53.6719C99.1463 53.4688 99.5467 53.3672 100.012 53.3672C100.597 53.3672 101.078 53.5508 101.453 53.918C101.828 54.2812 102.015 54.8477 102.015 55.6172V60H101.008V55.6172C101.008 55.1328 100.875 54.7871 100.609 54.5801C100.344 54.373 100.031 54.2695 99.6717 54.2695C99.2147 54.2695 98.8592 54.4102 98.6053 54.6914C98.3553 54.9688 98.2303 55.3164 98.2303 55.7344V60H97.1991V55.5117C97.1991 55.1406 97.0799 54.8418 96.8416 54.6152C96.6034 54.3848 96.2928 54.2695 95.91 54.2695C95.6483 54.2695 95.4041 54.3398 95.1776 54.4805C94.951 54.6211 94.7674 54.8145 94.6268 55.0605C94.4901 55.3066 94.4217 55.5898 94.4217 55.9102V60H93.4256ZM106.407 60.1406C105.778 60.1406 105.233 60 104.772 59.7188C104.315 59.4375 103.963 59.0449 103.717 58.541C103.471 58.0332 103.348 57.4453 103.348 56.7773C103.348 56.1055 103.469 55.5137 103.711 55.002C103.954 54.4902 104.293 54.0898 104.731 53.8008C105.172 53.5117 105.688 53.3672 106.278 53.3672C106.618 53.3672 106.956 53.4238 107.291 53.5371C107.627 53.6504 107.932 53.834 108.206 54.0879C108.483 54.3418 108.704 54.6777 108.868 55.0957C109.032 55.5137 109.114 56.0273 109.114 56.6367V57.0703H104.063V56.2031H108.569L108.106 56.5312C108.106 56.0938 108.038 55.7051 107.901 55.3652C107.764 55.0254 107.559 54.7578 107.286 54.5625C107.016 54.3672 106.68 54.2695 106.278 54.2695C105.875 54.2695 105.53 54.3691 105.241 54.5684C104.956 54.7637 104.737 55.0195 104.584 55.3359C104.432 55.6523 104.356 55.9922 104.356 56.3555V56.9297C104.356 57.4258 104.442 57.8457 104.614 58.1895C104.786 58.5332 105.026 58.7949 105.334 58.9746C105.643 59.1504 106 59.2383 106.407 59.2383C106.668 59.2383 106.907 59.2012 107.122 59.127C107.336 59.0488 107.522 58.9336 107.678 58.7812C107.834 58.625 107.954 58.4336 108.036 58.207L109.008 58.4883C108.907 58.8164 108.735 59.1055 108.493 59.3555C108.254 59.6016 107.958 59.7949 107.602 59.9355C107.247 60.0723 106.848 60.1406 106.407 60.1406ZM111.419 56.0625V60H110.423V53.4492H111.384V54.4805H111.478C111.63 54.1445 111.862 53.875 112.175 53.6719C112.487 53.4688 112.892 53.3672 113.388 53.3672C113.829 53.3672 114.216 53.457 114.548 53.6367C114.88 53.8164 115.138 54.0898 115.321 54.457C115.509 54.8203 115.603 55.2812 115.603 55.8398V60H114.607V55.9102C114.607 55.3984 114.472 54.998 114.202 54.709C113.933 54.416 113.566 54.2695 113.101 54.2695C112.78 54.2695 112.493 54.3398 112.239 54.4805C111.985 54.6211 111.784 54.8242 111.636 55.0898C111.491 55.3555 111.419 55.6797 111.419 56.0625ZM120.088 53.4492V54.3047H116.701V53.4492H120.088ZM117.685 51.8906H118.681V58.125C118.681 58.4648 118.752 58.7148 118.892 58.875C119.033 59.0312 119.256 59.1094 119.56 59.1094C119.627 59.1094 119.695 59.1055 119.765 59.0977C119.84 59.0898 119.92 59.0781 120.006 59.0625L120.217 59.9648C120.123 60 120.008 60.0273 119.871 60.0469C119.738 60.0703 119.603 60.082 119.467 60.082C118.939 60.082 118.51 59.9258 118.178 59.6133C117.849 59.3008 117.685 58.8945 117.685 58.3945V51.8906ZM125.92 54.9258L125.018 55.1719C124.932 54.9492 124.784 54.7383 124.573 54.5391C124.366 54.3359 124.041 54.2344 123.6 54.2344C123.202 54.2344 122.87 54.3281 122.604 54.5156C122.338 54.6992 122.205 54.9297 122.205 55.207C122.205 55.457 122.295 55.6562 122.475 55.8047C122.659 55.9531 122.944 56.0742 123.33 56.168L124.303 56.4023C124.885 56.543 125.319 56.7598 125.604 57.0527C125.893 57.3457 126.037 57.7188 126.037 58.1719C126.037 58.5469 125.93 58.8828 125.715 59.1797C125.5 59.4766 125.202 59.7109 124.819 59.8828C124.436 60.0547 123.991 60.1406 123.483 60.1406C122.815 60.1406 122.262 59.9941 121.825 59.7012C121.391 59.4082 121.116 58.9844 120.998 58.4297L121.948 58.1953C122.037 58.5469 122.209 58.8105 122.463 58.9863C122.721 59.1621 123.057 59.25 123.471 59.25C123.936 59.25 124.307 59.1504 124.584 58.9512C124.866 58.748 125.006 58.5078 125.006 58.2305C125.006 57.7695 124.682 57.4609 124.034 57.3047L122.944 57.0469C122.342 56.9023 121.901 56.6816 121.62 56.3848C121.338 56.0879 121.198 55.7148 121.198 55.2656C121.198 54.8945 121.301 54.5664 121.508 54.2812C121.719 53.9961 122.006 53.7734 122.37 53.6133C122.733 53.4492 123.143 53.3672 123.6 53.3672C124.252 53.3672 124.762 53.5117 125.129 53.8008C125.5 54.0859 125.764 54.4609 125.92 54.9258Z" fill="#FB5D21"/>
<path d="M249.773 45V36.2695H252.832C253.438 36.2695 253.938 36.375 254.332 36.5859C254.727 36.793 255.02 37.0723 255.211 37.4238C255.406 37.7754 255.504 38.1641 255.504 38.5898C255.504 38.9648 255.438 39.2754 255.305 39.5215C255.172 39.7637 254.998 39.957 254.783 40.1016C254.568 40.2422 254.336 40.3477 254.086 40.418V40.5C254.355 40.5156 254.625 40.6094 254.895 40.7812C255.164 40.9531 255.389 41.1973 255.568 41.5137C255.752 41.8301 255.844 42.2188 255.844 42.6797C255.844 43.1172 255.744 43.5117 255.545 43.8633C255.346 44.2109 255.031 44.4883 254.602 44.6953C254.176 44.8984 253.617 45 252.926 45H249.773ZM250.828 44.0625H252.926C253.617 44.0625 254.107 43.9277 254.396 43.6582C254.689 43.3887 254.836 43.0625 254.836 42.6797C254.836 42.3828 254.76 42.1094 254.607 41.8594C254.459 41.6094 254.246 41.4082 253.969 41.2559C253.691 41.1035 253.363 41.0273 252.984 41.0273H250.828V44.0625ZM250.828 40.1133H252.797C253.113 40.1133 253.4 40.0508 253.658 39.9258C253.916 39.7969 254.119 39.6191 254.268 39.3926C254.42 39.1621 254.496 38.8945 254.496 38.5898C254.496 38.207 254.363 37.8809 254.098 37.6113C253.832 37.3418 253.41 37.207 252.832 37.207H250.828V40.1133ZM257.247 45V38.4492H258.208V39.4453H258.278C258.399 39.1211 258.616 38.8594 258.928 38.6602C259.245 38.457 259.598 38.3555 259.989 38.3555C260.063 38.3555 260.155 38.3574 260.264 38.3613C260.374 38.3613 260.458 38.3633 260.516 38.3672V39.3867C260.481 39.3789 260.403 39.3672 260.282 39.3516C260.161 39.3359 260.032 39.3281 259.895 39.3281C259.579 39.3281 259.296 39.3945 259.046 39.5273C258.796 39.6602 258.598 39.8418 258.454 40.0723C258.313 40.3027 258.243 40.5664 258.243 40.8633V45H257.247ZM264.052 45.1406C263.423 45.1406 262.878 45 262.417 44.7188C261.96 44.4375 261.609 44.0449 261.363 43.541C261.116 43.0332 260.993 42.4453 260.993 41.7773C260.993 41.1055 261.115 40.5137 261.357 40.002C261.599 39.4902 261.939 39.0898 262.376 38.8008C262.818 38.5117 263.333 38.3672 263.923 38.3672C264.263 38.3672 264.601 38.4238 264.937 38.5371C265.273 38.6504 265.577 38.834 265.851 39.0879C266.128 39.3418 266.349 39.6777 266.513 40.0957C266.677 40.5137 266.759 41.0273 266.759 41.6367V42.0703H261.708V41.2031H266.214L265.751 41.5312C265.751 41.0938 265.683 40.7051 265.546 40.3652C265.409 40.0254 265.204 39.7578 264.931 39.5625C264.661 39.3672 264.325 39.2695 263.923 39.2695C263.521 39.2695 263.175 39.3691 262.886 39.5684C262.601 39.7637 262.382 40.0195 262.23 40.3359C262.077 40.6523 262.001 40.9922 262.001 41.3555V41.9297C262.001 42.4258 262.087 42.8457 262.259 43.1895C262.431 43.5332 262.671 43.7949 262.98 43.9746C263.288 44.1504 263.646 44.2383 264.052 44.2383C264.314 44.2383 264.552 44.2012 264.767 44.127C264.982 44.0488 265.167 43.9336 265.324 43.7812C265.48 43.625 265.599 43.4336 265.681 43.207L266.654 43.4883C266.552 43.8164 266.38 44.1055 266.138 44.3555C265.9 44.6016 265.603 44.7949 265.247 44.9355C264.892 45.0723 264.493 45.1406 264.052 45.1406ZM269.99 45.1523C269.576 45.1523 269.199 45.0742 268.859 44.918C268.519 44.7578 268.25 44.5273 268.051 44.2266C267.851 43.9258 267.752 43.5625 267.752 43.1367C267.752 42.7617 267.826 42.459 267.975 42.2285C268.123 41.9941 268.32 41.8105 268.566 41.6777C268.816 41.541 269.09 41.4395 269.387 41.373C269.687 41.3066 269.99 41.2539 270.295 41.2148C270.693 41.1641 271.016 41.125 271.262 41.0977C271.512 41.0703 271.693 41.0234 271.807 40.957C271.924 40.8906 271.982 40.7773 271.982 40.6172V40.582C271.982 40.1641 271.867 39.8398 271.637 39.6094C271.41 39.375 271.064 39.2578 270.6 39.2578C270.123 39.2578 269.748 39.3633 269.475 39.5742C269.201 39.7812 269.01 40.0039 268.9 40.2422L267.939 39.9023C268.111 39.5039 268.34 39.1934 268.625 38.9707C268.914 38.748 269.226 38.5918 269.562 38.502C269.902 38.4121 270.236 38.3672 270.564 38.3672C270.775 38.3672 271.017 38.3926 271.291 38.4434C271.564 38.4902 271.83 38.5918 272.088 38.748C272.35 38.9004 272.564 39.1328 272.732 39.4453C272.904 39.7539 272.99 40.168 272.99 40.6875V45H271.982V44.1094H271.935C271.869 44.25 271.756 44.4023 271.596 44.5664C271.435 44.7266 271.223 44.8652 270.957 44.9824C270.695 45.0957 270.373 45.1523 269.99 45.1523ZM270.142 44.25C270.541 44.25 270.877 44.1719 271.15 44.0156C271.424 43.8594 271.631 43.6582 271.771 43.4121C271.912 43.1621 271.982 42.9023 271.982 42.6328V41.707C271.939 41.7578 271.846 41.8047 271.701 41.8477C271.56 41.8867 271.396 41.9219 271.209 41.9531C271.025 41.9844 270.846 42.0117 270.67 42.0352C270.494 42.0547 270.353 42.0703 270.248 42.082C269.986 42.1172 269.742 42.1738 269.516 42.252C269.289 42.3262 269.105 42.4375 268.965 42.5859C268.828 42.7344 268.76 42.9375 268.76 43.1953C268.76 43.543 268.889 43.8066 269.146 43.9863C269.408 44.1621 269.74 44.25 270.142 44.25ZM275.577 42.6094L275.553 41.3672H275.764L278.624 38.4492H279.866L276.819 41.543H276.725L275.577 42.6094ZM274.639 45V36.2695H275.635V45H274.639ZM278.788 45L276.233 41.7656L276.948 41.0625L280.077 45H278.788ZM284.152 40.793V41.7305H280.331V40.793H284.152ZM288.461 45.1406C287.832 45.1406 287.287 45 286.826 44.7188C286.369 44.4375 286.017 44.0449 285.771 43.541C285.525 43.0332 285.402 42.4453 285.402 41.7773C285.402 41.1055 285.523 40.5137 285.765 40.002C286.008 39.4902 286.347 39.0898 286.785 38.8008C287.226 38.5117 287.742 38.3672 288.332 38.3672C288.672 38.3672 289.01 38.4238 289.346 38.5371C289.681 38.6504 289.986 38.834 290.26 39.0879C290.537 39.3418 290.758 39.6777 290.922 40.0957C291.086 40.5137 291.168 41.0273 291.168 41.6367V42.0703H286.117V41.2031H290.623L290.16 41.5312C290.16 41.0938 290.092 40.7051 289.955 40.3652C289.818 40.0254 289.613 39.7578 289.34 39.5625C289.07 39.3672 288.734 39.2695 288.332 39.2695C287.93 39.2695 287.584 39.3691 287.295 39.5684C287.01 39.7637 286.791 40.0195 286.639 40.3359C286.486 40.6523 286.41 40.9922 286.41 41.3555V41.9297C286.41 42.4258 286.496 42.8457 286.668 43.1895C286.84 43.5332 287.08 43.7949 287.389 43.9746C287.697 44.1504 288.055 44.2383 288.461 44.2383C288.722 44.2383 288.961 44.2012 289.176 44.127C289.39 44.0488 289.576 43.9336 289.732 43.7812C289.889 43.625 290.008 43.4336 290.09 43.207L291.062 43.4883C290.961 43.8164 290.789 44.1055 290.547 44.3555C290.308 44.6016 290.012 44.7949 289.656 44.9355C289.301 45.0723 288.902 45.1406 288.461 45.1406ZM297.586 38.4492L295.172 45H294.141L291.727 38.4492H292.817L294.622 43.6758H294.692L296.497 38.4492H297.586ZM301.228 45.1406C300.599 45.1406 300.054 45 299.593 44.7188C299.136 44.4375 298.784 44.0449 298.538 43.541C298.292 43.0332 298.169 42.4453 298.169 41.7773C298.169 41.1055 298.29 40.5137 298.532 40.002C298.775 39.4902 299.114 39.0898 299.552 38.8008C299.993 38.5117 300.509 38.3672 301.099 38.3672C301.439 38.3672 301.776 38.4238 302.112 38.5371C302.448 38.6504 302.753 38.834 303.026 39.0879C303.304 39.3418 303.525 39.6777 303.689 40.0957C303.853 40.5137 303.935 41.0273 303.935 41.6367V42.0703H298.884V41.2031H303.39L302.927 41.5312C302.927 41.0938 302.859 40.7051 302.722 40.3652C302.585 40.0254 302.38 39.7578 302.107 39.5625C301.837 39.3672 301.501 39.2695 301.099 39.2695C300.696 39.2695 300.351 39.3691 300.062 39.5684C299.776 39.7637 299.558 40.0195 299.405 40.3359C299.253 40.6523 299.177 40.9922 299.177 41.3555V41.9297C299.177 42.4258 299.263 42.8457 299.435 43.1895C299.607 43.5332 299.847 43.7949 300.155 43.9746C300.464 44.1504 300.821 44.2383 301.228 44.2383C301.489 44.2383 301.728 44.2012 301.943 44.127C302.157 44.0488 302.343 43.9336 302.499 43.7812C302.655 43.625 302.775 43.4336 302.857 43.207L303.829 43.4883C303.728 43.8164 303.556 44.1055 303.314 44.3555C303.075 44.6016 302.778 44.7949 302.423 44.9355C302.068 45.0723 301.669 45.1406 301.228 45.1406ZM306.24 41.0625V45H305.244V38.4492H306.205V39.4805H306.299C306.451 39.1445 306.683 38.875 306.996 38.6719C307.308 38.4688 307.713 38.3672 308.209 38.3672C308.65 38.3672 309.037 38.457 309.369 38.6367C309.701 38.8164 309.959 39.0898 310.142 39.457C310.33 39.8203 310.424 40.2812 310.424 40.8398V45H309.428V40.9102C309.428 40.3984 309.293 39.998 309.023 39.709C308.754 39.416 308.386 39.2695 307.922 39.2695C307.601 39.2695 307.314 39.3398 307.06 39.4805C306.806 39.6211 306.605 39.8242 306.457 40.0898C306.312 40.3555 306.24 40.6797 306.24 41.0625ZM315.245 47.4492V38.4492H316.206V39.4922H316.323C316.397 39.3789 316.501 39.2344 316.634 39.0586C316.767 38.8789 316.958 38.7188 317.208 38.5781C317.458 38.4375 317.796 38.3672 318.222 38.3672C318.772 38.3672 319.257 38.5059 319.675 38.7832C320.093 39.0566 320.419 39.4473 320.653 39.9551C320.892 40.459 321.011 41.0547 321.011 41.7422C321.011 42.4336 320.894 43.0352 320.659 43.5469C320.425 44.0547 320.099 44.4473 319.681 44.7246C319.263 45.002 318.78 45.1406 318.233 45.1406C317.815 45.1406 317.48 45.0703 317.226 44.9297C316.972 44.7852 316.776 44.623 316.64 44.4434C316.503 44.2598 316.397 44.1094 316.323 43.9922H316.241V47.4492H315.245ZM318.105 44.2383C318.522 44.2383 318.872 44.127 319.153 43.9043C319.435 43.6777 319.646 43.375 319.786 42.9961C319.931 42.6172 320.003 42.1953 320.003 41.7305C320.003 41.2695 319.933 40.8535 319.792 40.4824C319.651 40.1113 319.44 39.8164 319.159 39.5977C318.882 39.3789 318.53 39.2695 318.105 39.2695C317.694 39.2695 317.351 39.373 317.073 39.5801C316.796 39.7832 316.585 40.0703 316.44 40.4414C316.3 40.8086 316.23 41.2383 316.23 41.7305C316.23 42.2227 316.302 42.6582 316.446 43.0371C316.591 43.4121 316.802 43.707 317.079 43.9219C317.36 44.1328 317.702 44.2383 318.105 44.2383ZM324.992 45.1406C324.402 45.1406 323.884 45 323.439 44.7188C322.994 44.4375 322.646 44.043 322.396 43.5352C322.15 43.0273 322.027 42.4375 322.027 41.7656C322.027 41.082 322.15 40.4863 322.396 39.9785C322.646 39.4668 322.994 39.0703 323.439 38.7891C323.884 38.5078 324.402 38.3672 324.992 38.3672C325.586 38.3672 326.105 38.5078 326.55 38.7891C326.996 39.0703 327.343 39.4668 327.593 39.9785C327.843 40.4863 327.968 41.082 327.968 41.7656C327.968 42.4375 327.843 43.0273 327.593 43.5352C327.343 44.043 326.996 44.4375 326.55 44.7188C326.105 45 325.586 45.1406 324.992 45.1406ZM324.992 44.2383C325.445 44.2383 325.816 44.123 326.105 43.8926C326.394 43.6621 326.609 43.3594 326.75 42.9844C326.89 42.6055 326.961 42.1992 326.961 41.7656C326.961 41.3242 326.89 40.9141 326.75 40.5352C326.609 40.1562 326.394 39.8516 326.105 39.6211C325.816 39.3867 325.445 39.2695 324.992 39.2695C324.547 39.2695 324.179 39.3867 323.89 39.6211C323.601 39.8516 323.386 40.1562 323.246 40.5352C323.105 40.9141 323.035 41.3242 323.035 41.7656C323.035 42.1992 323.105 42.6055 323.246 42.9844C323.386 43.3594 323.601 43.6621 323.89 43.8926C324.179 44.123 324.547 44.2383 324.992 44.2383ZM329.301 45V38.4492H330.297V45H329.301ZM329.805 37.3594C329.61 37.3594 329.442 37.293 329.301 37.1602C329.16 37.0273 329.09 36.8672 329.09 36.6797C329.09 36.4922 329.16 36.332 329.301 36.1992C329.442 36.0664 329.61 36 329.805 36C330 36 330.168 36.0664 330.309 36.1992C330.45 36.332 330.52 36.4922 330.52 36.6797C330.52 36.8672 330.45 37.0273 330.309 37.1602C330.168 37.293 330 37.3594 329.805 37.3594ZM332.942 41.0625V45H331.946V38.4492H332.907V39.4805H333.001C333.153 39.1445 333.386 38.875 333.698 38.6719C334.011 38.4688 334.415 38.3672 334.911 38.3672C335.353 38.3672 335.739 38.457 336.071 38.6367C336.403 38.8164 336.661 39.0898 336.845 39.457C337.032 39.8203 337.126 40.2812 337.126 40.8398V45H336.13V40.9102C336.13 40.3984 335.995 39.998 335.726 39.709C335.456 39.416 335.089 39.2695 334.624 39.2695C334.304 39.2695 334.017 39.3398 333.763 39.4805C333.509 39.6211 333.308 39.8242 333.159 40.0898C333.015 40.3555 332.942 40.6797 332.942 41.0625ZM341.611 38.4492V39.3047H338.224V38.4492H341.611ZM339.209 36.8906H340.205V43.125C340.205 43.4648 340.275 43.7148 340.416 43.875C340.556 44.0312 340.779 44.1094 341.084 44.1094C341.15 44.1094 341.218 44.1055 341.289 44.0977C341.363 44.0898 341.443 44.0781 341.529 44.0625L341.74 44.9648C341.646 45 341.531 45.0273 341.394 45.0469C341.261 45.0703 341.127 45.082 340.99 45.082C340.463 45.082 340.033 44.9258 339.701 44.6133C339.373 44.3008 339.209 43.8945 339.209 43.3945V36.8906Z" fill="#404040"/>
<path d="M296 45V107" stroke="#818181" stroke-dasharray="2 2"/>
<path d="M63.5391 180.152C62.9141 180.152 62.373 180.053 61.916 179.854C61.459 179.65 61.0996 179.369 60.8379 179.01C60.5801 178.646 60.4336 178.227 60.3984 177.75H61.4883C61.5195 178.078 61.6309 178.35 61.8223 178.564C62.0176 178.779 62.2656 178.939 62.5664 179.045C62.8672 179.15 63.1914 179.203 63.5391 179.203C63.9414 179.203 64.3027 179.137 64.623 179.004C64.9473 178.871 65.2031 178.686 65.3906 178.447C65.5781 178.209 65.6719 177.93 65.6719 177.609C65.6719 177.32 65.5898 177.086 65.4258 176.906C65.2617 176.727 65.0469 176.58 64.7812 176.467C64.5195 176.354 64.2344 176.254 63.9258 176.168L62.8594 175.863C62.1758 175.668 61.6348 175.389 61.2363 175.025C60.8418 174.658 60.6445 174.18 60.6445 173.59C60.6445 173.102 60.7754 172.676 61.0371 172.312C61.3027 171.945 61.6602 171.66 62.1094 171.457C62.5625 171.254 63.0664 171.152 63.6211 171.152C64.1836 171.152 64.6836 171.254 65.1211 171.457C65.5586 171.656 65.9062 171.93 66.1641 172.277C66.4219 172.621 66.5586 173.012 66.5742 173.449H65.543C65.4922 173.02 65.2852 172.686 64.9219 172.447C64.5625 172.209 64.1172 172.09 63.5859 172.09C63.2031 172.09 62.8672 172.152 62.5781 172.277C62.2891 172.402 62.0645 172.574 61.9043 172.793C61.7441 173.012 61.6641 173.262 61.6641 173.543C61.6641 173.852 61.7598 174.102 61.9512 174.293C62.1426 174.48 62.3691 174.627 62.6309 174.732C62.8965 174.838 63.1367 174.922 63.3516 174.984L64.2305 175.23C64.457 175.293 64.709 175.377 64.9863 175.482C65.2676 175.588 65.5371 175.73 65.7949 175.91C66.0566 176.09 66.2715 176.32 66.4395 176.602C66.6074 176.879 66.6914 177.223 66.6914 177.633C66.6914 178.102 66.5684 178.527 66.3223 178.91C66.0762 179.289 65.7188 179.592 65.25 179.818C64.7812 180.041 64.2109 180.152 63.5391 180.152ZM70.0163 180.152C69.6022 180.152 69.2252 180.074 68.8854 179.918C68.5455 179.758 68.276 179.527 68.0768 179.227C67.8776 178.926 67.778 178.562 67.778 178.137C67.778 177.762 67.8522 177.459 68.0006 177.229C68.1491 176.994 68.3463 176.811 68.5924 176.678C68.8424 176.541 69.1159 176.439 69.4127 176.373C69.7135 176.307 70.0163 176.254 70.3209 176.215C70.7194 176.164 71.0416 176.125 71.2877 176.098C71.5377 176.07 71.7194 176.023 71.8327 175.957C71.9498 175.891 72.0084 175.777 72.0084 175.617V175.582C72.0084 175.164 71.8932 174.84 71.6627 174.609C71.4362 174.375 71.0905 174.258 70.6256 174.258C70.1491 174.258 69.7741 174.363 69.5006 174.574C69.2272 174.781 69.0358 175.004 68.9264 175.242L67.9655 174.902C68.1373 174.504 68.3659 174.193 68.651 173.971C68.9401 173.748 69.2526 173.592 69.5885 173.502C69.9284 173.412 70.2623 173.367 70.5905 173.367C70.8014 173.367 71.0436 173.393 71.317 173.443C71.5905 173.49 71.8561 173.592 72.1139 173.748C72.3756 173.9 72.5905 174.133 72.7584 174.445C72.9303 174.754 73.0163 175.168 73.0163 175.688V180H72.0084V179.109H71.9616C71.8952 179.25 71.7819 179.402 71.6217 179.566C71.4616 179.727 71.2487 179.865 70.983 179.982C70.7213 180.096 70.3991 180.152 70.0163 180.152ZM70.1686 179.25C70.567 179.25 70.903 179.172 71.1764 179.016C71.4498 178.859 71.6569 178.658 71.7975 178.412C71.9381 178.162 72.0084 177.902 72.0084 177.633V176.707C71.9655 176.758 71.8717 176.805 71.7272 176.848C71.5866 176.887 71.4225 176.922 71.235 176.953C71.0514 176.984 70.8717 177.012 70.6959 177.035C70.5202 177.055 70.3795 177.07 70.2741 177.082C70.0123 177.117 69.7682 177.174 69.5416 177.252C69.3151 177.326 69.1315 177.438 68.9909 177.586C68.8541 177.734 68.7858 177.938 68.7858 178.195C68.7858 178.543 68.9147 178.807 69.1725 178.986C69.4342 179.162 69.7663 179.25 70.1686 179.25ZM79.7747 173.449L77.3606 180H76.3294L73.9153 173.449H75.0052L76.8098 178.676H76.8802L78.6848 173.449H79.7747ZM80.9081 180V173.449H81.9042V180H80.9081ZM81.412 172.359C81.2167 172.359 81.0487 172.293 80.9081 172.16C80.7675 172.027 80.6972 171.867 80.6972 171.68C80.6972 171.492 80.7675 171.332 80.9081 171.199C81.0487 171.066 81.2167 171 81.412 171C81.6073 171 81.7753 171.066 81.9159 171.199C82.0566 171.332 82.1269 171.492 82.1269 171.68C82.1269 171.867 82.0566 172.027 81.9159 172.16C81.7753 172.293 81.6073 172.359 81.412 172.359ZM84.5494 176.062V180H83.5533V173.449H84.5142V174.48H84.608C84.7603 174.145 84.9927 173.875 85.3052 173.672C85.6177 173.469 86.022 173.367 86.5181 173.367C86.9595 173.367 87.3463 173.457 87.6783 173.637C88.0103 173.816 88.2681 174.09 88.4517 174.457C88.6392 174.82 88.733 175.281 88.733 175.84V180H87.7369V175.91C87.7369 175.398 87.6021 174.998 87.3326 174.709C87.063 174.416 86.6959 174.27 86.231 174.27C85.9107 174.27 85.6236 174.34 85.3697 174.48C85.1158 174.621 84.9146 174.824 84.7662 175.09C84.6216 175.355 84.5494 175.68 84.5494 176.062ZM93.0187 182.59C92.2883 182.59 91.7102 182.457 91.2844 182.191C90.8625 181.926 90.55 181.621 90.3469 181.277L91.1437 180.715C91.2336 180.836 91.3488 180.973 91.4895 181.125C91.6301 181.281 91.8215 181.416 92.0637 181.529C92.3059 181.643 92.6242 181.699 93.0187 181.699C93.5461 181.699 93.9816 181.572 94.3254 181.318C94.673 181.064 94.8469 180.664 94.8469 180.117V178.793H94.7531C94.6828 178.91 94.5793 179.057 94.4426 179.232C94.3098 179.404 94.1164 179.559 93.8625 179.695C93.6125 179.828 93.2727 179.895 92.843 179.895C92.3156 179.895 91.843 179.77 91.425 179.52C91.007 179.27 90.675 178.906 90.4289 178.43C90.1867 177.953 90.0656 177.375 90.0656 176.695C90.0656 176.023 90.1828 175.439 90.4172 174.943C90.6555 174.443 90.9855 174.057 91.4074 173.783C91.8293 173.506 92.3156 173.367 92.8664 173.367C93.2922 173.367 93.6301 173.438 93.8801 173.578C94.134 173.719 94.3273 173.879 94.4602 174.059C94.5969 174.234 94.7023 174.379 94.7766 174.492H94.882V173.449H95.843V180.188C95.843 180.75 95.716 181.207 95.4621 181.559C95.2121 181.914 94.8723 182.174 94.4426 182.338C94.0168 182.506 93.5422 182.59 93.0187 182.59ZM92.9836 178.992C93.5891 178.992 94.052 178.787 94.3723 178.377C94.6965 177.967 94.8586 177.398 94.8586 176.672C94.8586 176.199 94.7883 175.783 94.6477 175.424C94.507 175.064 94.2961 174.783 94.0148 174.58C93.7375 174.373 93.3937 174.27 92.9836 174.27C92.5578 174.27 92.2023 174.379 91.9172 174.598C91.6359 174.812 91.425 175.102 91.2844 175.465C91.1437 175.828 91.0734 176.23 91.0734 176.672C91.0734 177.125 91.1437 177.527 91.2844 177.879C91.4289 178.227 91.6437 178.5 91.9289 178.699C92.2141 178.895 92.5656 178.992 92.9836 178.992ZM102.121 174.926L101.219 175.172C101.133 174.949 100.984 174.738 100.773 174.539C100.566 174.336 100.242 174.234 99.8006 174.234C99.4022 174.234 99.0702 174.328 98.8045 174.516C98.5389 174.699 98.4061 174.93 98.4061 175.207C98.4061 175.457 98.4959 175.656 98.6756 175.805C98.8592 175.953 99.1444 176.074 99.5311 176.168L100.504 176.402C101.086 176.543 101.519 176.76 101.805 177.053C102.094 177.346 102.238 177.719 102.238 178.172C102.238 178.547 102.131 178.883 101.916 179.18C101.701 179.477 101.402 179.711 101.019 179.883C100.637 180.055 100.191 180.141 99.6834 180.141C99.0155 180.141 98.4627 179.994 98.0252 179.701C97.5916 179.408 97.3162 178.984 97.1991 178.43L98.1483 178.195C98.2381 178.547 98.41 178.811 98.6639 178.986C98.9217 179.162 99.2577 179.25 99.6717 179.25C100.137 179.25 100.508 179.15 100.785 178.951C101.066 178.748 101.207 178.508 101.207 178.23C101.207 177.77 100.883 177.461 100.234 177.305L99.1444 177.047C98.5428 176.902 98.1014 176.682 97.8202 176.385C97.5389 176.088 97.3983 175.715 97.3983 175.266C97.3983 174.895 97.5018 174.566 97.7088 174.281C97.9198 173.996 98.2069 173.773 98.5702 173.613C98.9334 173.449 99.3436 173.367 99.8006 173.367C100.453 173.367 100.963 173.512 101.33 173.801C101.701 174.086 101.965 174.461 102.121 174.926Z" fill="#404040"/>
<path d="M10.4521 131.525V130.071L15.1938 128.128V128.054L10.4521 126.107V124.635H17V125.799H12.5V125.852L16.978 127.671V128.524L12.4912 130.321V130.383H17V131.525H10.4521ZM17.0879 120.838C17.0879 121.409 16.9546 121.923 16.688 122.38C16.4214 122.834 16.0376 123.193 15.5366 123.457C15.0356 123.718 14.4336 123.848 13.7305 123.848C13.0244 123.848 12.4209 123.718 11.9199 123.457C11.416 123.193 11.0308 122.834 10.7642 122.38C10.4976 121.923 10.3643 121.409 10.3643 120.838C10.3643 120.264 10.4976 119.751 10.7642 119.3C11.0308 118.849 11.416 118.491 11.9199 118.228C12.4209 117.964 13.0244 117.832 13.7305 117.832C14.4336 117.832 15.0356 117.964 15.5366 118.228C16.0376 118.491 16.4214 118.849 16.688 119.3C16.9546 119.751 17.0879 120.264 17.0879 120.838ZM16.0244 120.838C16.0244 120.483 15.9365 120.17 15.7607 119.897C15.585 119.625 15.3271 119.411 14.9873 119.256C14.6445 119.101 14.2256 119.023 13.7305 119.023C13.2324 119.023 12.812 119.101 12.4692 119.256C12.1265 119.411 11.8672 119.625 11.6914 119.897C11.5156 120.17 11.4277 120.483 11.4277 120.838C11.4277 121.192 11.5156 121.507 11.6914 121.783C11.8672 122.055 12.1265 122.269 12.4692 122.424C12.812 122.58 13.2324 122.657 13.7305 122.657C14.2256 122.657 14.6445 122.58 14.9873 122.424C15.3271 122.269 15.585 122.055 15.7607 121.783C15.9365 121.507 16.0244 121.192 16.0244 120.838ZM10.4521 111.662H17V112.726L12.5396 115.806V115.863H17V117.05H10.4521V115.986L14.9126 112.906V112.849H10.4521V111.662ZM17 110.713H10.4521V106.45H11.4453V109.526H13.2031V106.679H14.1831V109.526H16.0068V106.433H17V110.713ZM10.4521 106.028V104.688L13.3525 103.088V103.018L10.4521 101.418V100.078L14.5566 102.464H17V103.646H14.5566L10.4521 106.028Z" fill="#818181"/>
<path d="M208.189 229.445V228.452H213.41V229.445H211.388V235H210.215V229.445H208.189ZM215.26 228.452V235H214.073V228.452H215.26ZM216.209 228.452H217.664L219.606 233.194H219.681L221.627 228.452H223.1V235H221.935V230.5H221.882L220.063 234.978H219.21L217.413 230.491H217.352V235H216.209V228.452ZM224.049 235V228.452H228.312V229.445H225.235V231.203H228.083V232.183H225.235V234.007H228.329V235H224.049Z" fill="#818181"/>
<g filter="url(#filter0_d_6030_3804)">
<circle cx="296" cy="115" r="7" fill="url(#paint0_linear_6030_3804)"/>
</g>
</g>
<defs>
<filter id="filter0_d_6030_3804" x="285" y="105" width="22" height="22" filterUnits="userSpaceOnUse" color-interpolation-filters="sRGB">
<feFlood flood-opacity="0" result="BackgroundImageFix"/>
<feColorMatrix in="SourceAlpha" type="matrix" values="0 0 0 0 0 0 0 0 0 0 0 0 0 0 0 0 0 0 127 0" result="hardAlpha"/>
<feOffset dy="1"/>
<feGaussianBlur stdDeviation="2"/>
<feComposite in2="hardAlpha" operator="out"/>
<feColorMatrix type="matrix" values="0 0 0 0 0.409781 0 0 0 0 0.409781 0 0 0 0 0.409781 0 0 0 0.25 0"/>
<feBlend mode="normal" in2="BackgroundImageFix" result="effect1_dropShadow_6030_3804"/>
<feBlend mode="normal" in="SourceGraphic" in2="effect1_dropShadow_6030_3804" result="shape"/>
</filter>
<linearGradient id="paint0_linear_6030_3804" x1="287.705" y1="122.525" x2="304.292" y2="123.313" gradientUnits="userSpaceOnUse">
<stop stop-color="#930202"/>
<stop offset="0.490385" stop-color="#DE2322"/>
<stop offset="1" stop-color="#FEC802"/>
</linearGradient>
<clipPath id="clip0_6030_3804">
<rect width="405" height="248" rx="15" fill="white"/>
</clipPath>
</defs>
</svg>
