<svg width="50" height="50" viewBox="0 0 50 50" fill="none" xmlns="http://www.w3.org/2000/svg">
<rect width="50" height="50" rx="7" fill="#FFE6DD"/>
<path d="M23.3705 24.721C23.85 24.4569 24.4138 24.402 24.9301 24.5628L25.1479 24.6448L34.4194 28.7679C35.3653 29.1886 35.8352 30.2629 35.3989 31.1614L35.2993 31.3382C34.3472 32.8217 33.1017 34.1044 31.6332 35.1038L31.2495 35.3548C29.3144 36.5753 27.0922 37.2715 24.8012 37.3694C22.3574 37.4738 19.9324 36.8935 17.8002 35.6946C16.2519 34.824 14.9017 33.6522 13.8266 32.2552C13.1955 31.4348 13.475 30.3044 14.309 29.7269L14.4838 29.6185L23.3705 24.721ZM24.5385 26.0159C24.3957 25.9525 24.2311 25.9592 24.0942 26.0345L15.2075 30.9319C15.0799 31.0023 15.0116 31.1086 14.9897 31.1917C14.9795 31.2306 14.9816 31.2592 14.9848 31.2767C14.9876 31.2913 14.994 31.3115 15.0161 31.3401C15.9684 32.5777 17.1639 33.6167 18.5356 34.388C20.4241 35.4498 22.5722 35.9638 24.7368 35.8714C26.9012 35.7789 28.9974 35.0842 30.7885 33.8655C32.0894 32.9802 33.1922 31.8427 34.0356 30.5286C34.0552 30.4981 34.0605 30.4771 34.062 30.4622C34.0637 30.4445 34.0619 30.4155 34.0483 30.3773C34.0192 30.2965 33.9427 30.1971 33.81 30.138L24.5385 26.0159ZM22.0922 13.2425C22.0922 13.0964 22.0315 12.9864 21.9711 12.929C21.943 12.9024 21.9197 12.8906 21.9057 12.886C21.8945 12.8824 21.8759 12.8786 21.8422 12.8841C20.6013 13.0869 19.4005 13.5052 18.2953 14.1234C16.677 15.0286 15.3177 16.3334 14.3471 17.9134C13.3765 19.4934 12.8263 21.2959 12.7504 23.1487C12.6987 24.414 12.8693 25.6747 13.2495 26.8734C13.2597 26.9055 13.2715 26.9197 13.2797 26.928C13.2901 26.9385 13.3114 26.955 13.3481 26.9681C13.4266 26.9958 13.552 26.9998 13.6821 26.9339L21.8178 22.8099C21.9859 22.7247 22.0922 22.552 22.0922 22.3636V13.2425ZM26.9262 11.4114C28.2831 11.6382 29.5975 12.091 30.8129 12.7552C32.6158 13.7404 34.1443 15.1601 35.2602 16.8851C36.3761 18.61 37.0441 20.5859 37.2036 22.6341C37.311 24.0149 37.1858 25.3993 36.8364 26.7298L36.7729 26.9232C36.4306 27.7898 35.4377 28.1709 34.5375 27.8753L34.3471 27.8021L26.0825 24.1234C25.4036 23.8211 24.9521 23.1693 24.9008 22.4359L24.8959 22.2884L24.9282 13.2425C24.9322 12.138 25.8369 11.2295 26.9262 11.4114ZM26.6157 12.8929C26.6016 12.8975 26.5783 12.9085 26.5502 12.9349C26.4897 12.992 26.4287 13.1023 26.4282 13.2484L26.3959 22.2942C26.3953 22.4921 26.5112 22.6716 26.6918 22.7523L34.9565 26.431C35.0898 26.4903 35.2145 26.4802 35.2914 26.4485C35.3275 26.4337 35.3479 26.4165 35.3578 26.4056C35.3657 26.3968 35.3766 26.3818 35.3852 26.3489C35.6922 25.1799 35.8029 23.9635 35.7084 22.7503C35.5683 20.951 34.9817 19.2149 34.0014 17.6995C33.0211 16.1841 31.678 14.9371 30.0942 14.0716C29.0263 13.4881 27.8713 13.0901 26.6791 12.8909C26.6452 12.8853 26.6268 12.8893 26.6157 12.8929ZM23.5922 22.3636L23.5873 22.5042C23.5417 23.1557 23.18 23.745 22.6196 24.0804L22.4965 24.1478L14.3598 28.2718C13.436 28.7399 12.3048 28.4249 11.892 27.5159L11.8198 27.3265C11.3871 25.9623 11.1935 24.5283 11.2524 23.0882C11.3387 20.9791 11.9639 18.9268 13.0688 17.1282C14.1736 15.3297 15.7208 13.8442 17.5629 12.8138C18.821 12.1101 20.1884 11.6344 21.601 11.4036C22.691 11.2258 23.5922 12.138 23.5922 13.2425V22.3636Z" fill="#F67E3A"/>
</svg>
