<svg width="347" height="287" viewBox="0 0 347 287" fill="none" xmlns="http://www.w3.org/2000/svg">
<g filter="url(#filter0_dd_6030_2447)">
<rect x="10" y="8" width="323" height="264" rx="15" fill="#F1F1F1"/>
<g clip-path="url(#clip0_6030_2447)">
<rect x="40" y="38" width="263" height="204" rx="10" fill="#F1F1F1"/>
<g opacity="0.8" filter="url(#filter1_f_6030_2447)">
<ellipse cx="76.4526" cy="164.7" rx="76.4526" ry="164.7" transform="matrix(-0.600927 0.799304 -0.813014 -0.582244 289.453 229.816)" fill="#FB5D21"/>
</g>
<g opacity="0.8" filter="url(#filter2_f_6030_2447)">
<ellipse cx="82.7094" cy="173.962" rx="82.7094" ry="173.962" transform="matrix(0.768063 -0.640374 0.680797 0.732472 49.3516 93.2539)" fill="#FBF300"/>
</g>
<g opacity="0.8" filter="url(#filter3_f_6030_2447)">
<ellipse cx="90.3132" cy="168.428" rx="90.3132" ry="168.428" transform="matrix(0.728469 -0.685078 0.716066 0.698033 139.15 37.0859)" fill="#B8F000"/>
</g>
<rect x="63" y="200" width="70" height="21" rx="5" fill="#818181" fill-opacity="0.4"/>
<path d="M68.7617 215V205.542H72.1387C72.8708 205.542 73.478 205.669 73.9604 205.923C74.4429 206.173 74.8047 206.522 75.0459 206.97C75.2871 207.415 75.4077 207.929 75.4077 208.513C75.4077 209.088 75.2871 209.596 75.0459 210.036C74.8047 210.476 74.4408 210.817 73.9541 211.058C73.4717 211.299 72.8623 211.42 72.126 211.42H69.5806V210.201H71.9927C72.4624 210.201 72.8411 210.133 73.1289 209.998C73.4209 209.863 73.6325 209.67 73.7637 209.42C73.8991 209.171 73.9668 208.868 73.9668 208.513C73.9668 208.153 73.8991 207.844 73.7637 207.586C73.6283 207.324 73.4146 207.123 73.1226 206.983C72.8348 206.839 72.4561 206.767 71.9863 206.767H70.1899V215H68.7617ZM74.1445 215L71.853 210.728H73.4336L75.7695 215H74.1445ZM80.5684 215.127C79.7559 215.127 79.028 214.932 78.3848 214.543C77.7415 214.154 77.2337 213.597 76.8613 212.874C76.4889 212.146 76.3027 211.28 76.3027 210.277C76.3027 209.266 76.4889 208.398 76.8613 207.675C77.2337 206.947 77.7415 206.388 78.3848 205.999C79.028 205.61 79.7559 205.415 80.5684 205.415C81.3893 205.415 82.1193 205.61 82.7583 205.999C83.3973 206.388 83.9009 206.947 84.269 207.675C84.6414 208.398 84.8276 209.266 84.8276 210.277C84.8276 211.285 84.6414 212.15 84.269 212.874C83.9009 213.597 83.3973 214.154 82.7583 214.543C82.1193 214.932 81.3893 215.127 80.5684 215.127ZM80.5684 213.826C81.1143 213.826 81.6009 213.69 82.0283 213.419C82.4557 213.149 82.7922 212.749 83.0376 212.22C83.2873 211.691 83.4121 211.043 83.4121 210.277C83.4121 209.507 83.2873 208.858 83.0376 208.329C82.7922 207.795 82.4557 207.393 82.0283 207.123C81.6009 206.852 81.1143 206.716 80.5684 206.716C80.0267 206.716 79.54 206.852 79.1084 207.123C78.681 207.393 78.3424 207.795 78.0928 208.329C77.8431 208.858 77.7183 209.507 77.7183 210.277C77.7183 211.043 77.8431 211.691 78.0928 212.22C78.3424 212.749 78.681 213.149 79.1084 213.419C79.54 213.69 80.0267 213.826 80.5684 213.826ZM87.481 205.542V215H86.0527V205.542H87.481ZM89.2329 211.794V210.76L95.3711 207.783V209.205L90.8389 211.261L90.8896 211.179V211.375L90.8389 211.299L95.3711 213.362V214.771L89.2329 211.794ZM100.411 205.542V215H99.002V206.977H98.9385L96.6914 208.456V207.084L99.04 205.542H100.411ZM105.096 215.127C104.368 215.127 103.744 214.937 103.223 214.556C102.707 214.175 102.311 213.625 102.036 212.905C101.765 212.182 101.63 211.306 101.63 210.277C101.63 209.253 101.767 208.379 102.042 207.656C102.318 206.928 102.713 206.374 103.229 205.993C103.75 205.608 104.372 205.415 105.096 205.415C105.824 205.415 106.446 205.608 106.962 205.993C107.482 206.374 107.878 206.928 108.149 207.656C108.424 208.379 108.562 209.253 108.562 210.277C108.562 211.306 108.426 212.182 108.155 212.905C107.884 213.625 107.491 214.175 106.975 214.556C106.458 214.937 105.832 215.127 105.096 215.127ZM105.096 213.908C105.54 213.908 105.915 213.766 106.219 213.483C106.524 213.199 106.757 212.787 106.917 212.245C107.078 211.699 107.159 211.043 107.159 210.277C107.159 209.507 107.078 208.851 106.917 208.31C106.757 207.764 106.524 207.349 106.219 207.065C105.915 206.778 105.54 206.634 105.096 206.634C104.44 206.634 103.932 206.953 103.572 207.592C103.217 208.227 103.039 209.122 103.039 210.277C103.039 211.043 103.119 211.699 103.28 212.245C103.441 212.787 103.674 213.199 103.979 213.483C104.287 213.766 104.66 213.908 105.096 213.908ZM112.954 215.127C112.226 215.127 111.602 214.937 111.082 214.556C110.565 214.175 110.17 213.625 109.895 212.905C109.624 212.182 109.488 211.306 109.488 210.277C109.488 209.253 109.626 208.379 109.901 207.656C110.176 206.928 110.572 206.374 111.088 205.993C111.608 205.608 112.23 205.415 112.954 205.415C113.682 205.415 114.304 205.608 114.82 205.993C115.341 206.374 115.736 206.928 116.007 207.656C116.282 208.379 116.42 209.253 116.42 210.277C116.42 211.306 116.285 212.182 116.014 212.905C115.743 213.625 115.349 214.175 114.833 214.556C114.317 214.937 113.69 215.127 112.954 215.127ZM112.954 213.908C113.398 213.908 113.773 213.766 114.078 213.483C114.382 213.199 114.615 212.787 114.776 212.245C114.937 211.699 115.017 211.043 115.017 210.277C115.017 209.507 114.937 208.851 114.776 208.31C114.615 207.764 114.382 207.349 114.078 207.065C113.773 206.778 113.398 206.634 112.954 206.634C112.298 206.634 111.79 206.953 111.431 207.592C111.075 208.227 110.897 209.122 110.897 210.277C110.897 211.043 110.978 211.699 111.139 212.245C111.299 212.787 111.532 213.199 111.837 213.483C112.146 213.766 112.518 213.908 112.954 213.908ZM122.463 213.223V212.728C122.463 212.368 122.537 212.04 122.685 211.744C122.833 211.447 123.051 211.21 123.339 211.033C123.627 210.851 123.976 210.76 124.386 210.76C124.805 210.76 125.156 210.849 125.44 211.026C125.723 211.204 125.937 211.443 126.081 211.744C126.225 212.04 126.297 212.368 126.297 212.728V213.223C126.297 213.582 126.223 213.912 126.075 214.213C125.931 214.509 125.717 214.746 125.434 214.924C125.15 215.102 124.801 215.19 124.386 215.19C123.972 215.19 123.62 215.102 123.333 214.924C123.045 214.746 122.827 214.509 122.679 214.213C122.535 213.912 122.463 213.582 122.463 213.223ZM123.536 212.728V213.223C123.536 213.489 123.599 213.73 123.726 213.946C123.853 214.162 124.073 214.27 124.386 214.27C124.695 214.27 124.911 214.162 125.034 213.946C125.156 213.73 125.218 213.489 125.218 213.223V212.728C125.218 212.461 125.159 212.222 125.04 212.01C124.922 211.794 124.704 211.687 124.386 211.687C124.077 211.687 123.857 211.794 123.726 212.01C123.599 212.222 123.536 212.461 123.536 212.728ZM117.708 207.814V207.319C117.708 206.96 117.783 206.632 117.931 206.335C118.083 206.035 118.301 205.796 118.584 205.618C118.872 205.44 119.219 205.352 119.625 205.352C120.044 205.352 120.396 205.44 120.679 205.618C120.967 205.796 121.183 206.035 121.327 206.335C121.471 206.632 121.54 206.96 121.536 207.319V207.814C121.54 208.17 121.468 208.498 121.32 208.798C121.172 209.095 120.956 209.334 120.673 209.516C120.389 209.693 120.04 209.782 119.625 209.782C119.211 209.782 118.86 209.693 118.572 209.516C118.288 209.334 118.072 209.095 117.924 208.798C117.78 208.498 117.708 208.17 117.708 207.814ZM118.781 207.319V207.814C118.781 208.081 118.845 208.322 118.972 208.538C119.099 208.754 119.317 208.86 119.625 208.855C119.939 208.86 120.157 208.754 120.279 208.538C120.402 208.322 120.463 208.081 120.463 207.814V207.319C120.463 207.053 120.404 206.812 120.286 206.596C120.167 206.38 119.947 206.274 119.625 206.278C119.321 206.274 119.103 206.38 118.972 206.596C118.845 206.812 118.781 207.053 118.781 207.319ZM118.146 215L124.646 205.542H125.751L119.251 215H118.146Z" fill="#F1F1F1"/>
<rect x="129" y="129" width="85" height="21" rx="5" fill="#818181" fill-opacity="0.4"/>
<path d="M134.762 144V134.542H138.139C138.871 134.542 139.478 134.669 139.96 134.923C140.443 135.173 140.805 135.522 141.046 135.97C141.287 136.415 141.408 136.929 141.408 137.513C141.408 138.088 141.287 138.596 141.046 139.036C140.805 139.476 140.441 139.817 139.954 140.058C139.472 140.299 138.862 140.42 138.126 140.42H135.581V139.201H137.993C138.462 139.201 138.841 139.133 139.129 138.998C139.421 138.863 139.632 138.67 139.764 138.42C139.899 138.171 139.967 137.868 139.967 137.513C139.967 137.153 139.899 136.844 139.764 136.586C139.628 136.324 139.415 136.123 139.123 135.983C138.835 135.839 138.456 135.767 137.986 135.767H136.19V144H134.762ZM140.145 144L137.853 139.728H139.434L141.77 144H140.145ZM146.568 144.127C145.756 144.127 145.028 143.932 144.385 143.543C143.742 143.154 143.234 142.597 142.861 141.874C142.489 141.146 142.303 140.28 142.303 139.277C142.303 138.266 142.489 137.398 142.861 136.675C143.234 135.947 143.742 135.388 144.385 134.999C145.028 134.61 145.756 134.415 146.568 134.415C147.389 134.415 148.119 134.61 148.758 134.999C149.397 135.388 149.901 135.947 150.269 136.675C150.641 137.398 150.828 138.266 150.828 139.277C150.828 140.285 150.641 141.15 150.269 141.874C149.901 142.597 149.397 143.154 148.758 143.543C148.119 143.932 147.389 144.127 146.568 144.127ZM146.568 142.826C147.114 142.826 147.601 142.69 148.028 142.419C148.456 142.149 148.792 141.749 149.038 141.22C149.287 140.691 149.412 140.043 149.412 139.277C149.412 138.507 149.287 137.858 149.038 137.329C148.792 136.795 148.456 136.393 148.028 136.123C147.601 135.852 147.114 135.716 146.568 135.716C146.027 135.716 145.54 135.852 145.108 136.123C144.681 136.393 144.342 136.795 144.093 137.329C143.843 137.858 143.718 138.507 143.718 139.277C143.718 140.043 143.843 140.691 144.093 141.22C144.342 141.749 144.681 142.149 145.108 142.419C145.54 142.69 146.027 142.826 146.568 142.826ZM153.481 134.542V144H152.053V134.542H153.481ZM160.901 144.127C160.322 144.127 159.801 144.017 159.34 143.797C158.883 143.573 158.517 143.266 158.242 142.876C157.967 142.483 157.821 142.036 157.804 141.537H159.188C159.221 141.939 159.401 142.271 159.727 142.534C160.053 142.796 160.444 142.927 160.901 142.927C161.265 142.927 161.587 142.843 161.866 142.673C162.146 142.504 162.366 142.273 162.526 141.981C162.687 141.685 162.768 141.347 162.768 140.966C162.768 140.585 162.685 140.244 162.52 139.944C162.355 139.639 162.126 139.4 161.834 139.227C161.547 139.053 161.215 138.966 160.838 138.966C160.55 138.966 160.262 139.017 159.975 139.119C159.687 139.216 159.454 139.343 159.276 139.5L157.962 139.309L158.496 134.542H163.694V135.767H159.689L159.391 138.414H159.441C159.623 138.232 159.867 138.084 160.171 137.97C160.48 137.851 160.812 137.792 161.168 137.792C161.743 137.792 162.256 137.93 162.704 138.205C163.157 138.475 163.512 138.848 163.771 139.322C164.029 139.792 164.158 140.331 164.158 140.94C164.158 141.554 164.018 142.102 163.739 142.584C163.459 143.063 163.074 143.439 162.583 143.714C162.097 143.989 161.536 144.127 160.901 144.127ZM168.544 144.127C167.816 144.127 167.192 143.937 166.671 143.556C166.155 143.175 165.759 142.625 165.484 141.905C165.214 141.182 165.078 140.306 165.078 139.277C165.078 138.253 165.216 137.379 165.491 136.656C165.766 135.928 166.161 135.374 166.678 134.993C167.198 134.608 167.82 134.415 168.544 134.415C169.272 134.415 169.894 134.608 170.41 134.993C170.931 135.374 171.326 135.928 171.597 136.656C171.872 137.379 172.01 138.253 172.01 139.277C172.01 140.306 171.874 141.182 171.604 141.905C171.333 142.625 170.939 143.175 170.423 143.556C169.907 143.937 169.28 144.127 168.544 144.127ZM168.544 142.908C168.988 142.908 169.363 142.766 169.667 142.483C169.972 142.199 170.205 141.787 170.366 141.245C170.527 140.699 170.607 140.043 170.607 139.277C170.607 138.507 170.527 137.851 170.366 137.31C170.205 136.764 169.972 136.349 169.667 136.065C169.363 135.778 168.988 135.634 168.544 135.634C167.888 135.634 167.38 135.953 167.021 136.592C166.665 137.227 166.487 138.122 166.487 139.277C166.487 140.043 166.568 140.699 166.729 141.245C166.889 141.787 167.122 142.199 167.427 142.483C167.736 142.766 168.108 142.908 168.544 142.908ZM177.31 139.411V140.604H173.108V139.411H177.31ZM181.988 134.542V144H180.579V135.977H180.516L178.269 137.456V136.084L180.617 134.542H181.988ZM186.673 144.127C185.945 144.127 185.321 143.937 184.8 143.556C184.284 143.175 183.888 142.625 183.613 141.905C183.342 141.182 183.207 140.306 183.207 139.277C183.207 138.253 183.345 137.379 183.62 136.656C183.895 135.928 184.29 135.374 184.807 134.993C185.327 134.608 185.949 134.415 186.673 134.415C187.401 134.415 188.023 134.608 188.539 134.993C189.06 135.374 189.455 135.928 189.726 136.656C190.001 137.379 190.139 138.253 190.139 139.277C190.139 140.306 190.003 141.182 189.732 141.905C189.462 142.625 189.068 143.175 188.552 143.556C188.035 143.937 187.409 144.127 186.673 144.127ZM186.673 142.908C187.117 142.908 187.492 142.766 187.796 142.483C188.101 142.199 188.334 141.787 188.495 141.245C188.655 140.699 188.736 140.043 188.736 139.277C188.736 138.507 188.655 137.851 188.495 137.31C188.334 136.764 188.101 136.349 187.796 136.065C187.492 135.778 187.117 135.634 186.673 135.634C186.017 135.634 185.509 135.953 185.149 136.592C184.794 137.227 184.616 138.122 184.616 139.277C184.616 140.043 184.697 140.699 184.857 141.245C185.018 141.787 185.251 142.199 185.556 142.483C185.865 142.766 186.237 142.908 186.673 142.908ZM194.531 144.127C193.803 144.127 193.179 143.937 192.659 143.556C192.142 143.175 191.747 142.625 191.472 141.905C191.201 141.182 191.065 140.306 191.065 139.277C191.065 138.253 191.203 137.379 191.478 136.656C191.753 135.928 192.149 135.374 192.665 134.993C193.186 134.608 193.808 134.415 194.531 134.415C195.259 134.415 195.881 134.608 196.397 134.993C196.918 135.374 197.314 135.928 197.584 136.656C197.86 137.379 197.997 138.253 197.997 139.277C197.997 140.306 197.862 141.182 197.591 141.905C197.32 142.625 196.926 143.175 196.41 143.556C195.894 143.937 195.268 144.127 194.531 144.127ZM194.531 142.908C194.976 142.908 195.35 142.766 195.655 142.483C195.959 142.199 196.192 141.787 196.353 141.245C196.514 140.699 196.594 140.043 196.594 139.277C196.594 138.507 196.514 137.851 196.353 137.31C196.192 136.764 195.959 136.349 195.655 136.065C195.35 135.778 194.976 135.634 194.531 135.634C193.875 135.634 193.368 135.953 193.008 136.592C192.652 137.227 192.475 138.122 192.475 139.277C192.475 140.043 192.555 140.699 192.716 141.245C192.877 141.787 193.109 142.199 193.414 142.483C193.723 142.766 194.095 142.908 194.531 142.908ZM204.04 142.223V141.728C204.04 141.368 204.114 141.04 204.262 140.744C204.41 140.447 204.628 140.21 204.916 140.033C205.204 139.851 205.553 139.76 205.963 139.76C206.382 139.76 206.734 139.849 207.017 140.026C207.301 140.204 207.514 140.443 207.658 140.744C207.802 141.04 207.874 141.368 207.874 141.728V142.223C207.874 142.582 207.8 142.912 207.652 143.213C207.508 143.509 207.294 143.746 207.011 143.924C206.727 144.102 206.378 144.19 205.963 144.19C205.549 144.19 205.197 144.102 204.91 143.924C204.622 143.746 204.404 143.509 204.256 143.213C204.112 142.912 204.04 142.582 204.04 142.223ZM205.113 141.728V142.223C205.113 142.489 205.176 142.73 205.303 142.946C205.43 143.162 205.65 143.27 205.963 143.27C206.272 143.27 206.488 143.162 206.611 142.946C206.734 142.73 206.795 142.489 206.795 142.223V141.728C206.795 141.461 206.736 141.222 206.617 141.01C206.499 140.794 206.281 140.687 205.963 140.687C205.654 140.687 205.434 140.794 205.303 141.01C205.176 141.222 205.113 141.461 205.113 141.728ZM199.286 136.814V136.319C199.286 135.96 199.36 135.632 199.508 135.335C199.66 135.035 199.878 134.796 200.162 134.618C200.449 134.44 200.796 134.352 201.203 134.352C201.622 134.352 201.973 134.44 202.256 134.618C202.544 134.796 202.76 135.035 202.904 135.335C203.048 135.632 203.118 135.96 203.113 136.319V136.814C203.118 137.17 203.046 137.498 202.897 137.798C202.749 138.095 202.534 138.334 202.25 138.516C201.966 138.693 201.617 138.782 201.203 138.782C200.788 138.782 200.437 138.693 200.149 138.516C199.865 138.334 199.65 138.095 199.501 137.798C199.358 137.498 199.286 137.17 199.286 136.814ZM200.358 136.319V136.814C200.358 137.081 200.422 137.322 200.549 137.538C200.676 137.754 200.894 137.86 201.203 137.855C201.516 137.86 201.734 137.754 201.856 137.538C201.979 137.322 202.041 137.081 202.041 136.814V136.319C202.041 136.053 201.981 135.812 201.863 135.596C201.744 135.38 201.524 135.274 201.203 135.278C200.898 135.274 200.68 135.38 200.549 135.596C200.422 135.812 200.358 136.053 200.358 136.319ZM199.724 144L206.224 134.542H207.328L200.828 144H199.724Z" fill="#F1F1F1"/>
<rect x="214" y="57" width="70" height="21" rx="5" fill="#818181" fill-opacity="0.4"/>
<path d="M219.762 72V62.542H223.139C223.871 62.542 224.478 62.6689 224.96 62.9229C225.443 63.1725 225.805 63.5216 226.046 63.9702C226.287 64.4146 226.408 64.9287 226.408 65.5127C226.408 66.0882 226.287 66.596 226.046 67.0361C225.805 67.4762 225.441 67.8169 224.954 68.0581C224.472 68.2993 223.862 68.4199 223.126 68.4199H220.581V67.2012H222.993C223.462 67.2012 223.841 67.1335 224.129 66.998C224.421 66.8626 224.632 66.6701 224.764 66.4204C224.899 66.1707 224.967 65.8682 224.967 65.5127C224.967 65.153 224.899 64.8441 224.764 64.5859C224.628 64.3236 224.415 64.1226 224.123 63.9829C223.835 63.839 223.456 63.7671 222.986 63.7671H221.19V72H219.762ZM225.145 72L222.853 67.728H224.434L226.77 72H225.145ZM231.568 72.127C230.756 72.127 230.028 71.9323 229.385 71.543C228.742 71.1536 228.234 70.5972 227.861 69.8735C227.489 69.1457 227.303 68.2803 227.303 67.2773C227.303 66.266 227.489 65.3984 227.861 64.6748C228.234 63.9469 228.742 63.3883 229.385 62.999C230.028 62.6097 230.756 62.415 231.568 62.415C232.389 62.415 233.119 62.6097 233.758 62.999C234.397 63.3883 234.901 63.9469 235.269 64.6748C235.641 65.3984 235.828 66.266 235.828 67.2773C235.828 68.2845 235.641 69.1499 235.269 69.8735C234.901 70.5972 234.397 71.1536 233.758 71.543C233.119 71.9323 232.389 72.127 231.568 72.127ZM231.568 70.8257C232.114 70.8257 232.601 70.6903 233.028 70.4194C233.456 70.1486 233.792 69.7487 234.038 69.2197C234.287 68.6908 234.412 68.0433 234.412 67.2773C234.412 66.5072 234.287 65.8576 234.038 65.3286C233.792 64.7954 233.456 64.3934 233.028 64.1226C232.601 63.8517 232.114 63.7163 231.568 63.7163C231.027 63.7163 230.54 63.8517 230.108 64.1226C229.681 64.3934 229.342 64.7954 229.093 65.3286C228.843 65.8576 228.718 66.5072 228.718 67.2773C228.718 68.0433 228.843 68.6908 229.093 69.2197C229.342 69.7487 229.681 70.1486 230.108 70.4194C230.54 70.6903 231.027 70.8257 231.568 70.8257ZM238.481 62.542V72H237.053V62.542H238.481ZM246.371 68.7944L240.233 71.7715V70.3623L244.765 68.2993L244.721 68.3755V68.1787L244.765 68.2612L240.233 66.2046V64.7827L246.371 67.7598V68.7944ZM251.411 62.542V72H250.002V63.9766H249.938L247.691 65.4556V64.0845L250.04 62.542H251.411ZM256.096 72.127C255.368 72.127 254.744 71.9365 254.223 71.5557C253.707 71.1748 253.311 70.6247 253.036 69.9053C252.765 69.1816 252.63 68.3057 252.63 67.2773C252.63 66.2533 252.767 65.3794 253.042 64.6558C253.318 63.9279 253.713 63.3735 254.229 62.9927C254.75 62.6076 255.372 62.415 256.096 62.415C256.824 62.415 257.446 62.6076 257.962 62.9927C258.482 63.3735 258.878 63.9279 259.149 64.6558C259.424 65.3794 259.562 66.2533 259.562 67.2773C259.562 68.3057 259.426 69.1816 259.155 69.9053C258.884 70.6247 258.491 71.1748 257.975 71.5557C257.458 71.9365 256.832 72.127 256.096 72.127ZM256.096 70.9082C256.54 70.9082 256.915 70.7664 257.219 70.4829C257.524 70.1994 257.757 69.7868 257.917 69.2451C258.078 68.6992 258.159 68.0433 258.159 67.2773C258.159 66.5072 258.078 65.8512 257.917 65.3096C257.757 64.7637 257.524 64.349 257.219 64.0654C256.915 63.7777 256.54 63.6338 256.096 63.6338C255.44 63.6338 254.932 63.9533 254.572 64.5923C254.217 65.2271 254.039 66.1221 254.039 67.2773C254.039 68.0433 254.119 68.6992 254.28 69.2451C254.441 69.7868 254.674 70.1994 254.979 70.4829C255.287 70.7664 255.66 70.9082 256.096 70.9082ZM263.954 72.127C263.226 72.127 262.602 71.9365 262.082 71.5557C261.565 71.1748 261.17 70.6247 260.895 69.9053C260.624 69.1816 260.488 68.3057 260.488 67.2773C260.488 66.2533 260.626 65.3794 260.901 64.6558C261.176 63.9279 261.572 63.3735 262.088 62.9927C262.608 62.6076 263.23 62.415 263.954 62.415C264.682 62.415 265.304 62.6076 265.82 62.9927C266.341 63.3735 266.736 63.9279 267.007 64.6558C267.282 65.3794 267.42 66.2533 267.42 67.2773C267.42 68.3057 267.285 69.1816 267.014 69.9053C266.743 70.6247 266.349 71.1748 265.833 71.5557C265.317 71.9365 264.69 72.127 263.954 72.127ZM263.954 70.9082C264.398 70.9082 264.773 70.7664 265.078 70.4829C265.382 70.1994 265.615 69.7868 265.776 69.2451C265.937 68.6992 266.017 68.0433 266.017 67.2773C266.017 66.5072 265.937 65.8512 265.776 65.3096C265.615 64.7637 265.382 64.349 265.078 64.0654C264.773 63.7777 264.398 63.6338 263.954 63.6338C263.298 63.6338 262.79 63.9533 262.431 64.5923C262.075 65.2271 261.897 66.1221 261.897 67.2773C261.897 68.0433 261.978 68.6992 262.139 69.2451C262.299 69.7868 262.532 70.1994 262.837 70.4829C263.146 70.7664 263.518 70.9082 263.954 70.9082ZM273.463 70.2227V69.7275C273.463 69.3678 273.537 69.0399 273.685 68.7437C273.833 68.4474 274.051 68.2104 274.339 68.0327C274.627 67.8507 274.976 67.7598 275.386 67.7598C275.805 67.7598 276.156 67.8486 276.44 68.0264C276.723 68.2041 276.937 68.4432 277.081 68.7437C277.225 69.0399 277.297 69.3678 277.297 69.7275V70.2227C277.297 70.5824 277.223 70.9124 277.075 71.2129C276.931 71.5091 276.717 71.7461 276.434 71.9238C276.15 72.1016 275.801 72.1904 275.386 72.1904C274.972 72.1904 274.62 72.1016 274.333 71.9238C274.045 71.7461 273.827 71.5091 273.679 71.2129C273.535 70.9124 273.463 70.5824 273.463 70.2227ZM274.536 69.7275V70.2227C274.536 70.4893 274.599 70.7305 274.726 70.9463C274.853 71.1621 275.073 71.27 275.386 71.27C275.695 71.27 275.911 71.1621 276.034 70.9463C276.156 70.7305 276.218 70.4893 276.218 70.2227V69.7275C276.218 69.4609 276.159 69.2218 276.04 69.0103C275.922 68.7944 275.704 68.6865 275.386 68.6865C275.077 68.6865 274.857 68.7944 274.726 69.0103C274.599 69.2218 274.536 69.4609 274.536 69.7275ZM268.708 64.8145V64.3193C268.708 63.9596 268.783 63.6317 268.931 63.3354C269.083 63.035 269.301 62.7959 269.584 62.6182C269.872 62.4404 270.219 62.3516 270.625 62.3516C271.044 62.3516 271.396 62.4404 271.679 62.6182C271.967 62.7959 272.183 63.035 272.327 63.3354C272.471 63.6317 272.54 63.9596 272.536 64.3193V64.8145C272.54 65.1699 272.468 65.4979 272.32 65.7983C272.172 66.0946 271.956 66.3337 271.673 66.5156C271.389 66.6934 271.04 66.7822 270.625 66.7822C270.211 66.7822 269.86 66.6934 269.572 66.5156C269.288 66.3337 269.072 66.0946 268.924 65.7983C268.78 65.4979 268.708 65.1699 268.708 64.8145ZM269.781 64.3193V64.8145C269.781 65.0811 269.845 65.3223 269.972 65.5381C270.099 65.7539 270.317 65.8597 270.625 65.8555C270.939 65.8597 271.157 65.7539 271.279 65.5381C271.402 65.3223 271.463 65.0811 271.463 64.8145V64.3193C271.463 64.0527 271.404 63.8115 271.286 63.5957C271.167 63.3799 270.947 63.2741 270.625 63.2783C270.321 63.2741 270.103 63.3799 269.972 63.5957C269.845 63.8115 269.781 64.0527 269.781 64.3193ZM269.146 72L275.646 62.542H276.751L270.251 72H269.146Z" fill="#F1F1F1"/>
</g>
<path d="M94.7617 257V247.542H100.697V248.767H96.1899V251.617H100.379V252.836H96.1899V255.775H100.741V257H94.7617ZM102.049 247.542H103.788L106.797 254.893H106.905L109.92 247.542H111.685V257H110.288V250.157H110.199L107.4 256.987H106.27L103.502 250.151H103.414V257H102.049V247.542ZM113.208 257V247.542H116.585C117.317 247.542 117.924 247.677 118.407 247.948C118.889 248.215 119.251 248.581 119.492 249.046C119.733 249.508 119.854 250.028 119.854 250.608C119.854 251.188 119.733 251.71 119.492 252.176C119.251 252.637 118.887 253.003 118.4 253.274C117.918 253.541 117.309 253.674 116.572 253.674H114.262V252.468H116.439C116.909 252.468 117.287 252.387 117.575 252.227C117.867 252.066 118.079 251.846 118.21 251.566C118.345 251.283 118.413 250.963 118.413 250.608C118.413 250.248 118.345 249.931 118.21 249.656C118.079 249.376 117.867 249.159 117.575 249.002C117.283 248.845 116.902 248.767 116.433 248.767H114.636V257H113.208ZM120.965 257V247.542H122.393V255.775H126.678V257H120.965ZM131.35 257.127C130.537 257.127 129.809 256.932 129.166 256.543C128.523 256.154 128.015 255.597 127.643 254.874C127.27 254.146 127.084 253.28 127.084 252.277C127.084 251.266 127.27 250.398 127.643 249.675C128.015 248.947 128.523 248.388 129.166 247.999C129.809 247.61 130.537 247.415 131.35 247.415C132.171 247.415 132.901 247.61 133.54 247.999C134.179 248.388 134.682 248.947 135.05 249.675C135.423 250.398 135.609 251.266 135.609 252.277C135.609 253.285 135.423 254.15 135.05 254.874C134.682 255.597 134.179 256.154 133.54 256.543C132.901 256.932 132.171 257.127 131.35 257.127ZM131.35 255.826C131.896 255.826 132.382 255.69 132.81 255.419C133.237 255.149 133.573 254.749 133.819 254.22C134.069 253.691 134.193 253.043 134.193 252.277C134.193 251.507 134.069 250.858 133.819 250.329C133.573 249.795 133.237 249.393 132.81 249.123C132.382 248.852 131.896 248.716 131.35 248.716C130.808 248.716 130.321 248.852 129.89 249.123C129.462 249.393 129.124 249.795 128.874 250.329C128.624 250.858 128.5 251.507 128.5 252.277C128.5 253.043 128.624 253.691 128.874 254.22C129.124 254.749 129.462 255.149 129.89 255.419C130.321 255.69 130.808 255.826 131.35 255.826ZM135.622 247.542H137.24L139.716 251.846H139.817L142.28 247.542H143.912L140.478 253.287V257H139.049V253.287L135.622 247.542ZM144.705 257V247.542H150.64V248.767H146.133V251.617H150.323V252.836H146.133V255.775H150.685V257H144.705ZM151.992 257V247.542H157.927V248.767H153.42V251.617H157.61V252.836H153.42V255.775H157.972V257H151.992ZM162.174 257V247.542H163.602V251.655H168.312V247.542H169.74V257H168.312V252.88H163.602V257H162.174ZM175.225 257.127C174.412 257.127 173.684 256.932 173.041 256.543C172.398 256.154 171.89 255.597 171.518 254.874C171.145 254.146 170.959 253.28 170.959 252.277C170.959 251.266 171.145 250.398 171.518 249.675C171.89 248.947 172.398 248.388 173.041 247.999C173.684 247.61 174.412 247.415 175.225 247.415C176.046 247.415 176.776 247.61 177.415 247.999C178.054 248.388 178.557 248.947 178.925 249.675C179.298 250.398 179.484 251.266 179.484 252.277C179.484 253.285 179.298 254.15 178.925 254.874C178.557 255.597 178.054 256.154 177.415 256.543C176.776 256.932 176.046 257.127 175.225 257.127ZM175.225 255.826C175.771 255.826 176.257 255.69 176.685 255.419C177.112 255.149 177.448 254.749 177.694 254.22C177.944 253.691 178.068 253.043 178.068 252.277C178.068 251.507 177.944 250.858 177.694 250.329C177.448 249.795 177.112 249.393 176.685 249.123C176.257 248.852 175.771 248.716 175.225 248.716C174.683 248.716 174.196 248.852 173.765 249.123C173.337 249.393 172.999 249.795 172.749 250.329C172.499 250.858 172.375 251.507 172.375 252.277C172.375 253.043 172.499 253.691 172.749 254.22C172.999 254.749 173.337 255.149 173.765 255.419C174.196 255.69 174.683 255.826 175.225 255.826ZM186.796 247.542H188.225V253.763C188.225 254.423 188.068 255.009 187.755 255.521C187.446 256.029 187.01 256.429 186.447 256.721C185.884 257.008 185.224 257.152 184.467 257.152C183.714 257.152 183.053 257.008 182.486 256.721C181.924 256.429 181.486 256.029 181.172 255.521C180.863 255.009 180.709 254.423 180.709 253.763V247.542H182.137V253.648C182.137 254.076 182.23 254.457 182.417 254.791C182.607 255.121 182.876 255.381 183.223 255.572C183.574 255.762 183.989 255.857 184.467 255.857C184.949 255.857 185.364 255.762 185.711 255.572C186.058 255.381 186.325 255.121 186.511 254.791C186.701 254.457 186.796 254.076 186.796 253.648V247.542ZM189.748 257V247.542H193.125C193.857 247.542 194.464 247.669 194.947 247.923C195.429 248.173 195.791 248.522 196.032 248.97C196.273 249.415 196.394 249.929 196.394 250.513C196.394 251.088 196.273 251.596 196.032 252.036C195.791 252.476 195.427 252.817 194.94 253.058C194.458 253.299 193.849 253.42 193.112 253.42H190.567V252.201H192.979C193.449 252.201 193.827 252.133 194.115 251.998C194.407 251.863 194.619 251.67 194.75 251.42C194.885 251.171 194.953 250.868 194.953 250.513C194.953 250.153 194.885 249.844 194.75 249.586C194.615 249.324 194.401 249.123 194.109 248.983C193.821 248.839 193.442 248.767 192.973 248.767H191.176V257H189.748ZM195.131 257L192.839 252.728H194.42L196.756 257H195.131ZM197.594 257V247.542H199.022V255.775H203.307V257H197.594ZM202.958 247.542H204.576L207.052 251.846H207.153L209.616 247.542H211.248L207.813 253.287V257H206.385V253.287L202.958 247.542ZM218.884 257.127C218.071 257.127 217.343 256.932 216.7 256.543C216.057 256.154 215.551 255.597 215.183 254.874C214.815 254.146 214.631 253.28 214.631 252.277C214.631 251.266 214.815 250.398 215.183 249.675C215.556 248.947 216.061 248.388 216.7 247.999C217.343 247.61 218.071 247.415 218.884 247.415C219.383 247.415 219.851 247.487 220.287 247.631C220.727 247.775 221.12 247.984 221.467 248.259C221.814 248.534 222.1 248.871 222.324 249.269C222.553 249.666 222.705 250.117 222.781 250.621H221.347C221.292 250.312 221.188 250.041 221.036 249.808C220.888 249.571 220.703 249.372 220.483 249.211C220.268 249.046 220.024 248.924 219.753 248.843C219.487 248.759 219.203 248.716 218.903 248.716C218.361 248.716 217.872 248.854 217.437 249.129C217.005 249.4 216.664 249.802 216.415 250.335C216.169 250.864 216.046 251.511 216.046 252.277C216.046 253.048 216.171 253.697 216.421 254.226C216.671 254.751 217.011 255.149 217.443 255.419C217.875 255.69 218.359 255.826 218.896 255.826C219.197 255.826 219.48 255.785 219.747 255.705C220.014 255.625 220.257 255.504 220.477 255.343C220.697 255.182 220.881 254.988 221.029 254.759C221.182 254.527 221.287 254.258 221.347 253.953H222.781C222.709 254.423 222.563 254.852 222.343 255.242C222.123 255.627 221.842 255.961 221.499 256.245C221.156 256.524 220.765 256.742 220.325 256.898C219.885 257.051 219.404 257.127 218.884 257.127ZM227.91 257.127C227.098 257.127 226.37 256.932 225.727 256.543C225.083 256.154 224.576 255.597 224.203 254.874C223.831 254.146 223.645 253.28 223.645 252.277C223.645 251.266 223.831 250.398 224.203 249.675C224.576 248.947 225.083 248.388 225.727 247.999C226.37 247.61 227.098 247.415 227.91 247.415C228.731 247.415 229.461 247.61 230.1 247.999C230.739 248.388 231.243 248.947 231.611 249.675C231.983 250.398 232.169 251.266 232.169 252.277C232.169 253.285 231.983 254.15 231.611 254.874C231.243 255.597 230.739 256.154 230.1 256.543C229.461 256.932 228.731 257.127 227.91 257.127ZM227.91 255.826C228.456 255.826 228.943 255.69 229.37 255.419C229.798 255.149 230.134 254.749 230.379 254.22C230.629 253.691 230.754 253.043 230.754 252.277C230.754 251.507 230.629 250.858 230.379 250.329C230.134 249.795 229.798 249.393 229.37 249.123C228.943 248.852 228.456 248.716 227.91 248.716C227.368 248.716 226.882 248.852 226.45 249.123C226.023 249.393 225.684 249.795 225.435 250.329C225.185 250.858 225.06 251.507 225.06 252.277C225.06 253.043 225.185 253.691 225.435 254.22C225.684 254.749 226.023 255.149 226.45 255.419C226.882 255.69 227.368 255.826 227.91 255.826ZM236.562 257.152C235.855 257.152 235.242 257.042 234.721 256.822C234.205 256.598 233.801 256.278 233.509 255.864C233.217 255.449 233.054 254.956 233.02 254.385H234.455C234.484 254.728 234.594 255.013 234.785 255.242C234.979 255.466 235.231 255.633 235.54 255.743C235.849 255.853 236.188 255.908 236.556 255.908C236.958 255.908 237.317 255.845 237.635 255.718C237.952 255.591 238.2 255.413 238.377 255.185C238.559 254.952 238.65 254.681 238.65 254.372C238.65 254.093 238.57 253.864 238.409 253.687C238.253 253.509 238.039 253.363 237.768 253.249C237.497 253.13 237.193 253.026 236.854 252.938L235.743 252.633C234.981 252.43 234.381 252.127 233.94 251.725C233.5 251.319 233.28 250.788 233.28 250.132C233.28 249.586 233.426 249.11 233.718 248.704C234.014 248.297 234.414 247.982 234.918 247.758C235.426 247.529 235.995 247.415 236.625 247.415C237.269 247.415 237.834 247.529 238.32 247.758C238.811 247.982 239.198 248.291 239.482 248.685C239.77 249.074 239.92 249.52 239.933 250.024H238.549C238.498 249.588 238.295 249.25 237.939 249.008C237.588 248.767 237.14 248.646 236.594 248.646C236.213 248.646 235.879 248.708 235.591 248.831C235.307 248.949 235.087 249.114 234.931 249.326C234.778 249.537 234.702 249.781 234.702 250.056C234.702 250.352 234.793 250.593 234.975 250.779C235.161 250.965 235.386 251.114 235.648 251.224C235.915 251.329 236.171 251.416 236.416 251.484L237.336 251.731C237.637 251.808 237.946 251.909 238.263 252.036C238.581 252.163 238.875 252.33 239.146 252.538C239.421 252.741 239.641 252.995 239.806 253.299C239.975 253.6 240.06 253.964 240.06 254.391C240.06 254.92 239.922 255.394 239.647 255.813C239.372 256.228 238.974 256.556 238.454 256.797C237.933 257.034 237.303 257.152 236.562 257.152ZM240.745 248.767V247.542H248.07V248.767H245.125V257H243.703V248.767H240.745Z" fill="#818181"/>
<path d="M25.7671 175.708H24.542V168.383H25.7671V171.328H34V172.75H25.7671V175.708ZM24.542 165.901H34V167.329H24.542V165.901ZM24.542 164.371V162.632L31.8926 159.623V159.515L24.542 156.5V154.735H34V156.132H27.1572V156.221L33.9873 159.02V160.15L27.1509 162.917V163.006H34V164.371H24.542ZM34 153.212H24.542V147.277H25.7671V151.784H28.6172V147.594H29.8359V151.784H32.7749V147.232H34V153.212ZM34.1523 139.863C34.1523 140.569 34.0423 141.183 33.8223 141.704C33.598 142.22 33.2785 142.624 32.8638 142.916C32.4491 143.208 31.9561 143.371 31.3848 143.405V141.97C31.7275 141.941 32.0132 141.831 32.2417 141.64C32.466 141.445 32.6331 141.194 32.7432 140.885C32.8532 140.576 32.9082 140.237 32.9082 139.869C32.9082 139.467 32.8447 139.107 32.7178 138.79C32.5908 138.473 32.4131 138.225 32.1846 138.047C31.9518 137.865 31.681 137.774 31.3721 137.774C31.0928 137.774 30.8643 137.855 30.6865 138.016C30.5088 138.172 30.3628 138.386 30.2485 138.657C30.13 138.928 30.0264 139.232 29.9375 139.571L29.6328 140.682C29.4297 141.443 29.1271 142.044 28.7251 142.484C28.3188 142.924 27.7878 143.145 27.1318 143.145C26.5859 143.145 26.1099 142.999 25.7036 142.707C25.2974 142.41 24.9821 142.01 24.7578 141.507C24.5293 140.999 24.415 140.43 24.415 139.799C24.415 139.156 24.5293 138.591 24.7578 138.104C24.9821 137.614 25.291 137.226 25.6846 136.943C26.0739 136.655 26.5203 136.505 27.0239 136.492V137.876C26.5881 137.927 26.2495 138.13 26.0083 138.485C25.7671 138.837 25.6465 139.285 25.6465 139.831C25.6465 140.212 25.7078 140.546 25.8306 140.834C25.9491 141.118 26.1141 141.338 26.3257 141.494C26.5373 141.646 26.7806 141.723 27.0557 141.723C27.3519 141.723 27.5931 141.632 27.7793 141.45C27.9655 141.264 28.1136 141.039 28.2236 140.777C28.3294 140.51 28.4162 140.254 28.4839 140.009L28.7314 139.088C28.8076 138.788 28.9092 138.479 29.0361 138.162C29.1631 137.844 29.3302 137.55 29.5376 137.279C29.7407 137.004 29.9946 136.784 30.2993 136.619C30.5998 136.45 30.9637 136.365 31.3911 136.365C31.9201 136.365 32.394 136.503 32.813 136.778C33.2277 137.053 33.5557 137.451 33.7969 137.971C34.0339 138.492 34.1523 139.122 34.1523 139.863ZM34 134.48V135.997L24.542 132.595V130.944L34 127.548V129.059L26.2622 131.738V131.814L34 134.48ZM30.2993 134.226V129.319H31.4927V134.226H30.2993ZM24.542 126.901L32.2417 124.267V124.165L24.542 121.531V119.995L34 123.391V125.041L24.542 128.443V126.901ZM34 119.188H24.542V113.253H25.7671V117.76H28.6172L28.6172 113.571H29.8359L29.8359 117.76H32.7749L32.7749 113.209H34L34 119.188ZM34 108.835V111.171H32.7495V108.918C32.7495 108.199 32.6162 107.6 32.3496 107.122C32.0788 106.643 31.6831 106.286 31.1626 106.049C30.6379 105.812 30.0031 105.693 29.2583 105.693C28.5177 105.693 27.8893 105.812 27.373 106.049C26.8568 106.282 26.4653 106.631 26.1987 107.096C25.9279 107.562 25.7925 108.139 25.7925 108.829L25.7925 111.222H24.542L24.542 108.74C24.542 107.813 24.7303 107.018 25.1069 106.354C25.4836 105.689 26.0252 105.179 26.7319 104.824C27.4344 104.468 28.2765 104.291 29.2583 104.291C30.2443 104.291 31.0907 104.47 31.7974 104.83C32.5041 105.186 33.0479 105.702 33.4287 106.379C33.8096 107.056 34 107.875 34 108.835ZM24.542 110.473H34V111.901H24.542V110.473Z" fill="#818181"/>
</g>
<defs>
<filter id="filter0_dd_6030_2447" x="0" y="0" width="346.9" height="286.9" filterUnits="userSpaceOnUse" color-interpolation-filters="sRGB">
<feFlood flood-opacity="0" result="BackgroundImageFix"/>
<feColorMatrix in="SourceAlpha" type="matrix" values="0 0 0 0 0 0 0 0 0 0 0 0 0 0 0 0 0 0 127 0" result="hardAlpha"/>
<feOffset dx="3" dy="4"/>
<feGaussianBlur stdDeviation="5.45"/>
<feComposite in2="hardAlpha" operator="out"/>
<feColorMatrix type="matrix" values="0 0 0 0 0.706731 0 0 0 0 0.706731 0 0 0 0 0.706731 0 0 0 0.65 0"/>
<feBlend mode="normal" in2="BackgroundImageFix" result="effect1_dropShadow_6030_2447"/>
<feColorMatrix in="SourceAlpha" type="matrix" values="0 0 0 0 0 0 0 0 0 0 0 0 0 0 0 0 0 0 127 0" result="hardAlpha"/>
<feOffset dx="-4" dy="-2"/>
<feGaussianBlur stdDeviation="3"/>
<feComposite in2="hardAlpha" operator="out"/>
<feColorMatrix type="matrix" values="0 0 0 0 1 0 0 0 0 1 0 0 0 0 1 0 0 0 1 0"/>
<feBlend mode="normal" in2="effect1_dropShadow_6030_2447" result="effect2_dropShadow_6030_2447"/>
<feBlend mode="normal" in="SourceGraphic" in2="effect2_dropShadow_6030_2447" result="shape"/>
</filter>
<filter id="filter1_f_6030_2447" x="-177.497" y="-64.1956" width="574.208" height="518.451" filterUnits="userSpaceOnUse" color-interpolation-filters="sRGB">
<feFlood flood-opacity="0" result="BackgroundImageFix"/>
<feBlend mode="normal" in="SourceGraphic" in2="BackgroundImageFix" result="shape"/>
<feGaussianBlur stdDeviation="72.75" result="effect1_foregroundBlur_6030_2447"/>
</filter>
<filter id="filter2_f_6030_2447" x="-48.6104" y="-115.817" width="559.842" height="567.056" filterUnits="userSpaceOnUse" color-interpolation-filters="sRGB">
<feFlood flood-opacity="0" result="BackgroundImageFix"/>
<feBlend mode="normal" in="SourceGraphic" in2="BackgroundImageFix" result="shape"/>
<feGaussianBlur stdDeviation="72.75" result="effect1_foregroundBlur_6030_2447"/>
</filter>
<filter id="filter3_f_6030_2447" x="42.6375" y="-185.599" width="565.818" height="556.763" filterUnits="userSpaceOnUse" color-interpolation-filters="sRGB">
<feFlood flood-opacity="0" result="BackgroundImageFix"/>
<feBlend mode="normal" in="SourceGraphic" in2="BackgroundImageFix" result="shape"/>
<feGaussianBlur stdDeviation="72.75" result="effect1_foregroundBlur_6030_2447"/>
</filter>
<clipPath id="clip0_6030_2447">
<rect x="40" y="38" width="263" height="204" rx="10" fill="white"/>
</clipPath>
</defs>
</svg>
