<svg width="120" height="120" viewBox="0 0 120 120" fill="none" xmlns="http://www.w3.org/2000/svg">
<g clip-path="url(#clip0_4042_5271)">
<path d="M62.2209 27.7304C47.4907 36.3324 35.0094 43.6975 34.5596 44.0911C33.7725 44.7658 33.66 48.2515 33.66 74.7884C33.66 108.466 33.154 104.98 38.3265 107.96L40.9689 109.478L67.562 94.1851C82.1236 85.7518 94.6611 78.3304 95.392 77.712L96.6289 76.5875V46.9584C96.6289 24.1322 96.4603 17.1607 95.9543 16.486C95.3358 15.8113 89.6011 12.0444 89.1514 12.1007C89.0951 12.1007 76.9511 19.1847 62.2209 27.7304ZM94.8298 21.4898L94.6611 25.2004L67.9556 40.6053L41.25 55.954L41.0814 52.5244C40.9689 50.6129 41.1376 48.8138 41.3625 48.5889C42.0371 47.9142 93.9865 17.8353 94.5487 17.7791C94.7736 17.7229 94.9423 19.4095 94.8298 21.4898ZM83.8665 19.3533C84.766 19.9155 85.4969 20.5902 85.4969 20.8151C85.4969 21.04 75.5456 26.9995 63.4016 34.0273L41.3063 46.7898L39.4509 45.6653C38.4389 45.1031 37.5956 44.4284 37.5956 44.2598C37.5956 43.81 80.8867 18.4538 81.73 18.3413C82.0674 18.3413 83.0231 18.7911 83.8665 19.3533ZM94.7174 75.9129C94.4925 76.7 86.5651 81.5351 68.1243 92.1611C53.6751 100.482 41.6436 107.397 41.4187 107.51C41.1376 107.622 40.9689 96.4902 40.9689 82.772V57.7531L67.8431 42.292L94.6611 26.8309L94.8298 50.8378C94.886 63.9938 94.8298 75.2944 94.7174 75.9129ZM39.2823 79.9609V102L37.3145 100.876L35.3467 99.6949V77.5433V55.3918L37.3145 56.6287L39.2823 57.9218V79.9609Z" fill="black"/>
<path d="M50.8639 46.1717C50.6391 46.6777 50.6391 47.2399 50.8077 47.4086C51.2013 47.8584 52.7755 46.3404 52.4382 45.7781C51.9884 44.991 51.2575 45.1597 50.8639 46.1717Z" fill="black"/>
<path d="M47.2105 48.3075C46.7607 48.8697 46.7045 49.207 47.1543 49.4881C47.8852 49.9379 48.841 49.3195 48.841 48.3075C48.841 47.2955 48.0538 47.2955 47.2105 48.3075Z" fill="black"/>
<path d="M43.3863 50.6139C43.2176 51.1199 43.2176 51.6259 43.3863 51.7945C43.8923 52.3005 44.9043 51.4572 44.9043 50.5576C44.9043 49.4894 43.836 49.5456 43.3863 50.6139Z" fill="black"/>
<path d="M87.746 34.9255C86.4529 35.7126 85.4971 36.5559 85.6658 36.837C85.8345 37.1744 87.0151 36.7246 88.1958 35.9937L90.4447 34.5882V36.837C90.4447 38.0739 90.7258 39.0859 91.0069 39.0859C91.3442 39.0859 91.5691 37.7928 91.5691 36.2748C91.5691 33.0139 91.1756 32.8453 87.746 34.9255Z" fill="black"/>
<path d="M90.4434 42.4608C90.4434 43.0792 90.7245 43.5852 91.0056 43.5852C91.3429 43.5852 91.5678 43.0792 91.5678 42.4608C91.5678 41.8423 91.3429 41.3363 91.0056 41.3363C90.7245 41.3363 90.4434 41.8423 90.4434 42.4608Z" fill="black"/>
<path d="M73.8578 48.5894C60.6455 52.019 47.7144 68.9981 45.2406 86.1459C45.072 87.439 45.1282 88.6197 45.3531 88.7883C45.6342 88.957 47.3209 88.1137 49.1762 86.933C52.4371 84.8528 52.4933 84.7965 53.2242 81.1983C55.8104 68.4921 68.4042 55.6172 76.5002 57.3601C79.1426 57.9785 81.9538 60.7897 82.6284 63.6008C82.9658 65.0063 83.4155 66.187 83.6404 66.2994C83.8091 66.4119 85.4958 65.5685 87.3511 64.4441C91.0055 62.1952 91.0055 62.139 89.8249 57.5288C89.094 54.6614 86.1142 50.9508 83.4718 49.6014C81.1104 48.3645 76.5564 47.8585 73.8578 48.5894ZM65.8742 59.5528C63.1193 61.4643 58.3404 66.7492 56.5975 69.8414C54.9109 72.8774 53.9551 73.3272 51.4813 72.3714C50.638 71.9779 50.8066 71.4719 53.1118 67.7612C56.4289 62.3639 60.0271 58.1472 63.9626 55.055L67.1111 52.5812L67.2798 55.5048C67.4484 58.2034 67.336 58.5408 65.8742 59.5528ZM87.9133 56.067C89.9935 60.5085 89.8249 61.7454 86.8451 63.4883C83.9215 65.175 83.6966 65.2312 83.6966 64.1068C83.6966 63.6008 83.1906 62.1952 82.5722 61.0145L81.4478 58.7657L83.528 55.9545C84.6524 54.4365 85.8331 53.1434 86.1142 53.1434C86.3391 53.1434 87.1824 54.4928 87.9133 56.067Z" fill="black"/>
<path d="M72.0045 64.6695C70.7114 66.6935 69.0809 68.5489 68.4063 68.83C65.5952 69.8982 62.8965 74.2835 62.8965 77.8255C62.8965 83.7851 69.3058 82.9417 72.398 76.5886C73.6349 74.0586 73.916 71.4162 73.0727 70.0669C72.7354 69.5609 73.0727 67.9866 73.916 65.6815C74.6469 63.7137 75.2654 61.8584 75.2654 61.5773C75.2654 60.228 74.1972 61.2962 72.0045 64.6695ZM66.7758 73.1591C65.5952 75.6329 65.82 77.3195 67.3943 77.3195C68.6312 77.3195 69.868 75.8577 70.8238 73.2153C71.6672 70.854 72.4543 70.4604 72.4543 72.4844C72.4543 77.7131 65.9325 83.1666 64.0209 79.5684C63.1776 78.0504 64.1896 74.5084 66.1012 72.2595C67.9565 70.0106 68.1814 70.348 66.7758 73.1591Z" fill="black"/>
<path d="M48.5604 96.49C44.0626 99.1324 44.0626 99.1324 44.5124 99.5822C44.906 99.9758 53.3393 95.2531 53.3393 94.6347C53.3393 93.8475 52.6084 94.1287 48.5604 96.49Z" fill="black"/>
<path d="M54.7435 15.4732C54.5748 15.7543 54.7997 16.0354 55.2495 16.0354C55.7555 16.0354 56.1491 15.7543 56.1491 15.4732C56.1491 15.1358 55.9242 14.911 55.6431 14.911C55.3057 14.911 54.9122 15.1358 54.7435 15.4732Z" fill="black"/>
<path d="M25.1146 18.7903C17.1872 23.4568 17.9181 22.1074 17.9181 32.3961C17.9181 38.4119 18.143 41.3354 18.5366 41.3354C18.8739 41.3354 20.6168 40.4359 22.4721 39.3677L25.7892 37.4561V38.8054C25.7892 39.5926 26.0703 40.211 26.4077 40.211C26.6888 40.211 29.3874 38.8054 32.311 37.0626L37.5959 33.9703V26.6614C37.5959 18.7341 37.4834 18.5654 34.5037 20.5332C33.6041 21.1517 32.6483 21.6577 32.4234 21.6577C32.1423 21.6577 31.9737 20.2521 31.9737 18.5654C31.9737 16.429 31.7488 15.4732 31.299 15.5294C30.9054 15.5294 28.1506 16.9912 25.1146 18.7903ZM30.8492 19.9148C30.8492 22.6134 30.793 22.7259 28.3192 24.1314C26.239 25.3683 25.7892 25.9306 25.7892 27.3361C25.7892 28.573 25.4519 29.1352 24.3837 29.6412C23.0906 30.2034 22.9781 30.5408 22.9781 34.0828C22.9781 37.7934 22.9219 37.9621 21.2914 38.8054C20.3919 39.2552 19.5486 39.6488 19.3237 39.6488C19.155 39.6488 19.0426 36.0506 19.0426 31.609L19.0988 23.6254L24.5523 20.477C27.5321 18.7341 30.1746 17.2723 30.4557 17.2161C30.6806 17.1599 30.8492 18.3968 30.8492 19.9148ZM36.359 27.3923L36.1903 33.6892L31.9737 36.1068C29.6686 37.4561 27.6446 38.5243 27.4759 38.5243C27.3072 38.5243 27.251 35.7132 27.3072 32.2837L27.4197 25.9868L31.5239 23.5692C33.7728 22.2199 35.853 21.1517 36.0779 21.0954C36.3028 21.0954 36.4152 23.9066 36.359 27.3923Z" fill="black"/>
<path d="M51.6523 17.1597C51.6523 17.4408 52.0459 17.7219 52.4957 17.7219C52.9455 17.7219 53.339 17.4408 53.339 17.1597C53.339 16.8224 52.9455 16.5975 52.4957 16.5975C52.0459 16.5975 51.6523 16.8224 51.6523 17.1597Z" fill="black"/>
<path d="M55.3077 17.6663C54.9704 18.2847 55.8137 18.9594 56.3759 18.4534C56.8819 17.9474 56.7695 17.1603 56.2073 17.1603C55.8699 17.1603 55.5326 17.3851 55.3077 17.6663Z" fill="black"/>
<path d="M48.8398 18.8462C48.8398 19.1273 49.121 19.4084 49.4021 19.4084C49.7394 19.4084 49.9643 19.1273 49.9643 18.8462C49.9643 18.5089 49.7394 18.284 49.4021 18.284C49.121 18.284 48.8398 18.5089 48.8398 18.8462Z" fill="black"/>
<path d="M45.7494 20.533C45.5807 20.8141 45.8056 21.0952 46.2554 21.0952C46.7614 21.0952 47.1549 20.8141 47.1549 20.533C47.1549 20.1957 46.93 19.9708 46.6489 19.9708C46.3116 19.9708 45.918 20.1957 45.7494 20.533Z" fill="black"/>
<path d="M55.3077 21.0393C54.9704 21.6577 55.8137 22.3324 56.3759 21.8264C56.8819 21.3204 56.7695 20.5333 56.2073 20.5333C55.8699 20.5333 55.5326 20.7582 55.3077 21.0393Z" fill="black"/>
<path d="M42.7678 22.2774C42.8802 22.6147 43.2175 22.8396 43.4987 22.8396C43.7798 22.8396 44.1171 22.6147 44.2295 22.2774C44.342 21.94 44.0047 21.6589 43.4987 21.6589C42.9926 21.6589 42.6553 21.94 42.7678 22.2774Z" fill="black"/>
<path d="M39.9571 23.8507C40.1819 24.5816 40.9691 24.7503 41.0253 24.0756C41.0253 23.8507 40.7442 23.5696 40.4068 23.4009C40.0133 23.2885 39.7884 23.5134 39.9571 23.8507Z" fill="black"/>
<path d="M55.3077 24.4143C54.9704 25.0327 55.8137 25.7074 56.3759 25.2014C56.8819 24.6954 56.7695 23.9083 56.2073 23.9083C55.8699 23.9083 55.5326 24.1332 55.3077 24.4143Z" fill="black"/>
</g>
<defs>
<clipPath id="clip0_4042_5271">
<rect width="120" height="120" fill="white"/>
</clipPath>
</defs>
</svg>
