<svg width="120" height="120" viewBox="0 0 120 120" fill="none" xmlns="http://www.w3.org/2000/svg">
<path d="M42.8133 24.16C29.2597 32.0419 22.8368 36.01 21.857 37.2602L20.4962 39.0541L20.3329 68.0812C20.224 87.8674 20.3873 97.4344 20.7684 98.1411C21.095 98.739 23.5444 100.315 26.2115 101.674C30.1306 103.631 31.3281 104.012 32.3623 103.631C33.07 103.359 40.0917 99.4456 47.8754 94.9339C55.7136 90.4222 62.2454 86.7259 62.4631 86.7259C62.6809 86.7259 64.4227 87.4869 66.3278 88.4654C69.7026 90.0961 69.9747 90.1505 72.8596 89.5525C76.3977 88.8459 80.3168 86.4541 83.0384 83.4101L84.9979 81.2901L91.7475 85.6387C95.5577 88.0849 99.1502 89.9874 99.9122 89.9874C102.852 89.9874 106.88 84.2254 105.954 81.2901C105.736 80.5835 102.797 78.3004 98.4426 75.4738C94.4691 72.919 91.2031 70.799 91.1487 70.7447C91.0398 70.6903 91.2576 69.7663 91.5842 68.7335C92.5095 65.5807 92.2918 59.3295 91.0943 56.7204C89.8424 53.8938 89.1892 53.2958 83.9093 50.2518C80.5345 48.2949 79.337 47.9144 76.9964 47.9144H74.1116V33.8357C74.1116 25.1384 73.8938 19.3765 73.5672 18.7242C73.0229 17.8001 63.9328 12.7449 62.8442 12.7992C62.572 12.8536 53.5908 17.9088 42.8133 24.16ZM66.2189 15.8976C67.8519 16.713 69.2127 17.5283 69.2127 17.6914C69.2127 17.8545 60.9935 22.6923 50.978 28.4543L32.7978 38.9453L29.423 37.2602L26.1027 35.5751L37.4245 28.9978C43.6842 25.3559 51.8489 20.6267 55.6047 18.4524C59.3605 16.2238 62.572 14.4299 62.7897 14.4299C63.0075 14.4299 64.5316 15.0822 66.2189 15.8976ZM72.4786 33.9444L72.7508 48.7841L70.6279 49.8713C63.9872 53.2415 57.5643 63.0259 56.1491 71.7775C55.2781 77.1589 56.1491 80.9096 58.9795 83.6819C60.558 85.2582 60.9391 85.9649 60.3947 86.291C51.6856 91.5638 31.4914 102.544 30.8383 102.272C30.1306 102 30.0218 98.3585 30.0218 73.0277C30.0218 45.3052 30.0762 44.0006 31.056 42.4786C31.818 41.3371 37.8055 37.5864 51.3591 29.8132C61.9188 23.7251 70.9545 18.8329 71.39 18.8873C72.0976 19.0504 72.2609 21.279 72.4786 33.9444ZM25.3951 44.7073L28.3888 46.1749L28.4977 73.5169C28.6065 91.5094 28.4977 100.859 28.1167 100.859C27.8445 100.859 26.3748 100.152 24.8508 99.3369L22.1292 97.8693L21.9659 70.5273C21.9114 55.5245 21.9659 43.2396 22.1292 43.2396C22.238 43.2396 23.7077 43.8919 25.3951 44.7073ZM72.8052 56.9378C65.7835 63.1889 60.7758 75.5282 62.6264 82.1055C63.3341 84.7147 63.0619 85.0408 61.1568 83.8993C55.768 80.6922 55.9858 70.3098 61.5922 60.9603C62.6264 59.2208 65.0214 56.3399 66.9266 54.6004L70.3558 51.3933L73.0229 52.861L75.6901 54.3286L72.8052 56.9378ZM86.3587 53.785C93.707 56.8834 91.4753 72.158 82.2219 82.0511C73.2406 91.6725 63.8239 90.0417 63.7695 78.7897C63.7695 69.114 71.6621 56.8834 79.8813 53.8938C82.6574 52.861 84.0726 52.861 86.3587 53.785ZM101.817 79.442C102.362 79.9312 99.9667 84.6603 98.5514 85.8562L96.9185 87.2151L91.7475 83.7906C88.8626 81.9424 86.522 80.1486 86.5764 79.8768C86.6309 79.605 87.5018 77.7569 88.536 75.7456L90.4955 72.1036L96.0476 75.6913C99.0958 77.6481 101.708 79.3332 101.817 79.442Z" fill="black"/>
<path d="M63.8799 35.4676C61.1583 37.0984 58.9811 38.6747 59.1444 38.8922C59.4165 39.3814 69.5408 33.6738 69.3775 33.1302C69.2143 32.4236 68.7244 32.641 63.8799 35.4676Z" fill="black"/>
<path d="M43.902 47.0444C36.1183 51.6105 33.2878 53.5674 34.5398 53.5674C34.9208 53.5674 53.6453 42.6958 54.2441 42.0979C55.9315 40.4671 52.0124 42.3153 43.902 47.0444Z" fill="black"/>
<path d="M58.5989 47.9148C53.2102 51.0132 47.4404 54.3834 45.8074 55.3075C44.1745 56.2316 43.0858 57.1013 43.4669 57.21C44.1745 57.4818 69.2131 43.2401 69.2131 42.5878C69.2131 41.7724 68.3966 42.2073 58.5989 47.9148Z" fill="black"/>
<path d="M46.8951 63.9487C40.7443 67.5363 35.3555 70.6891 34.9201 70.9609C34.4846 71.2327 34.2669 71.5588 34.4302 71.7762C34.6479 71.9393 40.2 69.004 46.8406 65.1446C57.4004 59.0565 60.0131 57.317 58.4891 57.3714C58.2169 57.4258 53.0459 60.3611 46.8951 63.9487Z" fill="black"/>
<path d="M37.0976 60.4167C34.2672 62.0474 34.1039 62.1561 34.4849 62.591C34.8659 62.9171 40.3636 59.9818 40.3636 59.3839C40.3636 58.7316 39.6559 58.949 37.0976 60.4167Z" fill="black"/>
<path d="M42.8102 75.6373C33.5568 80.9643 34.1011 80.6382 34.5366 81.0731C34.9176 81.4536 51.737 71.9953 51.7915 71.343C51.7915 70.582 50.8661 71.0168 42.8102 75.6373Z" fill="black"/>
<path d="M42.8692 84.9864C38.4058 87.5956 34.65 90.0417 34.4867 90.4222C34.3779 90.8571 35.3577 90.5309 36.9362 89.6068C49.2378 82.5403 51.7961 80.9639 51.7961 80.5834C51.7961 79.8224 50.9796 80.2573 42.8692 84.9864Z" fill="black"/>
<path d="M80.0979 60.633C77.1042 62.5899 76.832 62.6443 76.832 60.8505C76.832 60.0895 76.6143 59.6002 76.2877 59.8177C76.0155 59.9807 75.7434 60.7961 75.7434 61.6115C75.7434 62.8073 75.199 63.4053 72.7496 64.8729C71.1167 65.8514 69.7559 66.9385 69.7559 67.2647C69.7559 67.5365 70.8445 67.156 72.2053 66.395C73.5661 65.634 75.7978 64.3294 77.1586 63.514L79.6625 62.1007L79.2814 63.4053C79.0637 64.1119 78.4105 65.797 77.8118 67.156L76.7231 69.6021L75.8522 67.8083C74.9269 65.9057 74.1104 65.5252 74.1104 66.9929C74.1104 67.4821 75.0902 68.8411 76.3421 69.9826L78.5194 72.0482L77.7573 74.7661C76.8864 77.647 77.594 78.6255 78.5194 75.8532C78.9004 74.8204 79.9346 73.7876 81.5131 72.9179L83.9626 71.559L84.5613 72.8636C85.1056 74.0594 86.0854 74.7117 86.0854 73.9507C86.0854 73.3528 82.2752 66.1232 81.7853 65.8514C81.1321 65.4165 80.0979 66.7211 79.608 68.5693C79.3903 69.3846 78.9004 70.2 78.465 70.3087C77.7029 70.5805 77.7029 70.5805 79.6625 64.9817C80.3701 63.0248 81.1865 61.2853 81.4587 61.0679C81.7853 60.8505 82.4929 60.3069 83.0917 59.872C85.1056 58.35 82.7106 58.9479 80.0979 60.633ZM83.3638 70.4718C83.3638 70.7436 82.3296 71.3415 79.9346 72.483C79.4992 72.7005 79.8802 70.5805 80.7511 68.2975L81.241 66.9385L82.2752 68.5693C82.8739 69.439 83.3638 70.3087 83.3638 70.4718Z" fill="black"/>
<path d="M72.9145 74.6021C71.8259 76.0154 71.0638 77.32 71.2271 77.4831C71.5537 77.7549 75.745 73.1345 75.745 72.4278C75.745 71.4494 74.7652 72.2104 72.9145 74.6021Z" fill="black"/>
</svg>
