<svg width="80" height="80" viewBox="0 0 80 80" fill="none" xmlns="http://www.w3.org/2000/svg">
<path d="M21.9718 7.02355C16.1958 10.0319 16.3763 10.9945 25.1606 26.2768L29.3723 33.6171L27.9884 34.5196C27.2063 35.0611 26.4843 36.1441 26.364 37.0465C26.2436 38.3702 25.1005 39.2727 19.6855 42.4013C16.0755 44.447 12.5859 46.6732 11.924 47.3952C9.27672 49.9823 11.0215 57.1421 15.173 61.1732C18.061 63.8807 36.8931 74.5903 38.8786 74.5903C40.5632 74.5903 61.6816 62.6172 63.0654 60.8724C64.0882 59.5488 63.9679 55.1566 62.8849 52.5093C61.3206 48.8391 59.2749 46.613 54.8828 44.0258L50.7313 41.559L50.3102 36.9864C49.8288 31.5112 49.167 29.7063 47.0612 27.4801C45.3163 25.6751 44.0529 25.4344 41.586 26.6979C39.9615 27.6004 39.9014 27.6004 37.9761 24.2311C36.9532 22.366 36.2312 20.7415 36.3516 20.561C36.5321 20.4406 39.3599 20.8016 42.669 21.3431C48.2043 22.366 48.806 22.366 50.1898 21.4635C51.6338 20.5008 51.694 20.5008 53.4388 23.6295C57.4098 30.7291 62.5841 32.9552 66.8559 29.5258C69.0219 27.7809 67.9389 25.3743 64.1484 23.449C61.0799 21.8846 58.6733 18.5755 59.0944 16.4095C59.2148 15.5672 59.6961 15.8078 61.5011 17.6128C62.7646 18.8162 63.9679 19.839 64.2086 19.839C64.5094 19.839 65.7127 19.117 66.9762 18.2747C68.8414 17.0713 69.2024 16.5298 68.8414 15.4468C67.6982 11.8369 62.6442 7.80572 59.2749 7.80572C58.3123 7.80572 56.4471 8.46754 55.0031 9.30988C52.9575 10.5132 52.1151 10.6937 51.0321 10.2725C49.528 9.6107 26.9656 5.94056 24.9801 6.00072C24.3183 6.06089 22.9946 6.48206 21.9718 7.02355ZM36.1109 8.70821C41.225 9.55054 46.3993 10.3327 47.5425 10.5734L49.6483 10.9344L48.084 11.7767C46.7002 12.4385 45.1358 12.3182 35.5694 10.814C29.5528 9.79121 23.8971 9.00904 22.9946 9.00904C21.4303 8.94888 21.4303 8.94888 22.5133 8.10654C24.0776 6.90322 25.281 6.96339 36.1109 8.70821ZM61.5613 9.24971C63.9679 10.2725 67.0966 13.5215 66.5551 14.3638C65.8932 15.3867 65.3517 15.146 62.6442 12.619C61.2604 11.2954 59.4554 10.0319 58.6131 9.85137C57.4699 9.55054 57.2894 9.30988 57.8911 8.94888C58.9741 8.22688 59.2749 8.28705 61.5613 9.24971ZM33.3433 11.4157C39.6607 12.4385 45.3163 13.4012 45.8578 13.5817C47.1815 13.9427 49.3475 17.4925 49.3475 19.1772C49.3475 19.8991 48.9865 20.6211 48.5052 20.8016C47.7832 21.1025 37.6151 19.7186 29.6731 18.2747C28.4698 18.034 27.6876 18.1543 27.6876 18.5153C27.6876 19.0568 32.1399 27.1191 35.6897 33.0154L36.9532 35.0611L35.0881 33.6772C33.8847 32.8349 32.6814 32.4137 31.7188 32.5942C30.3951 32.8349 29.7934 32.0527 24.8598 23.2083C19.2042 13.1605 18.3017 11.2352 18.9635 10.2124C19.505 9.30988 20.7083 9.43021 33.3433 11.4157ZM58.7334 11.175C60.9596 12.258 64.9907 16.5298 64.9907 17.8535C64.9907 19.0568 64.4492 18.8162 61.9223 16.5298C55.5446 10.7539 51.8143 18.1543 57.9513 24.4718C58.9741 25.5548 60.2376 26.4573 60.7791 26.4573C62.1629 26.4573 64.0281 28.6233 63.6069 29.7664C63.3061 30.4884 62.8849 30.5486 61.6214 30.0673C55.6048 27.7208 50.611 18.8763 52.3558 13.5817C53.4388 10.2124 55.2438 9.55054 58.7334 11.175ZM51.2728 15.507C51.2728 17.6128 51.1525 19.4178 51.0321 19.5983C50.8517 19.7186 50.4305 18.8162 50.0695 17.4925C49.6483 16.229 48.9263 14.785 48.3848 14.3638C47.5425 13.702 47.6027 13.4613 48.8662 12.4987C49.6483 11.9572 50.4907 11.536 50.7915 11.5962C51.0321 11.7165 51.2728 13.4613 51.2728 15.507ZM57.7708 16.5298C57.7708 18.1543 60.0571 22.0651 61.7418 23.3888C64.0281 25.1938 62.8849 26.3369 60.2376 25.0133C56.7479 23.2083 54.3413 15.6273 57.2894 15.6273C57.5301 15.6273 57.7708 16.0485 57.7708 16.5298ZM32.8619 19.839C33.8847 19.839 35.0881 21.5236 38.7582 28.0216C44.2334 37.7685 44.6545 39.0922 42.4885 40.476C40.5632 41.7395 40.3225 41.7395 40.3225 40.476C40.3225 39.4532 39.0591 37.0465 32.5611 25.6149C29.3121 19.839 29.0113 19.117 30.2146 19.478C30.9968 19.6585 32.2001 19.839 32.8619 19.839ZM66.0737 25.9759C67.0364 26.9386 66.9762 28.6834 66.0136 29.0444C64.9907 29.4054 63.0052 26.0361 63.9679 25.6149C65.1111 25.1938 65.2916 25.1938 66.0737 25.9759ZM45.3765 27.4199C47.4823 28.2021 48.6857 31.5112 49.4077 38.3702C50.0093 43.6648 50.0093 45.2893 49.4077 45.891C48.2645 47.0342 47.723 45.53 47.2417 40.3557C46.7002 33.9179 45.9782 31.5714 43.9325 29.5859C41.7665 27.4199 42.4885 26.3369 45.3765 27.4199ZM42.6089 29.8266C43.3309 30.3079 44.2334 31.3307 44.5944 32.0527C45.2562 33.1959 47.001 45.7105 46.5798 46.1918C46.5197 46.3122 45.196 45.6503 43.6317 44.7478L40.8039 43.1233L42.669 41.6794C45.196 39.6939 45.0757 37.588 42.3682 32.7146C40.2022 28.8038 40.2022 28.1419 42.6089 29.8266ZM35.8101 36.3246C36.3516 37.1067 37.1337 40.7769 37.6151 44.5673C38.3371 50.5238 38.3371 51.5466 37.6151 52.2686C37.1337 52.75 36.6524 53.0508 36.4719 52.8703C36.3516 52.75 35.8702 49.8018 35.5092 46.3122C35.0279 42.281 34.3661 39.2727 33.6441 38.0092C32.9823 36.866 32.6213 35.7229 32.8018 35.4221C33.4636 34.4594 34.8474 34.8806 35.8101 36.3246ZM31.9594 37.3474C32.9221 38.3702 33.7042 39.5134 33.7042 39.9345C33.7644 40.2955 34.0652 43.364 34.4864 46.7333C34.9076 50.1628 35.2084 52.9305 35.1482 52.9305C34.7872 52.9305 26.4843 47.9367 26.2436 47.6358C25.9428 47.0943 27.447 36.9262 27.9884 36.0839C28.6503 35.0009 30.1544 35.4221 31.9594 37.3474ZM39.1192 40.837C39.1192 43.5445 38.7582 43.0632 38.2769 39.6939C38.0362 37.8287 38.0964 37.2872 38.5176 37.8889C38.8184 38.3702 39.1192 39.6939 39.1192 40.837ZM25.5216 43.725C25.281 45.6503 25.1005 47.4553 25.0403 47.7562C25.0403 48.057 27.3868 49.6815 30.3951 51.4263C35.7499 54.5549 35.8101 54.5549 37.7354 53.6525C39.6607 52.75 39.7209 52.6296 39.3599 49.6815C39.1794 47.9968 38.9387 46.0113 38.7582 45.2893C38.6379 44.5673 38.6981 43.8453 38.9387 43.725C39.2395 43.5445 41.225 44.447 43.4512 45.7707C47.4222 48.1172 47.4222 48.1172 49.2873 47.0943C50.4907 46.3723 51.1525 45.53 51.1525 44.6275V43.2437L54.1608 44.9283C57.0488 46.5528 61.3206 50.2831 60.7189 50.7043C60.5986 50.8246 56.1463 53.4118 50.9118 56.4803L41.3454 62.0156L39.1794 59.9097C37.1939 57.9844 21.2498 48.3578 17.2788 46.613L15.5942 45.891L20.2872 43.1233C22.8743 41.6192 25.1606 40.3557 25.4615 40.3557C25.7021 40.2955 25.7021 41.8599 25.5216 43.725ZM26.0631 52.75C37.0134 59.0674 39.2997 60.8724 40.9844 64.6629C43.2105 69.4762 41.6462 74.6505 38.3371 73.6277C36.7126 73.1463 19.6855 63.5197 17.0382 61.5342C11.202 57.2624 9.75805 46.9138 14.9925 46.9138C15.4739 46.9138 20.4677 49.5611 26.0631 52.75ZM62.5239 54.9761C63.9077 59.3081 63.1256 60.1504 52.6566 66.2874C47.6628 69.1754 43.5114 71.582 43.3309 71.582C43.0902 71.582 43.0902 70.6795 43.2105 69.5965C43.3309 68.5135 42.9699 66.528 42.4284 65.2044C41.8869 63.9409 41.7064 62.7977 41.947 62.6774C42.1877 62.6172 46.5197 60.1504 51.4533 57.2023C56.4471 54.2541 60.7189 51.9076 61.0799 51.9678C61.3808 52.028 62.0426 53.4118 62.5239 54.9761Z" fill="black"/>
<path d="M21.0684 13.1009C21.0684 14.3644 22.1514 15.6279 23.2945 15.6279C24.2572 15.6279 24.3173 13.7026 23.3547 12.7399C22.2717 11.657 21.0684 11.8375 21.0684 13.1009Z" fill="black"/>
<path d="M29.1919 38.4906C28.7106 39.2126 30.4554 42.1006 31.2977 42.1006C31.6587 42.1006 31.8994 41.4388 31.8994 40.5964C31.8994 38.9719 29.8537 37.4076 29.1919 38.4906Z" fill="black"/>
<path d="M16.9779 53.0498C15.895 54.1327 16.0755 55.5767 17.5194 57.3817C18.9033 59.1266 19.9863 59.3672 21.0693 58.0436C22.0319 56.9004 20.8888 53.7717 19.2041 52.9294C17.8804 52.2074 17.8203 52.2074 16.9779 53.0498ZM20.2269 55.6971C20.8286 58.1037 19.6253 58.7054 18.1211 56.7801C16.8576 55.1556 16.5568 54.0124 17.2186 53.3506C17.9406 52.6286 19.8659 54.1327 20.2269 55.6971Z" fill="black"/>
<path d="M24.4387 58.0443C23.5963 60.3306 27.0258 64.422 28.7105 63.0381C29.8536 62.1356 29.6731 60.5713 28.2291 58.7062C26.8453 56.9613 24.9802 56.6605 24.4387 58.0443ZM27.6275 59.3078C29.1316 61.2331 29.1918 61.895 27.9283 62.3763C26.6648 62.8576 25.281 61.1128 25.281 59.1273C25.281 57.3223 26.1233 57.3825 27.6275 59.3078Z" fill="black"/>
<path d="M32.9223 62.3762C32.2003 63.0381 32.5011 65.2642 33.4638 66.648C34.7273 68.453 36.9534 68.2124 37.1941 66.287C37.6152 63.6397 34.4866 60.8119 32.9223 62.3762ZM35.7501 63.8804C36.9534 65.5651 37.0136 67.37 35.8704 67.37C34.7874 67.37 33.1028 65.0837 33.1028 63.6397C33.1028 62.1356 34.6671 62.3161 35.7501 63.8804Z" fill="black"/>
</svg>
