<svg width="80" height="80" viewBox="0 0 80 80" fill="none" xmlns="http://www.w3.org/2000/svg">
<g clip-path="url(#clip0_645_14042)">
<path d="M40.1212 18.3342C30.3822 24.0214 22.1301 28.8909 21.8327 29.1511C21.3123 29.5972 21.238 31.9018 21.238 49.4469C21.238 71.7127 20.9034 69.4081 24.3232 71.3782L26.0703 72.3818L43.6525 62.2711C53.28 56.6954 61.5693 51.7887 62.0525 51.3798L62.8703 50.6364V31.0469C62.8703 15.9552 62.7588 11.3459 62.4242 10.8998C62.0153 10.4538 58.2238 7.96325 57.9264 8.00042C57.8893 8.00042 49.8602 12.6841 40.1212 18.3342ZM61.6808 14.2081L61.5693 16.6614L43.9127 26.8465L26.2561 36.9944L26.1446 34.7269C26.0703 33.463 26.1818 32.2736 26.3305 32.1249C26.7765 31.6788 61.1232 11.7919 61.4949 11.7548C61.6436 11.7176 61.7551 12.8327 61.6808 14.2081ZM54.4323 12.7956C55.0271 13.1673 55.5103 13.6133 55.5103 13.762C55.5103 13.9107 48.9309 17.8509 40.9018 22.4974L26.2933 30.9354L25.0666 30.1919C24.3976 29.8202 23.84 29.3742 23.84 29.2626C23.84 28.9653 52.4622 12.2008 53.0198 12.1265C53.2428 12.1265 53.8747 12.4239 54.4323 12.7956ZM61.6064 50.1903C61.4578 50.7107 56.2165 53.9075 44.0242 60.9329C34.4711 66.4344 26.5163 71.0065 26.3677 71.0808C26.1818 71.1552 26.0703 63.7952 26.0703 54.7253V38.1839L43.8384 27.9616L61.5693 17.7394L61.6808 33.6117C61.718 42.3099 61.6808 49.7814 61.6064 50.1903ZM24.9551 52.8667V67.438L23.6541 66.6946L22.3531 65.914V51.2683V36.6226L23.6541 37.4404L24.9551 38.2954V52.8667Z" fill="black"/>
<path d="M32.6128 30.5268C32.4641 30.8614 32.4641 31.2331 32.5756 31.3446C32.8358 31.642 33.8766 30.6384 33.6536 30.2666C33.3562 29.7462 32.873 29.8577 32.6128 30.5268Z" fill="black"/>
<path d="M30.1971 31.9387C29.8997 32.3104 29.8625 32.5335 30.1599 32.7193C30.6431 33.0167 31.2751 32.6078 31.2751 31.9387C31.2751 31.2696 30.7547 31.2696 30.1971 31.9387Z" fill="black"/>
<path d="M27.6686 33.4635C27.5571 33.798 27.5571 34.1326 27.6686 34.2441C28.0031 34.5786 28.6722 34.021 28.6722 33.4263C28.6722 32.72 27.966 32.7572 27.6686 33.4635Z" fill="black"/>
<path d="M56.9975 23.0911C56.1426 23.6115 55.5106 24.1691 55.6221 24.3549C55.7337 24.578 56.5143 24.2806 57.2949 23.7974L58.7817 22.8681V24.3549C58.7817 25.1727 58.9676 25.8418 59.1535 25.8418C59.3765 25.8418 59.5252 24.9868 59.5252 23.9832C59.5252 21.8273 59.265 21.7157 56.9975 23.0911Z" fill="black"/>
<path d="M58.7808 28.0735C58.7808 28.4823 58.9666 28.8169 59.1525 28.8169C59.3755 28.8169 59.5242 28.4823 59.5242 28.0735C59.5242 27.6646 59.3755 27.33 59.1525 27.33C58.9666 27.33 58.7808 27.6646 58.7808 28.0735Z" fill="black"/>
<path d="M47.8148 32.1253C39.0795 34.3928 30.53 45.6186 28.8944 56.956C28.7829 57.811 28.8201 58.5916 28.9688 58.7031C29.1546 58.8146 30.2698 58.257 31.4964 57.4764C33.6524 56.1011 33.6896 56.0639 34.1728 53.6849C35.8827 45.2841 44.2092 36.7718 49.5619 37.9241C51.309 38.333 53.1676 40.1916 53.6136 42.0501C53.8366 42.9794 54.134 43.76 54.2827 43.8344C54.3942 43.9087 55.5094 43.3512 56.736 42.6077C59.1522 41.1209 59.1522 41.0837 58.3716 38.0356C57.8884 36.1398 55.9183 33.6865 54.1712 32.7944C52.61 31.9766 49.5991 31.6421 47.8148 32.1253ZM42.5364 39.3738C40.715 40.6376 37.5554 44.1318 36.4031 46.1762C35.288 48.1835 34.656 48.4809 33.0205 47.8489C32.4629 47.5887 32.5744 47.2542 34.0985 44.8009C36.2916 41.2324 38.6706 38.4445 41.2726 36.4L43.3542 34.7645L43.4657 36.6974C43.5773 38.4817 43.5029 38.7047 42.5364 39.3738ZM57.1078 37.0691C58.4831 40.0057 58.3716 40.8235 56.4015 41.9758C54.4686 43.091 54.3199 43.1281 54.3199 42.3847C54.3199 42.0501 53.9853 41.1209 53.5764 40.3402L52.833 38.8534L54.2084 36.9948C54.9518 35.9912 55.7324 35.1362 55.9183 35.1362C56.067 35.1362 56.6245 36.0283 57.1078 37.0691Z" fill="black"/>
<path d="M46.5897 42.7569C45.7347 44.095 44.6568 45.3217 44.2107 45.5076C42.3521 46.2138 40.5679 49.1132 40.5679 51.455C40.5679 55.3952 44.8054 54.8377 46.8499 50.6373C47.6677 48.9645 47.8535 47.2175 47.296 46.3253C47.0729 45.9908 47.296 44.95 47.8535 43.426C48.3368 42.1249 48.7456 40.8983 48.7456 40.7124C48.7456 39.8203 48.0394 40.5266 46.5897 42.7569ZM43.1327 48.3698C42.3521 50.0053 42.5008 51.1205 43.5416 51.1205C44.3594 51.1205 45.1772 50.154 45.8091 48.407C46.3667 46.8458 46.8871 46.5856 46.8871 47.9237C46.8871 51.3807 42.5751 54.9864 41.3113 52.6074C40.7537 51.6037 41.4228 49.2619 42.6867 47.775C43.9133 46.2882 44.062 46.5112 43.1327 48.3698Z" fill="black"/>
<path d="M31.0897 63.7952C28.1159 65.5422 28.1159 65.5422 28.4133 65.8396C28.6735 66.0998 34.2493 62.9774 34.2493 62.5685C34.2493 62.0481 33.7661 62.2339 31.0897 63.7952Z" fill="black"/>
<path d="M35.1776 10.2303C35.0661 10.4162 35.2148 10.6021 35.5122 10.6021C35.8467 10.6021 36.1069 10.4162 36.1069 10.2303C36.1069 10.0073 35.9583 9.85862 35.7724 9.85862C35.5494 9.85862 35.2892 10.0073 35.1776 10.2303Z" fill="black"/>
<path d="M15.5881 12.4232C10.3468 15.5085 10.8301 14.6164 10.8301 21.4188C10.8301 25.3962 10.9788 27.3291 11.239 27.3291C11.462 27.3291 12.6143 26.7344 13.841 26.0281L16.0341 24.7643V25.6564C16.0341 26.1768 16.22 26.5857 16.443 26.5857C16.6289 26.5857 18.4131 25.6564 20.346 24.5041L23.8402 22.4596V17.6273C23.8402 12.3861 23.7658 12.2746 21.7957 13.5756C21.201 13.9845 20.5691 14.319 20.4204 14.319C20.2345 14.319 20.123 13.3897 20.123 12.2746C20.123 10.862 19.9743 10.2301 19.6769 10.2673C19.4167 10.2673 17.5953 11.2337 15.5881 12.4232ZM19.3796 13.1667C19.3796 14.9509 19.3424 15.0253 17.7068 15.9546C16.3315 16.7723 16.0341 17.1441 16.0341 18.0733C16.0341 18.8911 15.8111 19.2628 15.1048 19.5974C14.2499 19.9691 14.1755 20.1921 14.1755 22.5339C14.1755 24.9873 14.1384 25.0988 13.0604 25.6564C12.4656 25.9537 11.9081 26.214 11.7594 26.214C11.6479 26.214 11.5735 23.835 11.5735 20.8984L11.6107 15.62L15.2163 13.5384C17.1864 12.3861 18.9335 11.4196 19.1194 11.3824C19.2681 11.3453 19.3796 12.163 19.3796 13.1667ZM23.0224 18.1105L22.9109 22.2737L20.123 23.8721C18.599 24.7643 17.2608 25.4705 17.1493 25.4705C17.0377 25.4705 17.0006 23.6119 17.0377 21.3445L17.1121 17.1812L19.8256 15.5828C21.3125 14.6907 22.6878 13.9845 22.8365 13.9473C22.9852 13.9473 23.0596 15.8059 23.0224 18.1105Z" fill="black"/>
<path d="M33.1338 11.3451C33.1338 11.5309 33.394 11.7168 33.6914 11.7168C33.9887 11.7168 34.2489 11.5309 34.2489 11.3451C34.2489 11.122 33.9887 10.9734 33.6914 10.9734C33.394 10.9734 33.1338 11.122 33.1338 11.3451Z" fill="black"/>
<path d="M35.5506 11.6801C35.3275 12.089 35.8851 12.5351 36.2568 12.2005C36.5914 11.866 36.517 11.3456 36.1453 11.3456C35.9223 11.3456 35.6993 11.4943 35.5506 11.6801Z" fill="black"/>
<path d="M31.2744 12.4603C31.2744 12.6462 31.4603 12.832 31.6461 12.832C31.8692 12.832 32.0178 12.6462 32.0178 12.4603C32.0178 12.2373 31.8692 12.0886 31.6461 12.0886C31.4603 12.0886 31.2744 12.2373 31.2744 12.4603Z" fill="black"/>
<path d="M29.2309 13.5755C29.1194 13.7614 29.268 13.9473 29.5654 13.9473C29.9 13.9473 30.1602 13.7614 30.1602 13.5755C30.1602 13.3525 30.0115 13.2038 29.8256 13.2038C29.6026 13.2038 29.3424 13.3525 29.2309 13.5755Z" fill="black"/>
<path d="M35.5506 13.9101C35.3275 14.319 35.8851 14.765 36.2568 14.4305C36.5914 14.096 36.517 13.5756 36.1453 13.5756C35.9223 13.5756 35.6993 13.7242 35.5506 13.9101Z" fill="black"/>
<path d="M27.2594 14.7289C27.3338 14.9519 27.5568 15.1006 27.7427 15.1006C27.9285 15.1006 28.1516 14.9519 28.2259 14.7289C28.3003 14.5058 28.0772 14.32 27.7427 14.32C27.4081 14.32 27.1851 14.5058 27.2594 14.7289Z" fill="black"/>
<path d="M25.4012 15.7691C25.5499 16.2524 26.0703 16.3639 26.1075 15.9178C26.1075 15.7691 25.9216 15.5833 25.6986 15.4718C25.4384 15.3974 25.2897 15.5461 25.4012 15.7691Z" fill="black"/>
<path d="M35.5506 16.1415C35.3275 16.5504 35.8851 16.9965 36.2568 16.6619C36.5914 16.3274 36.517 15.807 36.1453 15.807C35.9223 15.807 35.6993 15.9557 35.5506 16.1415Z" fill="black"/>
</g>
<defs>
<clipPath id="clip0_645_14042">
<rect width="80" height="80" fill="white"/>
</clipPath>
</defs>
</svg>
