<svg width="80" height="80" viewBox="0 0 80 80" fill="none" xmlns="http://www.w3.org/2000/svg">
<path d="M37.8418 10.4194C29.2413 15.4421 21.604 20.1208 20.7784 20.8088C19.3335 22.1161 19.3335 22.5977 19.3335 48.3304V74.5447L22.5673 76.4712C24.769 77.8473 26.1451 78.2601 26.9019 77.8473C27.5212 77.5721 33.3007 74.2695 39.7683 70.5541L51.3961 63.8113L56.006 56.0364L60.6159 48.3304V26.6571V5.0527L57.5197 3.12618C55.7996 2.09412 54.1483 1.26848 53.8731 1.33728C53.5979 1.33728 46.3734 5.46552 37.8418 10.4194ZM51.3273 7.73605C51.3273 8.01127 45.7542 11.3827 39.0114 15.3045C27.0395 22.2537 26.6267 22.4601 24.9754 21.3592C23.7369 20.5336 23.5993 20.1896 24.2874 19.7767C24.769 19.4327 30.4797 16.1301 36.8785 12.4147C47.1991 6.35997 48.7128 5.67193 49.9513 6.42877C50.7081 6.9104 51.3273 7.46084 51.3273 7.73605ZM59.4462 20.3272C59.7214 28.5836 59.9278 38.0098 59.9278 41.3124V47.2983L56.1436 49.4312C50.5017 52.665 50.2953 53.0091 50.2953 58.3758V63.0544L38.1858 70.0724C31.5118 73.9255 25.8699 76.884 25.6635 76.6088C25.3882 76.4024 25.113 64.9809 24.9754 51.289C24.769 30.7166 24.9066 26.1755 25.6635 25.0746C26.4891 24.0426 57.4509 5.53432 58.6206 5.46552C58.827 5.39671 59.2398 12.1395 59.4462 20.3272ZM22.4297 26.4507L24.1498 27.5516V48.124V68.6964L22.5673 67.9395C20.916 67.1827 20.916 67.0451 20.5032 52.321C19.9527 34.1568 19.8839 25.3499 20.3656 25.3499C20.572 25.3499 21.5352 25.8315 22.4297 26.4507ZM57.1069 51.977C56.2124 53.4219 54.6987 55.9676 53.5979 57.6877L51.6714 60.7839V57.2061C51.6714 53.6283 51.7402 53.5595 54.9739 51.4954C56.7628 50.3945 58.2765 49.4312 58.4141 49.4312C58.5517 49.4312 57.9325 50.6009 57.1069 51.977Z" fill="black"/>
<path d="M54.9739 9.93773C53.873 10.4882 53.0474 11.245 53.0474 11.6578C53.0474 12.0018 53.8042 11.7954 54.6987 11.245C56.35 10.1441 56.4188 10.1441 56.694 12.4147C56.9004 14.41 56.9692 14.3412 57.038 11.7266C57.1068 10.1441 57.1068 8.83687 57.038 8.83687C56.9004 8.90567 56.0059 9.3873 54.9739 9.93773Z" fill="black"/>
<path d="M56.625 18.4694C56.625 19.7767 56.7626 20.3271 56.969 19.6391C57.1066 19.0198 57.1066 17.919 56.969 17.2309C56.7626 16.6117 56.625 17.1621 56.625 18.4694Z" fill="black"/>
<path d="M47.956 18.8823C47.0615 21.2217 47.956 32.5055 48.988 31.8175C49.8137 31.3359 49.8137 17.7815 48.988 17.7815C48.644 17.7815 48.1624 18.2631 47.956 18.8823Z" fill="black"/>
<path d="M39.3551 23.5609C38.0479 25.1434 33.7132 39.9363 34.6765 39.5922C35.1581 39.4546 35.7773 38.4226 36.0526 37.2529C36.4654 35.808 37.5662 34.6384 39.4928 33.6063C42.1761 32.0926 42.3137 32.0926 43.2082 33.2623C43.8274 34.2255 44.309 34.3631 44.8595 33.8127C45.3411 33.3311 44.7907 31.5422 42.933 27.758C40.5936 23.2169 40.112 22.5977 39.3551 23.5609ZM41.0064 28.1708C41.6257 29.3404 42.0385 30.3725 41.9009 30.4413C39.2863 32.1614 37.7727 32.9871 37.635 32.7806C37.3598 32.5054 39.2863 26.0379 39.6304 26.0379C39.8368 26.0379 40.456 27.0011 41.0064 28.1708Z" fill="black"/>
<path d="M50.2953 37.7347C47.0615 39.5925 44.1717 41.2437 43.7589 41.3814C43.4149 41.5878 43.2085 41.863 43.4149 42.0694C43.6213 42.2758 46.4422 40.9685 49.6072 39.1108C52.841 37.2531 55.7996 35.6018 56.1436 35.4642C56.5564 35.2578 56.694 34.9826 56.4876 34.7762C56.2812 34.5698 53.4602 35.877 50.2953 37.7347Z" fill="black"/>
<path d="M45.3417 45.8535C39.6998 49.0873 35.1587 51.977 35.1587 52.2523C35.1587 52.8027 54.8366 41.6564 56.1439 40.418C57.7952 38.8355 54.699 40.3492 45.3417 45.8535Z" fill="black"/>
<path d="M34.3331 46.8856C27.3151 50.945 26.6958 52.1835 33.5762 48.3305C40.8006 44.3398 42.4519 43.239 41.3511 43.3078C40.8006 43.3078 37.6356 44.9591 34.3331 46.8856Z" fill="black"/>
<path d="M53.5979 46.4035C52.497 46.9539 51.6714 47.7108 51.6714 48.0548C51.6714 48.3988 52.7723 48.0548 54.0795 47.298C57.5885 45.165 57.1757 44.4082 53.5979 46.4035Z" fill="black"/>
<path d="M39.3554 54.6603C30.2045 59.9582 27.3835 61.8159 28.4156 61.8159C28.7596 61.8159 48.8504 50.2569 49.5384 49.7064C49.676 49.5688 49.676 49.2936 49.5384 49.156C49.4008 49.0184 44.7909 51.4953 39.3554 54.6603Z" fill="black"/>
<path d="M30.4801 54.385C29.2416 55.1418 28.3472 55.9675 28.5536 56.1051C28.9664 56.5179 33.0947 54.1098 33.0947 53.4217C33.0947 52.7337 33.2323 52.6649 30.4801 54.385Z" fill="black"/>
</svg>
