<svg width="79" height="79" viewBox="0 0 79 79" fill="none" xmlns="http://www.w3.org/2000/svg">
<path d="M54.9357 5.0659C51.4661 6.44066 49.3712 6.76798 43.4794 6.89891C39.5516 7.02984 36.0819 7.09531 35.8856 7.09531C35.6237 7.16077 33.3979 9.77934 30.8448 12.9216C26.0004 18.9444 19.6504 25.2944 15.1333 28.5022C10.8781 31.5135 10.158 33.6084 10.6817 41.9224C11.14 49.5162 12.8421 57.2411 15.0024 61.4962C17.1627 65.686 20.5669 69.0246 26.0004 72.2324C31.6958 75.5711 36.2783 76.8149 40.3371 76.2257C42.7593 75.8984 43.6104 75.2438 46.8836 71.4468C59.5182 56.5209 66.4574 38.4528 67.7667 17.0459C68.094 12.2015 67.9631 9.58295 67.4394 8.60098C66.7848 7.35716 60.4347 3.10197 59.5182 3.29837C59.3218 3.36383 57.2924 4.14941 54.9357 5.0659ZM60.5002 7.35716C61.6785 8.27367 61.5476 8.40459 58.2089 9.38656C53.6919 10.7613 43.0212 10.6958 40.4026 9.38656C39.3552 8.86285 38.5696 8.33913 38.5696 8.27367C38.5696 8.2082 41.1227 8.07727 44.3305 8.07727C48.0619 8.0118 51.2697 7.55356 53.6264 6.70251C57.227 5.45869 58.0125 5.52415 60.5002 7.35716ZM66.3265 16.3913C66.1956 28.6986 62.8569 42.4461 57.227 53.706C54.0847 59.8596 47.6691 69.221 44.1995 72.5597L41.2536 75.4402L36.9984 75.1128C25.2803 74.1309 18.9303 64.3112 17.8174 45.4575C17.3591 36.8162 17.621 36.1615 23.1855 31.7099C29.1427 26.9965 32.285 23.7887 37.5876 17.2423L42.432 11.285L47.2764 11.6124C52.4481 11.9397 60.3692 10.5649 63.4461 8.79738C64.3626 8.27367 65.41 7.94634 65.7373 8.07727C66.1301 8.2082 66.392 11.4814 66.3265 16.3913ZM38.6351 9.58295C39.6825 10.2376 40.5335 10.9577 40.5335 11.285C40.5335 13.118 28.7499 25.8181 22.0071 31.1862L17.5555 34.7213L15.1988 33.2811L12.7766 31.7754L15.3952 29.8115C19.9122 26.2109 29.6664 16.4567 32.6778 12.4634C34.3144 10.3031 35.8856 8.53552 36.1474 8.47005C36.4747 8.47005 37.5876 8.99377 38.6351 9.58295ZM15.1333 34.4594C16.9663 35.5723 17.0318 35.8342 16.7045 38.7146C16.1153 42.9698 17.4246 54.7534 18.9303 59.7287C19.6504 61.9545 20.2396 63.853 20.2396 63.9839C20.2396 64.1148 19.3885 63.6566 18.3411 63.0674C14.7405 60.9071 12.5148 53.575 11.9256 41.6605C11.4673 32.561 11.5328 32.43 15.1333 34.4594Z" fill="black"/>
<path d="M62.595 12.856C62.3331 13.0524 62.1367 13.707 62.1367 14.2307C62.1367 15.0163 62.3331 15.0163 63.1187 14.3617C63.6424 13.9034 64.1006 13.3142 64.1006 12.9869C64.1006 12.2668 63.1841 12.2013 62.595 12.856Z" fill="black"/>
<path d="M42.6937 14.6892C42.4973 15.2784 42.4973 15.8675 42.6937 16.0639C43.2829 16.6531 44.4612 15.6711 44.4612 14.6237C44.4612 13.3799 43.2174 13.4454 42.6937 14.6892Z" fill="black"/>
<path d="M55.9177 17.046C54.4775 17.3078 51.3352 17.5697 48.9785 17.5697C44.7233 17.6352 44.5923 17.7006 42.7593 20.0573C39.9444 23.9197 30.7794 33.1502 26.8515 36.1616L23.3164 38.9111L23.7092 46.1122C24.102 54.1643 25.8041 60.5144 28.4226 64.1149C30.6484 67.1917 34.3799 69.3521 37.3913 69.3521C39.617 69.3521 40.0753 68.9593 43.8068 64.2458C47.9965 58.9432 53.1027 49.6473 55.7868 42.5116C59.1255 33.543 61.6786 19.0754 60.1729 17.3078C59.7146 16.7841 59.1909 16.3913 58.9291 16.3913C58.7327 16.4568 57.3579 16.7187 55.9177 17.046ZM59.8456 21.0393C57.8162 38.2565 51.4661 53.9024 41.6464 65.686C39.1588 68.6319 38.8315 68.8283 36.5402 68.501C29.4701 67.5845 25.3458 59.7942 24.4293 45.7194L23.9711 39.5003L28.1608 36.1616C32.5469 32.6265 38.5696 26.6038 42.7593 21.4321L45.247 18.3553L50.5496 18.0934C53.4955 18.028 56.8997 17.8316 58.078 17.7661L60.2383 17.6352L59.8456 21.0393Z" fill="black"/>
<path d="M40.4683 32.4956C38.0461 34.525 36.6059 37.6019 36.6059 40.6787C36.6059 42.1189 36.1476 43.1009 35.2966 43.6901C34.2492 44.2792 33.9873 45.1957 33.9873 47.6834C33.9873 51.9386 34.9038 54.1644 36.9987 54.9499C39.5518 55.9319 41.843 55.0154 45.1817 51.6767C48.6513 48.2071 50.5498 43.4937 50.2225 39.1075C50.0261 36.489 49.8952 36.2926 48.2586 36.4235C46.6219 36.5544 46.4255 36.2926 46.4255 34.3941C46.4255 30.4662 43.9379 29.6152 40.4683 32.4956ZM45.64 34.9833C45.7709 37.5364 45.7709 37.6673 41.9085 39.6967C39.7482 40.8751 37.9152 41.8571 37.7188 41.8571C37.5878 41.8571 37.6533 40.5478 37.9152 38.9112C38.5044 35.1797 41.3193 31.9065 43.807 32.1683C45.1817 32.3647 45.4436 32.7575 45.64 34.9833ZM49.6988 39.173C49.6988 45.9158 43.807 54.2953 39.0935 54.2953C35.9512 54.2953 34.9693 52.9205 34.9693 48.469V44.803L41.7776 40.7442C45.509 38.5184 48.8477 36.8163 49.1751 37.0127C49.4369 37.2091 49.6988 38.191 49.6988 39.173Z" fill="black"/>
<path d="M41.3192 43.297C40.5337 44.0826 40.2063 50.3672 40.9264 50.3672C41.1228 50.3672 41.8429 50.0399 42.563 49.7125C43.545 49.1888 43.8069 48.2723 43.8069 45.7847C43.8069 42.446 42.9558 41.6604 41.3192 43.297ZM42.8904 45.9156C42.694 49.1234 41.3847 50.0399 41.3847 46.963C41.3847 45.13 42.1048 43.1661 42.8249 43.1661C42.9558 43.1661 42.9558 44.4099 42.8904 45.9156Z" fill="black"/>
<path d="M61.2203 32.4304C60.9585 33.0195 60.9585 33.6742 61.0894 33.8051C61.6131 34.3288 62.7915 33.2814 62.7915 32.2994C62.7915 31.0556 61.7441 31.1211 61.2203 32.4304Z" fill="black"/>
<path d="M20.698 36.4234C20.4361 36.6198 20.2397 37.2744 20.2397 37.7981C20.2397 38.5837 20.4361 38.5837 21.2217 37.9291C21.7454 37.4708 22.2037 36.8816 22.2037 36.5543C22.2037 35.8342 21.2872 35.7687 20.698 36.4234Z" fill="black"/>
<path d="M53.6265 53.3784C53.6265 54.4913 55.0667 54.2949 55.4595 53.1165C55.5904 52.6583 55.2631 52.331 54.6739 52.331C54.0847 52.331 53.6265 52.7892 53.6265 53.3784Z" fill="black"/>
<path d="M22.9234 59.7942C22.4652 60.3179 22.3997 60.9071 22.727 61.1035C23.1198 61.2999 23.709 61.038 24.1018 60.5797C24.56 60.056 24.6255 59.4668 24.2982 59.2705C23.9054 59.0741 23.3162 59.3359 22.9234 59.7942Z" fill="black"/>
<path d="M40.8608 71.3813C40.599 71.7741 40.5335 72.2323 40.7299 72.4287C41.1882 72.887 42.4975 72.0359 42.4975 71.2503C42.4975 70.4648 41.3846 70.4648 40.8608 71.3813Z" fill="black"/>
</svg>
