<svg width="40" height="40" viewBox="0 0 40 40" fill="none" xmlns="http://www.w3.org/2000/svg">
<rect width="40" height="40" rx="7" fill="#DDDDDD"/>
<path d="M22.625 14.25V21.125M25.75 19.125V16.25C25.75 15.5499 25.75 15.1999 25.6138 14.9325C25.4939 14.6973 25.3027 14.5061 25.0675 14.3862C24.8001 14.25 24.4501 14.25 23.75 14.25H17.0738C16.1604 14.25 15.7037 14.25 15.3348 14.4171C15.0097 14.5645 14.7333 14.8015 14.5383 15.1004C14.317 15.4396 14.2476 15.891 14.1087 16.7938L13.7818 18.9188C13.5986 20.1096 13.507 20.7049 13.6837 21.1682C13.8387 21.5748 14.1304 21.9148 14.5087 22.1299C14.9397 22.375 15.5421 22.375 16.7469 22.375H17.25C17.6001 22.375 17.7751 22.375 17.9088 22.4431C18.0264 22.503 18.122 22.5987 18.1819 22.7163C18.25 22.85 18.25 23.025 18.25 23.375V25.2089C18.25 26.06 18.94 26.75 19.7912 26.75C19.9942 26.75 20.1782 26.6304 20.2606 26.4449L22.3611 21.7189C22.4566 21.5039 22.5044 21.3964 22.5799 21.3176C22.6466 21.248 22.7286 21.1947 22.8194 21.162C22.9221 21.125 23.0397 21.125 23.2749 21.125H23.75C24.4501 21.125 24.8001 21.125 25.0675 20.9888C25.3027 20.8689 25.4939 20.6777 25.6138 20.4425C25.75 20.1751 25.75 19.8251 25.75 19.125Z" stroke="#818181" stroke-linecap="round" stroke-linejoin="round"/>
</svg>
