<svg width="120" height="120" viewBox="0 0 120 120" fill="none" xmlns="http://www.w3.org/2000/svg">
<path d="M63.2461 14.7784C59.5925 16.4728 59.01 17.4259 59.01 21.9267C59.01 26.1628 59.4336 27.0629 62.4518 28.7044C63.1931 29.128 63.299 29.2868 62.7166 29.3398C61.6046 29.3398 54.2445 32.8875 53.0796 33.9465C52.1794 34.7408 52.1265 34.6878 52.1265 33.3111C52.1265 31.0872 47.4668 26.6923 45.137 26.6923C41.0068 26.6923 36.2942 31.5108 35.8177 36.1704C35.6059 38.712 35.6588 38.8709 37.8828 40.936C39.1536 42.1538 40.7421 43.2658 41.3775 43.4246C42.4365 43.6894 42.3836 43.9012 39.9478 47.2371C31.5817 58.8332 26.7102 74.4007 28.2987 84.5672C28.9871 89.2798 30.7344 93.1981 33.1702 95.6338C35.447 97.8578 45.2429 103.682 48.1552 104.477C54.3504 106.171 61.9223 103.735 69.9708 97.4342C83.8968 86.5264 93.9574 64.6048 91.8393 49.5669C91.2569 45.1191 89.6154 41.0948 87.3915 38.5002C86.0677 36.9647 79.9784 33.0463 74.1009 29.9752C72.936 29.3398 72.3535 28.8632 72.7771 28.8103C73.7832 28.7573 75.6365 27.2218 76.4307 25.7921C77.172 24.3095 77.172 19.7028 76.3778 17.9554C74.8952 14.6725 67.4821 12.8722 63.2461 14.7784ZM72.8301 16.4199C76.2719 18.1672 76.2189 20.8677 72.6183 22.4562C65.3111 25.7921 55.6741 20.1794 62.3988 16.5258C65.1523 14.9902 70.0237 14.9373 72.8301 16.4199ZM74.7893 26.0039C73.6773 27.3277 70.9239 28.2808 68.1705 28.2808C64.1462 28.2808 63.2461 27.8572 63.2461 26.1098V24.5742L66.1583 24.892C69.3883 25.2626 73.4126 24.4154 74.4716 23.0916C75.054 22.4033 75.1599 22.4562 75.3188 23.727C75.4247 24.5213 75.1599 25.5274 74.7893 26.0039ZM46.8844 29.3927C48.7376 32.9404 42.1188 40.8301 38.3064 39.6651C37.1415 39.2945 36.5061 37.3353 36.9826 35.535C38.2005 30.5047 45.1899 26.2157 46.8844 29.3927ZM70.5532 30.9283C70.3944 32.1462 70.1826 32.2521 67.7469 32.2521C65.3111 32.2521 65.0993 32.1462 64.9405 30.9283C64.7816 29.6575 64.8875 29.6046 67.7469 29.6046C70.6062 29.6046 70.7121 29.6575 70.5532 30.9283ZM49.9025 31.5637C50.2732 31.9344 50.5379 32.8875 50.5379 33.6817C50.5379 38.712 42.966 44.8013 40.4773 41.7832C39.9478 41.1478 39.9478 40.9889 40.5832 40.9889C43.019 40.9889 48.4199 34.8466 48.4199 32.0932C48.4199 30.7695 48.9494 30.6106 49.9025 31.5637ZM63.5108 31.8814C64.411 34.8466 72.2476 34.6348 72.2476 31.6696C72.2476 30.6106 73.2537 30.7695 75.6365 32.1991L77.6486 33.417L74.5775 33.6817C62.5047 34.7937 47.9963 48.349 40.848 65.1343C37.5651 72.8122 36.559 77.5248 36.5061 85.0437V91.7155L33.9115 90.3388C30.4697 88.4326 29.8343 87.3206 29.5166 82.3433C28.9871 75.142 30.8933 66.7229 34.8646 58.3037C36.8238 54.2265 40.9539 47.7136 43.4426 44.8013L44.9781 43.001L46.5137 44.2189C48.7376 45.9663 51.2263 45.8074 53.2384 43.7953C55.3035 41.7832 55.5682 38.9768 53.8209 37.1235L52.656 35.9057L55.4623 34.2112C58.4805 32.4109 61.5516 30.9813 62.5577 30.9283C62.8754 30.9283 63.299 31.3519 63.5108 31.8814ZM80.7727 35.7998C87.4444 37.7589 91.3098 45.8604 90.6215 56.2387C89.0859 78.8485 69.0177 103.523 52.2324 103.471C47.7845 103.471 45.084 102.253 42.3306 99.1286C38.8888 95.2632 38.0946 92.245 38.1475 83.8788C38.2005 75.5656 39.1536 71.1707 42.5424 64.0224C48.2081 51.9497 60.122 39.771 69.4942 36.4352C73.4126 35.0585 77.5956 34.7937 80.7727 35.7998ZM52.9737 38.6061C53.715 39.7181 53.715 40.1947 53.1855 41.5184C52.1265 44.113 49.6907 44.9072 47.6786 43.3717C46.6725 42.6304 46.6725 42.5774 47.9963 41.3596C48.7376 40.6712 49.7437 39.4533 50.2732 38.712C51.4381 36.9647 51.8617 36.9117 52.9737 38.6061Z" fill="black"/>
<path d="M67.7443 44.59C55.0362 49.0379 43.3871 67.5705 44.2873 81.9731C45.1874 95.5284 56.2541 98.9702 68.4856 89.545C77.0107 82.9791 84.4237 68.3648 84.4237 58.0394C84.4237 47.2905 77.0636 41.36 67.7443 44.59ZM76.64 45.8079C78.9698 47.0257 81.2467 49.7262 82.0939 52.2678C82.7823 54.28 82.8882 56.1332 82.7293 59.9986C82.1998 69.2649 77.8579 78.4254 70.4448 85.7326C64.7261 91.3983 61.2314 93.1456 55.8305 93.1456C52.4946 93.1456 51.5944 92.9338 50.0589 91.8748C44.6579 88.0094 44.1813 76.6251 48.8939 66.1409C53.077 56.9804 60.5431 48.932 67.3737 46.2315C70.18 45.1725 74.8926 44.9077 76.64 45.8079Z" fill="black"/>
<path d="M68.0649 49.9892C65.2055 51.313 65.5762 52.0543 68.5414 50.8364C69.7063 50.3599 71.136 49.9892 71.7185 49.9892C72.248 49.9892 72.8834 49.7245 73.0422 49.4597C73.6247 48.5596 70.5006 48.8773 68.0649 49.9892Z" fill="black"/>
<path d="M76.4834 50.7304C76.4834 50.8363 76.8541 51.7894 77.2777 52.7955C77.7013 53.8545 78.0719 55.5489 78.0719 56.6079C78.0719 57.8258 78.3367 58.4612 78.8132 58.4612C79.3957 58.4612 79.5016 57.9317 79.2898 56.1843C78.9721 53.6956 77.6483 50.5186 76.96 50.5186C76.6952 50.5186 76.4834 50.6245 76.4834 50.7304Z" fill="black"/>
<path d="M63.7775 58.7801C63.7775 59.6273 63.195 60.5805 62.2419 61.4277C60.4416 62.9103 58.4824 66.6698 58.4824 68.576C58.4824 70.4292 59.4355 71.1705 61.7654 71.1705H63.7775V74.0828V76.9951L61.3417 77.6305C58.8531 78.3189 57.9 79.272 58.8531 80.2251C59.1708 80.5428 60.1768 80.4369 61.5536 79.9603C63.6716 79.219 63.7775 79.219 63.7775 80.1721C63.7775 81.7607 64.7835 81.4429 65.1542 79.7485C65.366 78.9543 66.2661 77.4717 67.2193 76.4656C69.4432 74.0299 70.1315 72.7061 70.1315 70.5351C70.1315 67.8347 69.4961 67.2522 67.0075 67.6229L64.8365 67.8876V64.8165V61.7454L66.9545 60.8982C68.9137 60.1039 70.1315 58.7801 69.4961 58.1447C69.3373 58.0388 68.2253 58.2506 67.0604 58.6742C64.9424 59.4155 64.8365 59.4155 64.8365 58.4624C64.8365 57.88 64.6247 57.4034 64.307 57.4034C64.0422 57.4034 63.7775 58.0388 63.7775 58.7801ZM63.7775 65.6637C63.7775 68.523 63.7775 68.576 62.3478 68.4171C60.3357 68.2053 60.1768 66.458 61.9242 64.3399C62.7185 63.4398 63.4598 62.6985 63.5657 62.6985C63.6716 62.6985 63.7775 64.0222 63.7775 65.6637ZM68.0135 71.6471C68.0135 72.6002 67.484 73.7122 66.5838 74.6123L65.1012 76.042L64.9424 73.8181C64.7306 70.8528 65.0483 70.1115 66.6898 70.1115C67.8017 70.1115 68.0135 70.3763 68.0135 71.6471Z" fill="black"/>
</svg>
