<svg width="23" height="23" viewBox="0 0 23 23" fill="none" xmlns="http://www.w3.org/2000/svg">
<g clip-path="url(#clip0_6050_2971)">
<path d="M21.7222 0H1.27778C0.572081 0 0 0.572081 0 1.27778V21.7222C0 22.4279 0.572081 23 1.27778 23H21.7222C22.4279 23 23 22.4279 23 21.7222V1.27778C23 0.572081 22.4279 0 21.7222 0Z" fill="#117EB8"/>
<path fill-rule="evenodd" clip-rule="evenodd" d="M4.19673 8.89455H7.27074V18.7852H4.19673V8.89455ZM5.73421 3.97798C6.71714 3.97798 7.51575 4.77659 7.51575 5.75952C7.51575 6.74341 6.71714 7.54234 5.73421 7.54234C5.49733 7.54683 5.26194 7.50405 5.04179 7.4165C4.82164 7.32895 4.62115 7.19839 4.45204 7.03245C4.28293 6.86652 4.1486 6.66854 4.0569 6.45008C3.9652 6.23163 3.91797 5.99708 3.91797 5.76016C3.91797 5.52324 3.9652 5.2887 4.0569 5.07024C4.1486 4.85179 4.28293 4.6538 4.45204 4.48787C4.62115 4.32193 4.82164 4.19138 5.04179 4.10383C5.26194 4.01628 5.49733 3.9735 5.73421 3.97798ZM9.19891 8.89423H12.1474V10.2458H12.1883C12.5988 9.46827 13.6015 8.64858 15.0968 8.64858C18.2095 8.64858 18.7845 10.6972 18.7845 13.3604V18.7852H15.7124V13.9753C15.7124 12.8285 15.6913 11.353 14.1152 11.353C12.5157 11.353 12.27 12.6023 12.27 13.8926V18.7852H9.19859V8.89455L9.19891 8.89423Z" fill="white"/>
</g>
<defs>
<clipPath id="clip0_6050_2971">
<rect width="23" height="23" rx="3" fill="white"/>
</clipPath>
</defs>
</svg>
