<svg width="30" height="30" viewBox="0 0 30 30" fill="none" xmlns="http://www.w3.org/2000/svg">
<rect width="30" height="30" rx="5" fill="#DDDDDD"/>
<path d="M15.5 15.7C15.7093 15.6975 15.9143 15.7604 16.0875 15.8801C16.2607 15.9999 16.3936 16.1707 16.4685 16.3698C16.5434 16.5688 16.5566 16.7864 16.5064 16.9933C16.4562 17.2002 16.3449 17.3864 16.1875 17.527V18.5C16.1875 18.6857 16.1151 18.8637 15.9861 18.995C15.8572 19.1263 15.6823 19.2 15.5 19.2C15.3177 19.2 15.1428 19.1263 15.0139 18.995C14.8849 18.8637 14.8125 18.6857 14.8125 18.5V17.527C14.6551 17.3864 14.5438 17.2002 14.4936 16.9933C14.4434 16.7864 14.4566 16.5688 14.5315 16.3698C14.6064 16.1707 14.7393 15.9999 14.9125 15.8801C15.0857 15.7604 15.2907 15.6975 15.5 15.7ZM12.0625 12.9V11.5C12.0625 10.5717 12.4247 9.6815 13.0693 9.02513C13.714 8.36875 14.5883 8 15.5 8C16.4117 8 17.286 8.36875 17.9307 9.02513C18.5753 9.6815 18.9375 10.5717 18.9375 11.5V12.9C19.4845 12.9 20.0091 13.1212 20.3959 13.5151C20.7827 13.9089 21 14.443 21 15V19.9C21 20.457 20.7827 20.9911 20.3959 21.3849C20.0091 21.7788 19.4845 22 18.9375 22H12.0625C11.5155 22 10.9909 21.7788 10.6041 21.3849C10.2173 20.9911 10 20.457 10 19.9V15C10 14.443 10.2173 13.9089 10.6041 13.5151C10.9909 13.1212 11.5155 12.9 12.0625 12.9ZM17.5625 11.5C17.5625 10.943 17.3452 10.4089 16.9584 10.0151C16.5716 9.62125 16.047 9.4 15.5 9.4C14.953 9.4 14.4284 9.62125 14.0416 10.0151C13.6548 10.4089 13.4375 10.943 13.4375 11.5V12.9H17.5625V11.5ZM11.375 19.9C11.375 20.0857 11.4474 20.2637 11.5764 20.395C11.7053 20.5263 11.8802 20.6 12.0625 20.6H18.9375C19.1198 20.6 19.2947 20.5263 19.4236 20.395C19.5526 20.2637 19.625 20.0857 19.625 19.9V15C19.625 14.8143 19.5526 14.6363 19.4236 14.505C19.2947 14.3737 19.1198 14.3 18.9375 14.3H12.0625C11.8802 14.3 11.7053 14.3737 11.5764 14.505C11.4474 14.6363 11.375 14.8143 11.375 15V19.9Z" fill="#404040"/>
</svg>
