<svg width="1200" height="488" viewBox="0 0 1200 488" fill="none" xmlns="http://www.w3.org/2000/svg">
<g clip-path="url(#clip0_639_6515)">
<path d="M0 9.99999C0 4.47714 4.47715 0 10 0H1190C1195.52 0 1200 4.47715 1200 10V478C1200 483.523 1195.52 488 1190 488H9.99999C4.47714 488 0 483.523 0 478V9.99999Z" fill="#F4F4F4"/>
<g filter="url(#filter0_d_639_6515)">
<rect width="1200" height="39" fill="#F7F7F7"/>
<circle cx="23.5" cy="19.5" r="6.5" fill="#F77171"/>
<circle cx="40.5" cy="19.5" r="6.5" fill="#FBBE24"/>
<circle cx="57.5" cy="19.5" r="6.5" fill="#21C55D"/>
</g>
<path d="M452.128 223.623L462.26 253.237H462.65L472.782 223.623H478.69L465.629 260H459.281L446.195 223.623H452.128ZM481.4 260V232.705H486.674V260H481.4ZM484.062 228.506C483.134 228.506 482.344 228.197 481.693 227.578C481.042 226.96 480.717 226.219 480.717 225.356C480.717 224.478 481.042 223.729 481.693 223.11C482.344 222.492 483.134 222.183 484.062 222.183C484.973 222.183 485.754 222.492 486.405 223.11C487.073 223.729 487.406 224.478 487.406 225.356C487.406 226.219 487.073 226.96 486.405 227.578C485.754 228.197 484.973 228.506 484.062 228.506ZM501.908 260.537C499.695 260.537 497.725 259.976 496 258.853C494.275 257.713 492.924 256.094 491.947 253.994C490.971 251.878 490.482 249.355 490.482 246.426C490.482 243.464 490.979 240.933 491.972 238.833C492.965 236.733 494.324 235.13 496.049 234.023C497.774 232.917 499.727 232.363 501.908 232.363C503.617 232.363 504.984 232.648 506.01 233.218C507.051 233.771 507.857 234.422 508.427 235.171C509.013 235.92 509.46 236.579 509.77 237.148H510.087V223.623H515.36V260H510.209V255.752H509.77C509.46 256.322 509.005 256.981 508.402 257.729C507.8 258.478 506.978 259.137 505.937 259.707C504.911 260.26 503.568 260.537 501.908 260.537ZM503.056 256.021C504.586 256.021 505.88 255.614 506.938 254.8C507.995 253.986 508.793 252.855 509.33 251.406C509.883 249.958 510.16 248.281 510.16 246.377C510.16 244.473 509.892 242.812 509.354 241.396C508.817 239.964 508.02 238.857 506.962 238.076C505.904 237.279 504.602 236.88 503.056 236.88C501.461 236.88 500.134 237.295 499.076 238.125C498.018 238.955 497.221 240.086 496.684 241.519C496.146 242.951 495.878 244.57 495.878 246.377C495.878 248.2 496.146 249.844 496.684 251.309C497.221 252.757 498.018 253.905 499.076 254.751C500.15 255.597 501.477 256.021 503.056 256.021ZM532.206 260.562C529.537 260.562 527.226 259.984 525.272 258.828C523.319 257.673 521.814 256.045 520.756 253.945C519.714 251.829 519.193 249.364 519.193 246.548C519.193 243.748 519.706 241.283 520.731 239.15C521.773 237.018 523.23 235.358 525.102 234.17C526.99 232.965 529.203 232.363 531.742 232.363C533.288 232.363 534.786 232.616 536.234 233.12C537.683 233.625 538.985 234.422 540.141 235.513C541.296 236.603 542.208 238.019 542.875 239.761C543.559 241.502 543.9 243.602 543.9 246.06V247.964H522.196V243.984H541.166L538.7 245.303C538.7 243.626 538.44 242.145 537.919 240.859C537.398 239.574 536.617 238.573 535.575 237.856C534.55 237.124 533.272 236.758 531.742 236.758C530.212 236.758 528.902 237.124 527.812 237.856C526.737 238.589 525.915 239.557 525.346 240.762C524.776 241.966 524.491 243.285 524.491 244.717V247.427C524.491 249.299 524.817 250.885 525.468 252.188C526.119 253.49 527.022 254.482 528.178 255.166C529.35 255.85 530.709 256.191 532.255 256.191C533.264 256.191 534.175 256.045 534.989 255.752C535.819 255.459 536.535 255.02 537.138 254.434C537.74 253.848 538.196 253.123 538.505 252.261L543.534 253.213C543.127 254.678 542.411 255.964 541.386 257.07C540.36 258.177 539.066 259.04 537.504 259.658C535.958 260.26 534.192 260.562 532.206 260.562ZM559.062 260.562C556.506 260.562 554.268 259.976 552.348 258.804C550.443 257.632 548.962 255.988 547.904 253.872C546.863 251.756 546.342 249.299 546.342 246.499C546.342 243.667 546.863 241.193 547.904 239.077C548.962 236.945 550.443 235.293 552.348 234.121C554.268 232.949 556.506 232.363 559.062 232.363C561.633 232.363 563.871 232.949 565.775 234.121C567.68 235.293 569.161 236.945 570.219 239.077C571.277 241.193 571.806 243.667 571.806 246.499C571.806 249.299 571.277 251.756 570.219 253.872C569.161 255.988 567.68 257.632 565.775 258.804C563.871 259.976 561.633 260.562 559.062 260.562ZM559.062 256.094C560.738 256.094 562.121 255.654 563.212 254.775C564.302 253.896 565.108 252.733 565.629 251.284C566.166 249.819 566.435 248.224 566.435 246.499C566.435 244.741 566.166 243.13 565.629 241.665C565.108 240.2 564.302 239.028 563.212 238.149C562.121 237.271 560.738 236.831 559.062 236.831C557.401 236.831 556.026 237.271 554.936 238.149C553.861 239.028 553.056 240.2 552.519 241.665C551.981 243.13 551.713 244.741 551.713 246.499C551.713 248.224 551.981 249.819 552.519 251.284C553.056 252.733 553.861 253.896 554.936 254.775C556.026 255.654 557.401 256.094 559.062 256.094ZM589.457 221.914L577.738 265.469H573.002L584.721 221.914H589.457ZM597.782 223.623V260H592.289V223.623H597.782ZM603.275 260V232.705H608.329V237.197H608.695C609.265 235.684 610.193 234.504 611.479 233.657C612.781 232.795 614.327 232.363 616.117 232.363C617.94 232.363 619.462 232.795 620.683 233.657C621.92 234.504 622.839 235.684 623.441 237.197H623.734C624.385 235.716 625.419 234.544 626.835 233.682C628.251 232.803 629.936 232.363 631.889 232.363C634.363 232.363 636.389 233.145 637.968 234.707C639.547 236.253 640.336 238.589 640.336 241.714V260H635.014V242.202C635.014 240.347 634.509 239.012 633.5 238.198C632.491 237.368 631.286 236.953 629.887 236.953C628.161 236.953 626.819 237.49 625.858 238.564C624.914 239.622 624.442 240.965 624.442 242.593V260H619.12V241.86C619.12 240.379 618.664 239.191 617.753 238.296C616.841 237.401 615.645 236.953 614.164 236.953C613.155 236.953 612.219 237.222 611.356 237.759C610.51 238.28 609.826 239.012 609.306 239.956C608.801 240.884 608.549 241.958 608.549 243.179V260H603.275ZM653.324 260.586C651.599 260.586 650.036 260.269 648.637 259.634C647.237 258.983 646.13 258.039 645.316 256.802C644.503 255.565 644.096 254.059 644.096 252.285C644.096 250.739 644.389 249.478 644.975 248.501C645.577 247.508 646.382 246.719 647.392 246.133C648.401 245.547 649.524 245.107 650.761 244.814C651.998 244.521 653.267 244.294 654.569 244.131C656.213 243.952 657.54 243.797 658.549 243.667C659.558 243.537 660.29 243.333 660.746 243.057C661.218 242.764 661.454 242.3 661.454 241.665V241.543C661.454 239.997 661.015 238.8 660.136 237.954C659.273 237.108 657.987 236.685 656.278 236.685C654.504 236.685 653.096 237.075 652.055 237.856C651.029 238.621 650.321 239.492 649.931 240.469L644.926 239.321C645.528 237.661 646.399 236.326 647.538 235.317C648.694 234.292 650.012 233.543 651.493 233.071C652.991 232.599 654.553 232.363 656.181 232.363C657.271 232.363 658.427 232.493 659.647 232.754C660.868 232.998 662.016 233.462 663.09 234.146C664.18 234.813 665.067 235.773 665.751 237.026C666.435 238.28 666.776 239.899 666.776 241.885V260H661.576V256.265H661.381C661.055 256.932 660.543 257.599 659.843 258.267C659.159 258.934 658.28 259.487 657.206 259.927C656.132 260.366 654.838 260.586 653.324 260.586ZM654.472 256.338C655.953 256.338 657.214 256.053 658.256 255.483C659.298 254.897 660.095 254.132 660.648 253.188C661.202 252.244 661.479 251.243 661.479 250.186V246.646C661.283 246.825 660.917 246.995 660.38 247.158C659.843 247.321 659.232 247.459 658.549 247.573C657.865 247.687 657.198 247.793 656.547 247.891C655.896 247.972 655.351 248.037 654.911 248.086C653.886 248.232 652.95 248.46 652.104 248.77C651.257 249.062 650.574 249.502 650.053 250.088C649.548 250.658 649.296 251.414 649.296 252.358C649.296 253.677 649.784 254.67 650.761 255.337C651.737 256.004 652.974 256.338 654.472 256.338ZM683.256 270.791C680.001 270.791 677.437 270.181 675.565 268.96C673.694 267.739 672.4 266.291 671.684 264.614L676.225 262.734C676.55 263.255 676.981 263.809 677.519 264.395C678.072 264.98 678.812 265.477 679.74 265.884C680.668 266.291 681.864 266.494 683.329 266.494C685.331 266.494 686.991 266.006 688.31 265.029C689.628 264.069 690.287 262.523 690.287 260.391V255.044H689.921C689.628 255.614 689.18 256.257 688.578 256.973C687.976 257.673 687.154 258.283 686.112 258.804C685.071 259.325 683.712 259.585 682.035 259.585C679.887 259.585 677.95 259.08 676.225 258.071C674.516 257.046 673.148 255.549 672.123 253.579C671.114 251.593 670.609 249.152 670.609 246.255C670.609 243.358 671.106 240.876 672.099 238.809C673.108 236.725 674.475 235.13 676.2 234.023C677.925 232.917 679.887 232.363 682.084 232.363C683.777 232.363 685.144 232.648 686.186 233.218C687.243 233.771 688.065 234.422 688.651 235.171C689.237 235.92 689.693 236.579 690.019 237.148H690.409V232.705H695.561V260.61C695.561 262.954 695.015 264.875 693.925 266.372C692.851 267.869 691.386 268.976 689.53 269.692C687.675 270.425 685.583 270.791 683.256 270.791ZM683.207 255.166C685.502 255.166 687.26 254.377 688.48 252.798C689.717 251.203 690.336 248.997 690.336 246.182C690.336 244.342 690.067 242.731 689.53 241.348C688.993 239.948 688.196 238.857 687.138 238.076C686.08 237.279 684.77 236.88 683.207 236.88C681.612 236.88 680.277 237.295 679.203 238.125C678.145 238.939 677.348 240.054 676.811 241.47C676.273 242.869 676.005 244.44 676.005 246.182C676.005 247.956 676.273 249.526 676.811 250.894C677.348 252.244 678.153 253.294 679.228 254.043C680.318 254.792 681.645 255.166 683.207 255.166ZM712.382 260.562C709.713 260.562 707.401 259.984 705.448 258.828C703.495 257.673 701.99 256.045 700.932 253.945C699.89 251.829 699.369 249.364 699.369 246.548C699.369 243.748 699.882 241.283 700.907 239.15C701.949 237.018 703.406 235.358 705.277 234.17C707.165 232.965 709.379 232.363 711.918 232.363C713.464 232.363 714.962 232.616 716.41 233.12C717.859 233.625 719.161 234.422 720.316 235.513C721.472 236.603 722.383 238.019 723.051 239.761C723.734 241.502 724.076 243.602 724.076 246.06V247.964H702.372V243.984H721.342L718.876 245.303C718.876 243.626 718.616 242.145 718.095 240.859C717.574 239.574 716.793 238.573 715.751 237.856C714.726 237.124 713.448 236.758 711.918 236.758C710.388 236.758 709.078 237.124 707.987 237.856C706.913 238.589 706.091 239.557 705.521 240.762C704.952 241.966 704.667 243.285 704.667 244.717V247.427C704.667 249.299 704.993 250.885 705.644 252.188C706.295 253.49 707.198 254.482 708.354 255.166C709.525 255.85 710.884 256.191 712.431 256.191C713.44 256.191 714.351 256.045 715.165 255.752C715.995 255.459 716.711 255.02 717.313 254.434C717.916 253.848 718.371 253.123 718.681 252.261L723.71 253.213C723.303 254.678 722.587 255.964 721.562 257.07C720.536 258.177 719.242 259.04 717.68 259.658C716.133 260.26 714.368 260.562 712.382 260.562Z" fill="#CECECE"/>
</g>
<defs>
<filter id="filter0_d_639_6515" x="-20.4" y="-16.4" width="1240.8" height="79.8" filterUnits="userSpaceOnUse" color-interpolation-filters="sRGB">
<feFlood flood-opacity="0" result="BackgroundImageFix"/>
<feColorMatrix in="SourceAlpha" type="matrix" values="0 0 0 0 0 0 0 0 0 0 0 0 0 0 0 0 0 0 127 0" result="hardAlpha"/>
<feMorphology radius="2" operator="dilate" in="SourceAlpha" result="effect1_dropShadow_639_6515"/>
<feOffset dy="4"/>
<feGaussianBlur stdDeviation="9.2"/>
<feComposite in2="hardAlpha" operator="out"/>
<feColorMatrix type="matrix" values="0 0 0 0 0.669828 0 0 0 0 0.639159 0 0 0 0 0.639159 0 0 0 0.25 0"/>
<feBlend mode="normal" in2="BackgroundImageFix" result="effect1_dropShadow_639_6515"/>
<feBlend mode="normal" in="SourceGraphic" in2="effect1_dropShadow_639_6515" result="shape"/>
</filter>
<clipPath id="clip0_639_6515">
<path d="M0 9.99999C0 4.47714 4.47715 0 10 0H1190C1195.52 0 1200 4.47715 1200 10V478C1200 483.523 1195.52 488 1190 488H9.99999C4.47714 488 0 483.523 0 478V9.99999Z" fill="white"/>
</clipPath>
</defs>
</svg>
