<svg width="26" height="26" viewBox="0 0 26 26" fill="none" xmlns="http://www.w3.org/2000/svg">
<path d="M19.4996 15.1666C18.8595 15.1709 18.2283 15.3168 17.6514 15.5941C17.0745 15.8713 16.5661 16.2729 16.1629 16.77L10.6379 14.2241C10.8977 13.4287 10.8977 12.5712 10.6379 11.7758L16.1629 9.22996C16.8146 10.0164 17.7233 10.5474 18.7284 10.7291C19.7335 10.9109 20.7705 10.7317 21.6564 10.2233C22.5423 9.71484 23.2201 8.90981 23.5702 7.95027C23.9203 6.99072 23.9202 5.93834 23.57 4.97886C23.2197 4.01938 22.5417 3.21447 21.6557 2.7062C20.7697 2.19793 19.7327 2.01896 18.7276 2.20089C17.7225 2.38281 16.814 2.91393 16.1624 3.70051C15.5108 4.48709 15.158 5.47857 15.1662 6.49996C15.1695 6.75805 15.1948 7.01538 15.2421 7.26913L9.52205 9.90163C8.91222 9.30534 8.13998 8.90227 7.30209 8.74293C6.4642 8.58358 5.59791 8.67504 4.81177 9.00585C4.02563 9.33667 3.35459 9.89212 2.88274 10.6026C2.41088 11.3131 2.15918 12.1471 2.15918 13C2.15918 13.8529 2.41088 14.6868 2.88274 15.3973C3.35459 16.1078 4.02563 16.6633 4.81177 16.9941C5.59791 17.3249 6.4642 17.4163 7.30209 17.257C8.13998 17.0977 8.91222 16.6946 9.52205 16.0983L15.2421 18.7308C15.1948 18.9845 15.1695 19.2419 15.1662 19.5C15.1662 20.357 15.4204 21.1948 15.8965 21.9074C16.3727 22.62 17.0494 23.1755 17.8413 23.5034C18.6331 23.8314 19.5044 23.9172 20.3449 23.75C21.1855 23.5828 21.9577 23.1701 22.5637 22.5641C23.1697 21.9581 23.5824 21.1859 23.7496 20.3454C23.9168 19.5048 23.831 18.6335 23.503 17.8417C23.1751 17.0499 22.6196 16.3731 21.907 15.8969C21.1944 15.4208 20.3566 15.1666 19.4996 15.1666ZM19.4996 4.33329C19.9281 4.33329 20.347 4.46037 20.7033 4.69844C21.0596 4.93652 21.3373 5.27491 21.5013 5.67081C21.6653 6.06672 21.7082 6.50236 21.6246 6.92266C21.541 7.34295 21.3346 7.72901 21.0316 8.03203C20.7286 8.33504 20.3425 8.5414 19.9222 8.625C19.502 8.7086 19.0663 8.66569 18.6704 8.5017C18.2745 8.33771 17.9361 8.06 17.698 7.7037C17.46 7.34739 17.3329 6.92849 17.3329 6.49996C17.3329 5.92533 17.5612 5.37423 17.9675 4.9679C18.3738 4.56157 18.9249 4.33329 19.4996 4.33329ZM6.49955 15.1666C6.07103 15.1666 5.65212 15.0396 5.29582 14.8015C4.93951 14.5634 4.6618 14.225 4.49781 13.8291C4.33382 13.4332 4.29092 12.9976 4.37452 12.5773C4.45812 12.157 4.66447 11.7709 4.96749 11.4679C5.2705 11.1649 5.65656 10.9585 6.07686 10.8749C6.49715 10.7913 6.93279 10.8342 7.3287 10.9982C7.72461 11.1622 8.06299 11.4399 8.30107 11.7962C8.53915 12.1525 8.66622 12.5714 8.66622 13C8.66622 13.5746 8.43795 14.1257 8.03162 14.532C7.62529 14.9384 7.07419 15.1666 6.49955 15.1666ZM19.4996 21.6666C19.071 21.6666 18.6521 21.5396 18.2958 21.3015C17.9395 21.0634 17.6618 20.725 17.4978 20.3291C17.3338 19.9332 17.2909 19.4976 17.3745 19.0773C17.4581 18.657 17.6645 18.2709 17.9675 17.9679C18.2705 17.6649 18.6566 17.4585 19.0769 17.3749C19.4972 17.2913 19.9328 17.3342 20.3287 17.4982C20.7246 17.6622 21.063 17.9399 21.3011 18.2962C21.5391 18.6525 21.6662 19.0714 21.6662 19.5C21.6662 20.0746 21.4379 20.6257 21.0316 21.032C20.6253 21.4384 20.0742 21.6666 19.4996 21.6666Z" fill="#818181"/>
</svg>
